SplineFontDB: 2.0
FontName: JointbyPizzaDude
FullName: Joint by PizzaDude
FamilyName: Joint by PizzaDude
Weight: Book
Copyright: By Jakob Fischer aka PizzaDude *Distribute freely*
Version: http://hjem.get2net.dk/jfischer/
ItalicAngle: 0
UnderlinePosition: -133
UnderlineWidth: 20
Ascent: 803
Descent: 197
Order2: 1
NeedsXUIDChange: 1
XUID: [1021 159 243506565 4786965]
FSType: 2
OS2Version: 1
OS2_WeightWidthSlopeOnly: 0
OS2_UseTypoMetrics: 1
CreationTime: 935678597
ModificationTime: 1206903406
PfmFamily: 81
TTFWeight: 400
TTFWidth: 5
LineGap: 0
VLineGap: 0
Panose: 0 0 4 0 0 0 0 0 0 0
OS2TypoAscent: 0
OS2TypoAOffset: 1
OS2TypoDescent: 0
OS2TypoDOffset: 1
OS2TypoLinegap: 0
OS2WinAscent: -1
OS2WinAOffset: 1
OS2WinDescent: -1
OS2WinDOffset: 1
HheadAscent: -1
HheadAOffset: 1
HheadDescent: -2
HheadDOffset: 1
OS2SubXSize: 700
OS2SubYSize: 650
OS2SubXOff: 0
OS2SubYOff: 143
OS2SupXSize: 700
OS2SupYSize: 650
OS2SupXOff: 0
OS2SupYOff: 453
OS2StrikeYSize: 50
OS2StrikeYPos: 259
OS2Vendor: 'MACR'
TtfTable: prep 67
5S"2/#mg_;!s8T+!<E0#!KFSis+NmT6q(cW7;,(XBLG:&6q(cW7;,)q"pIHr/$fKd7K=sD"U.>.
7'Qt%7;,'h
EndTtf
TtfTable: fpgm 20
5QLj9G"!OX"!pA\@;$K&BOF4[
EndTtf
TtfTable: cvt  30
s%38:!^$Or!s8P;!3ZB>!/1EH!-;=Q>%.I5!!E9%
EndTtf
TtfTable: maxp 32
!!*'"!+l5(!!E9%!!!!#!!iQi!"&]+!([*Zz
EndTtf
LangName: 1033 "" "" "Regular" "Joint by PizzaDude" "" "http://hjem.get2net.dk/jfischer/" 
Encoding: UnicodeBmp
UnicodeInterp: none
NameList: Adobe Glyph List
DisplaySize: -24
AntiAlias: 1
FitToEm: 1
WinInfo: 0 47 16
BeginChars: 65541 102
StartChar: .notdef
Encoding: 65536 -1 0
Width: 500
Flags: W
Fore
63 0 m 1,0,-1
 63 803 l 1,1,-1
 438 803 l 1,2,-1
 438 0 l 1,3,-1
 63 0 l 1,0,-1
125 63 m 1,4,-1
 375 63 l 1,5,-1
 375 741 l 1,6,-1
 125 741 l 1,7,-1
 125 63 l 1,4,-1
EndSplineSet
EndChar
StartChar: exclam
Encoding: 33 33 4
Width: 315
GlyphClass: 2
Flags: W
Fore
332 701 m 0,0,1
 332 640 332 640 299 405 c 0,2,3
 259 119 259 119 219 119 c 0,4,5
 200 119 200 119 102 137 c 1,6,7
 98 167 98 167 84 245 c 0,8,9
 69 309 69 309 39 438 c 0,10,11
 0 606 0 606 0 652 c 0,12,13
 0 733 0 733 104 774 c 0,14,15
 178 803 178 803 268 803 c 0,16,17
 332 803 332 803 332 701 c 0,0,1
306 -70 m 0,18,19
 306 -122 306 -122 263.5 -159.5 c 128,-1,20
 221 -197 221 -197 169 -197 c 0,21,22
 23 -197 23 -197 23 -67 c 0,23,24
 23 -8 23 -8 63.5 34 c 128,-1,25
 104 76 104 76 163 76 c 1,26,27
 157 76 157 76 213 61 c 0,28,29
 256 49 256 49 281 12.5 c 128,-1,30
 306 -24 306 -24 306 -70 c 0,18,19
EndSplineSet
EndChar
StartChar: quotedbl
Encoding: 34 34 5
Width: 557
GlyphClass: 2
Flags: W
Fore
575 690 m 0,0,1
 575 643 575 643 541 585.5 c 128,-1,2
 507 528 507 528 465 508 c 0,3,4
 462 507 462 507 447 497 c 0,5,6
 441 493 441 493 431 493 c 0,7,8
 413 493 413 493 399.5 506 c 128,-1,9
 386 519 386 519 386 537 c 0,10,11
 386 545 386 545 412 565 c 0,12,13
 422 573 422 573 443 590 c 0,14,15
 475 611 475 611 475 623 c 1,16,17
 473 625 473 625 467 625 c 2,18,-1
 445 625 l 2,19,20
 382 625 382 625 382 689 c 0,21,22
 382 728 382 728 417 760.5 c 128,-1,23
 452 793 452 793 491 793 c 0,24,25
 510 793 510 793 546 769 c 1,26,27
 575 725 575 725 575 690 c 0,0,1
330 676 m 0,28,29
 330 629 330 629 296 572 c 128,-1,30
 262 515 262 515 220 495 c 0,31,32
 217 493 217 493 202 484 c 1,33,34
 196 479 196 479 185 479 c 0,35,36
 166 479 166 479 153.5 492 c 128,-1,37
 141 505 141 505 141 524 c 0,38,39
 141 529 141 529 167 551 c 0,40,41
 183 564 183 564 216 589 c 0,42,43
 230 600 230 600 230 610 c 1,44,45
 228 611 228 611 222 611 c 2,46,-1
 200 611 l 2,47,48
 171 611 171 611 153.5 628.5 c 128,-1,49
 136 646 136 646 136 675 c 0,50,51
 136 713 136 713 171 746 c 128,-1,52
 206 779 206 779 245 779 c 0,53,54
 265 779 265 779 301 756 c 1,55,56
 304 750 304 750 312 738 c 0,57,58
 330 712 330 712 330 676 c 0,28,29
EndSplineSet
EndChar
StartChar: numbersign
Encoding: 35 35 6
Width: 769
GlyphClass: 2
Flags: W
Fore
786 89 m 0,0,1
 786 82 786 82 749 65 c 0,2,3
 735 59 735 59 707 46 c 1,4,5
 707 18 707 18 716 -47 c 2,6,-1
 725 -111 l 2,7,8
 725 -122 725 -122 720 -126 c 1,9,10
 664 -152 664 -152 606 -164 c 0,11,12
 603 -165 603 -165 585 -173.5 c 128,-1,13
 567 -182 567 -182 565 -182 c 0,14,15
 551 -182 551 -182 538 -118 c 0,16,17
 530 -82 530 -82 520 25 c 1,18,19
 479 48 479 48 417 48 c 0,20,21
 387 48 387 48 382.5 42.5 c 128,-1,22
 378 37 378 37 374 3 c 0,23,24
 367 -56 367 -56 369 -78 c 0,25,26
 371 -106 371 -106 369 -110 c 1,27,28
 365 -111 365 -111 345 -119 c 0,29,30
 291 -141 291 -141 224 -161 c 1,31,32
 213 -130 213 -130 209 -62 c 0,33,34
 209 -58 209 -58 203 55 c 1,35,36
 124 45 124 45 108 45 c 0,37,38
 105 45 105 45 99 43 c 128,-1,39
 93 41 93 41 90 41 c 0,40,41
 75 41 75 41 59 110 c 0,42,43
 45 169 45 169 45 181 c 0,44,45
 45 199 45 199 108 219 c 0,46,47
 125 224 125 224 186 240 c 1,48,49
 188 275 188 275 189 324 c 0,50,51
 190 383 190 383 182 396 c 1,52,53
 160 396 160 396 115 390 c 128,-1,54
 70 384 70 384 78 384 c 1,55,56
 60 384 60 384 43 391 c 1,57,-1
 43 453 l 2,58,59
 43 465 43 465 46 493 c 0,60,61
 50 526 50 526 53 528 c 0,62,63
 72 541 72 541 146 547 c 1,64,65
 155 546 155 546 169 550 c 1,66,67
 175 556 175 556 176 576 c 0,68,69
 177 601 177 601 176 615 c 0,70,71
 174 651 174 651 174 656 c 0,72,73
 174 703 174 703 173 712 c 1,74,75
 176 725 176 725 222 742 c 0,76,77
 263 757 263 757 282 757 c 0,78,79
 291 757 291 757 298 732 c 0,80,81
 303 715 303 715 304 706 c 0,82,83
 310 661 310 661 313 617 c 0,84,85
 314 608 314 608 321 567 c 1,86,87
 323 564 323 564 327 559 c 1,88,89
 380 552 380 552 487 536 c 1,90,-1
 491 540 l 1,91,92
 483 613 483 613 468 758 c 1,93,94
 477 770 477 770 509 778 c 0,95,96
 535 784 535 784 556 784 c 0,97,98
 575 784 575 784 583 760 c 0,99,100
 586 747 586 747 591 722 c 0,101,102
 596 691 596 691 610 613 c 0,103,104
 612 602 612 602 623 556 c 0,105,106
 624 552 624 552 631 546 c 1,107,108
 672 542 672 542 747 526 c 0,109,110
 755 524 755 524 762 499 c 0,111,112
 766 486 766 486 776 426 c 0,113,114
 778 413 778 413 784 380 c 1,115,116
 758 370 758 370 710 355 c 1,117,118
 694 353 694 353 669 341 c 1,119,120
 666 332 666 332 666 306 c 0,121,122
 666 296 666 296 671 208 c 0,123,124
 671 200 671 200 681 200 c 0,125,126
 738 200 738 200 756 192 c 0,127,128
 759 191 759 191 772.5 144.5 c 128,-1,129
 786 98 786 98 786 89 c 0,0,1
514 196 m 1,130,-1
 514 283 l 2,131,132
 514 303 514 303 500 365 c 1,133,134
 450 386 450 386 347 386 c 1,135,136
 348 386 348 386 343 391 c 1,137,-1
 328 391 l 1,138,-1
 330 387 l 1,139,140
 330 378 330 378 329 351 c 2,141,-1
 327 323 l 2,142,143
 327 281 327 281 337 195 c 1,144,-1
 446 195 l 2,145,146
 466 195 466 195 510 192 c 1,147,-1
 514 196 l 1,130,-1
EndSplineSet
EndChar
StartChar: dollar
Encoding: 36 36 7
Width: 633
GlyphClass: 2
Flags: W
Fore
666 162 m 0,0,1
 666 114 666 114 651 96 c 0,2,3
 616 53 616 53 555 25 c 2,4,-1
 471 -11 l 1,5,6
 470 -17 470 -17 470 -26 c 0,7,8
 470 -38 470 -38 472.5 -62 c 128,-1,9
 475 -86 475 -86 475 -98 c 0,10,11
 475 -107 475 -107 474 -113 c 1,12,13
 374 -159 374 -159 360 -159 c 0,14,15
 352 -159 352 -159 331 -83 c 1,16,17
 328 -79 328 -79 323 -79 c 1,18,19
 327 -75 327 -75 329 -69 c 1,20,21
 326 -50 326 -50 316 -12 c 1,22,23
 242 9 242 9 187 41 c 1,24,25
 186 62 186 62 182 74 c 1,26,-1
 182 149 l 2,27,28
 182 152 182 152 187 152 c 0,29,30
 190 152 190 152 198.5 149 c 128,-1,31
 207 146 207 146 210 146 c 0,32,33
 223 146 223 146 259 132 c 2,34,-1
 330 104 l 1,35,36
 332 107 332 107 332 118 c 0,37,38
 332 194 332 194 324 235 c 0,39,40
 322 244 322 244 306 250 c 0,41,42
 281 259 281 259 280 260 c 0,43,44
 255 273 255 273 206 301.5 c 128,-1,45
 157 330 157 330 133 364 c 0,46,47
 118 385 118 385 118 441 c 0,48,49
 118 498 118 498 140 533 c 0,50,51
 158 560 158 560 210 598 c 0,52,53
 283 651 283 651 339 654 c 1,54,55
 338 668 338 668 338 697 c 1,56,57
 343 703 343 703 355 713 c 1,58,59
 412 743 412 743 431 743 c 0,60,61
 443 743 443 743 444 711 c 2,62,-1
 444 669 l 1,63,64
 446 655 446 655 451 653 c 0,65,66
 478 645 478 645 524 629 c 0,67,68
 537 623 537 623 581 589.5 c 128,-1,69
 625 556 625 556 625 549 c 0,70,71
 625 541 625 541 601 508 c 128,-1,72
 577 475 577 475 570 475 c 0,73,74
 564 475 564 475 521.5 508 c 128,-1,75
 479 541 479 541 464 541 c 0,76,77
 453 541 453 541 452 502 c 0,78,79
 452 485 452 485 460 410 c 0,80,81
 461 402 461 402 483 394 c 0,82,83
 553 370 553 370 585 333 c 0,84,85
 666 240 666 240 666 162 c 0,0,1
345 427 m 1,86,87
 345 511 345 511 343 552 c 1,88,89
 295 529 295 529 295 483 c 0,90,91
 295 454 295 454 345 427 c 1,86,87
504 151 m 0,92,93
 504 170 504 170 482 192 c 128,-1,94
 460 214 460 214 441 218 c 1,95,96
 441 216 441 216 436 215 c 1,97,98
 438 176 438 176 451 98 c 1,99,100
 504 114 504 114 504 151 c 0,92,93
EndSplineSet
EndChar
StartChar: percent
Encoding: 37 37 8
Width: 667
GlyphClass: 2
Flags: W
Fore
300 551 m 0,0,1
 300 529 300 529 278 495 c 128,-1,2
 256 461 256 461 235 461 c 0,3,4
 228 461 228 461 213.5 459 c 128,-1,5
 199 457 199 457 192 457 c 0,6,7
 164 457 164 457 137.5 483 c 128,-1,8
 111 509 111 509 111 537 c 0,9,10
 111 574 111 574 136.5 606.5 c 128,-1,11
 162 639 162 639 198 639 c 0,12,13
 237 639 237 639 268.5 614 c 128,-1,14
 300 589 300 589 300 551 c 0,0,1
700 106 m 0,15,16
 700 84 700 84 678 50 c 128,-1,17
 656 16 656 16 635 16 c 0,18,19
 629 16 629 16 614 13.5 c 128,-1,20
 599 11 599 11 592 11 c 0,21,22
 564 11 564 11 537.5 37.5 c 128,-1,23
 511 64 511 64 511 92 c 0,24,25
 511 129 511 129 536.5 161 c 128,-1,26
 562 193 562 193 598 193 c 0,27,28
 637 193 637 193 668.5 168.5 c 128,-1,29
 700 144 700 144 700 106 c 0,15,16
693 681 m 1,30,31
 682 641 682 641 612 505 c 0,32,33
 584 444 584 444 497 280 c 0,34,35
 441 189 441 189 299 -47 c 0,36,37
 289 -64 289 -64 281 -64 c 0,38,39
 256 -64 256 -64 197 -9 c 0,40,41
 147 37 147 37 129 64 c 0,42,43
 122 72 122 72 109 88 c 0,44,45
 91 110 91 110 91 114 c 1,46,47
 119 159 119 159 238 336 c 0,48,49
 283 403 283 403 395 574 c 0,50,51
 408 597 408 597 427 627 c 0,52,53
 451 663 451 663 471 674 c 0,54,55
 482 680 482 680 552 688 c 0,56,57
 597 693 597 693 594 693 c 1,58,-1
 601 690 l 1,59,-1
 656 690 l 2,60,61
 694 690 694 690 693 681 c 1,30,31
EndSplineSet
EndChar
StartChar: ampersand
Encoding: 38 38 9
Width: 687
GlyphClass: 2
Flags: W
Fore
736 195 m 0,0,1
 736 109 736 109 644 77 c 0,2,3
 600 62 600 62 598 62 c 2,4,-1
 566 62 l 2,5,6
 534 62 534 62 493 79 c 0,7,8
 481 86 481 86 457 101 c 1,9,10
 364 17 364 17 254 17 c 0,11,12
 172 17 172 17 111 82.5 c 128,-1,13
 50 148 50 148 50 226 c 0,14,15
 50 287 50 287 90 353 c 0,16,17
 131 423 131 423 192 456 c 1,18,19
 153 527 153 527 153 567 c 0,20,21
 153 639 153 639 213 674 c 0,22,23
 258 700 258 700 327 700 c 0,24,25
 377 700 377 700 418 667 c 0,26,27
 463 631 463 631 463 578 c 1,28,29
 463 579 463 579 459 573 c 1,30,31
 457 549 457 549 448 505 c 0,32,33
 444 493 444 493 412 425 c 0,34,35
 410 422 410 422 400 409.5 c 128,-1,36
 390 397 390 397 390 394 c 0,37,38
 390 368 390 368 489 247 c 1,39,40
 501 254 501 254 510 269 c 0,41,42
 558 349 558 349 569 349 c 0,43,44
 622 349 622 349 622 322 c 0,45,46
 622 302 622 302 595 255 c 0,47,48
 568 209 568 209 568 208 c 0,49,50
 568 200 568 200 592 188 c 1,51,52
 593 187 593 187 607 187 c 0,53,54
 610 187 610 187 609.5 186 c 128,-1,55
 609 185 609 185 612 185 c 0,56,57
 618 185 618 185 629 194.5 c 128,-1,58
 640 204 640 204 641 213 c 128,-1,59
 642 222 642 222 644 242 c 1,60,61
 651 246 651 246 713 276 c 1,62,63
 736 233 736 233 736 195 c 0,0,1
356 545 m 0,64,65
 356 584 356 584 317 584 c 0,66,67
 289 584 289 584 285 574 c 1,68,69
 284 548 284 548 341 495 c 1,70,71
 356 519 356 519 356 545 c 0,64,65
369 174 m 1,72,73
 362 214 362 214 326 253 c 1,74,75
 319 266 319 266 305 284 c 1,76,77
 295 293 295 293 252 336 c 1,78,79
 217 288 217 288 217 243 c 0,80,81
 217 174 217 174 294 174 c 0,82,83
 376 174 376 174 369 174 c 1,72,73
EndSplineSet
EndChar
StartChar: quotesingle
Encoding: 39 39 10
Width: 320
GlyphClass: 2
Flags: W
Fore
330 676 m 0,0,1
 330 629 330 629 296 572 c 128,-1,2
 262 515 262 515 220 495 c 0,3,4
 217 493 217 493 202 484 c 1,5,6
 196 479 196 479 185 479 c 0,7,8
 166 479 166 479 153.5 492 c 128,-1,9
 141 505 141 505 141 524 c 0,10,11
 141 529 141 529 167 551 c 0,12,13
 183 564 183 564 216 589 c 0,14,15
 230 600 230 600 230 610 c 1,16,17
 228 611 228 611 222 611 c 2,18,-1
 200 611 l 2,19,20
 171 611 171 611 153.5 628.5 c 128,-1,21
 136 646 136 646 136 675 c 0,22,23
 136 713 136 713 171 746 c 128,-1,24
 206 779 206 779 245 779 c 0,25,26
 265 779 265 779 301 756 c 1,27,28
 304 750 304 750 312 738 c 0,29,30
 330 712 330 712 330 676 c 0,0,1
EndSplineSet
EndChar
StartChar: parenleft
Encoding: 40 40 11
Width: 330
GlyphClass: 2
Flags: W
Fore
354 -177 m 0,0,1
 354 -179 354 -179 352.5 -185.5 c 128,-1,2
 351 -192 351 -192 350 -195 c 128,-1,3
 349 -198 349 -198 345 -198 c 0,4,5
 343 -198 343 -198 339 -194.5 c 128,-1,6
 335 -191 335 -191 333 -190 c 0,7,8
 287 -173 287 -173 199 -135 c 0,9,10
 182 -127 182 -127 163 -119.5 c 128,-1,11
 144 -112 144 -112 131 -98 c 0,12,13
 67 -30 67 -30 32 62 c 0,14,15
 0 149 0 149 0 235 c 0,16,17
 0 402 0 402 70 533 c 0,18,19
 98 586 98 586 106 600 c 0,20,21
 127 637 127 637 152 669 c 0,22,23
 179 705 179 705 227 744.5 c 128,-1,24
 275 784 275 784 309 800 c 0,25,26
 318 804 318 804 349 804 c 1,27,28
 340 774 340 774 349 714 c 1,29,30
 322 696 322 696 279 660 c 0,31,32
 221 599 221 599 172 511 c 0,33,34
 120 420 120 420 111 355 c 2,35,36
 107 343 107 343 101 318 c 0,37,38
 87 247 87 247 87 220 c 0,39,40
 87 173 87 173 110 112 c 0,41,42
 127 66 127 66 189 9 c 128,-1,43
 251 -48 251 -48 294 -60 c 0,44,45
 310 -67 310 -67 343 -81 c 1,46,47
 345 -87 345 -87 349.5 -126 c 128,-1,48
 354 -165 354 -165 354 -177 c 0,0,1
EndSplineSet
EndChar
StartChar: parenright
Encoding: 41 41 12
Width: 333
GlyphClass: 2
Flags: W
Fore
354 235 m 0,0,1
 354 123 354 123 296 7 c 0,2,3
 241 -104 241 -104 154 -135 c 0,4,5
 123 -149 123 -149 63 -174 c 0,6,7
 45 -181 45 -181 12 -198 c 1,8,-1
 5 -198 l 1,9,10
 0 -186 0 -186 0 -177 c 0,11,12
 0 -146 0 -146 9 -83 c 1,13,14
 33 -73 33 -73 59.5 -63 c 128,-1,15
 86 -53 86 -53 114 -34 c 0,16,17
 148 -12 148 -12 192 37 c 0,18,19
 239 90 239 90 243 115 c 1,20,21
 248 128 248 128 256 153 c 0,22,23
 267 201 267 201 267 220 c 0,24,25
 267 252 267 252 257 293 c 0,26,27
 250 324 250 324 242 355 c 0,28,29
 225 446 225 446 162 545 c 0,30,31
 93 654 93 654 4 714 c 1,32,33
 11 792 11 792 5 804 c 1,34,35
 36 804 36 804 45 800 c 0,36,37
 76 784 76 784 120 750 c 0,38,39
 176 707 176 707 202 669 c 0,40,41
 288 542 288 542 320 452 c 0,42,43
 354 358 354 358 354 235 c 0,0,1
EndSplineSet
EndChar
StartChar: asterisk
Encoding: 42 42 13
Width: 735
GlyphClass: 2
Flags: W
Fore
754 356 m 1,0,-1
 751 338 l 1,1,2
 739 329 739 329 679 329 c 0,3,4
 677 329 677 329 658 330 c 128,-1,5
 639 331 639 331 636 331 c 0,6,7
 632 331 632 331 625 328 c 1,8,9
 750 231 750 231 750 211 c 1,10,-1
 716 173 l 2,11,12
 676 130 676 130 658 106 c 0,13,14
 650 96 650 96 644 96 c 0,15,16
 634 96 634 96 519 199 c 1,17,18
 531 73 531 73 531 58 c 0,19,20
 531 30 531 30 501 30 c 0,21,22
 430 30 430 30 372 23 c 1,23,24
 370 26 370 26 365 31 c 1,25,26
 364 36 364 36 350 203 c 1,27,-1
 310 151 l 2,28,29
 270 101 270 101 254 101 c 0,30,31
 241 101 241 101 227.5 116 c 128,-1,32
 214 131 214 131 202 145 c 0,33,34
 157 193 157 193 157 199 c 0,35,36
 157 202 157 202 162 208 c 128,-1,37
 167 214 167 214 168 216 c 0,38,39
 174 233 174 233 205 265 c 128,-1,40
 236 297 236 297 242 309 c 1,41,42
 235 313 235 313 227 311 c 0,43,44
 185 299 185 299 145 299 c 0,45,46
 123 299 123 299 110 300 c 1,47,48
 105 304 105 304 104 304 c 0,49,50
 87 304 87 304 87 332 c 1,51,52
 87 331 87 331 90.5 375.5 c 128,-1,53
 94 420 94 420 94 440 c 1,54,55
 114 450 114 450 150 454 c 2,56,-1
 210 460 l 1,57,58
 186 488 186 488 140 542 c 1,59,60
 140 543 140 543 138.5 547.5 c 128,-1,61
 137 552 137 552 137 556 c 0,62,63
 137 568 137 568 152 593 c 0,64,65
 196 662 196 662 204 662 c 0,66,67
 222 662 222 662 251 639 c 2,68,-1
 279 615 l 1,69,70
 288 583 288 583 309 579 c 1,71,-1
 315 573 l 1,72,73
 315 590 315 590 320 625 c 0,74,75
 325 654 325 654 323 672 c 1,76,77
 329 680 329 680 327 699 c 1,78,79
 330 711 330 711 343 715 c 1,80,81
 349 718 349 718 394.5 728.5 c 128,-1,82
 440 739 440 739 448 739 c 0,83,84
 461 739 461 739 470 706 c 0,85,86
 476 680 476 680 476 662 c 0,87,88
 476 659 476 659 471.5 642.5 c 128,-1,89
 467 626 467 626 467 623 c 0,90,91
 467 604 467 604 476 575 c 1,92,93
 498 595 498 595 546 646 c 0,94,95
 579 682 579 682 586 682 c 256,96,97
 593 682 593 682 644 637 c 128,-1,98
 695 592 695 592 695 587 c 0,99,100
 695 578 695 578 652 533 c 2,101,-1
 604 485 l 1,102,103
 627 481 627 481 643 481 c 0,104,105
 649 481 649 481 676.5 483.5 c 128,-1,106
 704 486 704 486 735 485 c 1,107,108
 737 482 737 482 740 480 c 1,109,110
 754 403 754 403 754 356 c 1,0,-1
EndSplineSet
EndChar
StartChar: plus
Encoding: 43 43 14
Width: 719
GlyphClass: 2
Flags: W
Fore
770 282 m 1,0,-1
 767 264 l 1,1,2
 752 254 752 254 695 254 c 1,3,4
 732 254 732 254 642 253 c 128,-1,5
 552 252 552 252 531 252 c 1,6,7
 527 223 527 223 527 193 c 0,8,9
 527 159 527 159 537.5 89 c 128,-1,10
 548 19 548 19 548 -16 c 0,11,12
 548 -43 548 -43 518 -43 c 0,13,14
 447 -43 447 -43 389 -50 c 1,15,16
 387 -47 387 -47 382 -42 c 1,17,18
 378 -24 378 -24 373 22 c 0,19,20
 368 102 368 102 355 252 c 1,21,22
 332 251 332 251 261 237 c 0,23,24
 201 225 201 225 162 225 c 0,25,26
 141 225 141 225 128 226 c 1,27,28
 123 229 123 229 122 229 c 0,29,30
 105 229 105 229 105 258 c 1,31,32
 105 234 105 234 108.5 293 c 128,-1,33
 112 352 112 352 112 365 c 1,34,35
 140 382 140 382 224 382 c 1,36,37
 242 386 242 386 278 391 c 0,38,39
 300 392 300 392 338 402 c 1,40,41
 338 406 338 406 333 455 c 0,42,43
 329 489 329 489 332 508 c 0,44,45
 332 511 332 511 338 552 c 0,46,47
 342 578 342 578 340 597 c 1,48,49
 346 605 346 605 344 624 c 1,50,51
 347 635 347 635 360 640 c 0,52,53
 444 664 444 664 465 664 c 0,54,55
 477 664 477 664 486 630 c 0,56,57
 493 602 493 602 493 586 c 0,58,59
 493 580 493 580 488.5 567 c 128,-1,60
 484 554 484 554 484 548 c 0,61,62
 484 529 484 529 491 470 c 0,63,64
 498 407 498 407 503 404 c 0,65,66
 504 403 504 403 506 402 c 1,67,-1
 510 407 l 1,68,69
 591 407 591 407 752 411 c 1,70,71
 758 403 758 403 764 350 c 0,72,73
 770 303 770 303 770 282 c 1,0,-1
EndSplineSet
EndChar
StartChar: comma
Encoding: 44 44 15
Width: 444
GlyphClass: 2
Flags: W
Fore
452 12 m 0,0,1
 452 -34 452 -34 418 -91.5 c 128,-1,2
 384 -149 384 -149 343 -169 c 1,3,4
 339 -170 339 -170 329 -177 c 128,-1,5
 319 -184 319 -184 308 -184 c 0,6,7
 290 -184 290 -184 277 -171 c 128,-1,8
 264 -158 264 -158 264 -140 c 0,9,10
 264 -134 264 -134 290.5 -112 c 128,-1,11
 317 -90 317 -90 339 -75 c 0,12,13
 352 -64 352 -64 352 -54 c 1,14,15
 351 -52 351 -52 344 -52 c 2,16,-1
 323 -52 l 2,17,18
 295 -52 295 -52 277 -34.5 c 128,-1,19
 259 -17 259 -17 259 11 c 0,20,21
 259 50 259 50 294 83 c 128,-1,22
 329 116 329 116 368 116 c 0,23,24
 387 116 387 116 424 92 c 1,25,26
 426 87 426 87 434 74 c 0,27,28
 452 47 452 47 452 12 c 0,0,1
EndSplineSet
EndChar
StartChar: period
Encoding: 46 46 16
Width: 433
GlyphClass: 2
Flags: W
Fore
464 33 m 0,0,1
 464 11 464 11 442 -23 c 128,-1,2
 420 -57 420 -57 399 -57 c 0,3,4
 392 -57 392 -57 377.5 -59 c 128,-1,5
 363 -61 363 -61 356 -61 c 0,6,7
 327 -61 327 -61 301 -35.5 c 128,-1,8
 275 -10 275 -10 275 19 c 0,9,10
 275 56 275 56 300 88 c 128,-1,11
 325 120 325 120 361 120 c 0,12,13
 401 120 401 120 431 97 c 0,14,15
 464 71 464 71 464 33 c 0,0,1
EndSplineSet
EndChar
StartChar: slash
Encoding: 47 47 17
Width: 643
GlyphClass: 2
Flags: W
Fore
675 685 m 1,0,1
 665 648 665 648 594 510 c 0,2,3
 565 449 565 449 478 285 c 0,4,5
 423 194 423 194 281 -43 c 0,6,7
 271 -59 271 -59 262 -59 c 0,8,9
 235 -59 235 -59 176 -2 c 0,10,11
 138 35 138 35 111 69 c 2,12,-1
 73 118 l 1,13,14
 73 121 73 121 220 340 c 0,15,16
 309 473 309 473 377 579 c 0,17,18
 387 597 387 597 410 632 c 128,-1,19
 433 667 433 667 453 678 c 0,20,21
 463 684 463 684 533 692 c 0,22,23
 584 698 584 698 576 698 c 1,24,25
 576 697 576 697 583 694 c 1,26,-1
 638 694 l 2,27,28
 676 694 676 694 675 685 c 1,0,1
EndSplineSet
EndChar
StartChar: zero
Encoding: 48 48 18
Width: 572
GlyphClass: 2
Flags: W
Fore
589 342 m 0,0,1
 589 279 589 279 581 249 c 0,2,3
 561 175 561 175 494 112 c 0,4,5
 422 45 422 45 349 45 c 0,6,7
 341 45 341 45 325.5 46.5 c 128,-1,8
 310 48 310 48 302 48 c 0,9,10
 290 48 290 48 233 70 c 0,11,12
 219 75 219 75 185 89 c 0,13,14
 168 98 168 98 142.5 127 c 128,-1,15
 117 156 117 156 106 176 c 0,16,17
 77 230 77 230 77 300 c 0,18,19
 77 398 77 398 111 468 c 0,20,21
 152 552 152 552 235 579 c 0,22,23
 249 583 249 583 299.5 592.5 c 128,-1,24
 350 602 350 602 362 602 c 1,25,26
 366 601 366 601 394 596 c 1,27,28
 407 596 407 596 429 592 c 0,29,30
 589 543 589 543 589 342 c 0,0,1
434 379 m 0,31,32
 434 477 434 477 333 494 c 0,33,34
 323 496 323 496 317 502 c 1,35,36
 282 469 282 469 256 397.5 c 128,-1,37
 230 326 230 326 230 274 c 0,38,39
 230 180 230 180 324 180 c 0,40,41
 339 180 339 180 369 212 c 0,42,43
 395 240 395 240 401 251 c 0,44,45
 423 295 423 295 431 333 c 0,46,47
 434 348 434 348 434 379 c 0,31,32
EndSplineSet
EndChar
StartChar: one
Encoding: 49 49 19
Width: 462
GlyphClass: 2
Flags: W
Fore
495 159 m 0,0,1
 495 140 495 140 417 122 c 0,2,3
 368 110 368 110 271 93 c 0,4,5
 182 77 182 77 177 77 c 0,6,7
 166 77 166 77 161 96 c 2,8,-1
 157 124 l 2,9,10
 155 138 155 138 150 184 c 1,11,12
 159 192 159 192 187 199 c 0,13,14
 207 205 207 205 228 210 c 0,15,16
 242 214 242 214 256 222 c 1,17,18
 261 262 261 262 261 268 c 1,19,20
 261 256 261 256 258 330 c 0,21,22
 258 396 258 396 255 467 c 1,23,24
 235 470 235 470 216 470 c 0,25,26
 180 470 180 470 174 467 c 0,27,28
 172 466 172 466 169 466 c 1,29,30
 165 468 165 468 146 478 c 1,31,32
 138 516 138 516 134 549 c 1,33,34
 154 559 154 559 165 560 c 0,35,36
 205 562 205 562 238 591 c 128,-1,37
 271 620 271 620 285 660 c 1,38,39
 291 664 291 664 301 668 c 1,40,41
 334 673 334 673 376 678 c 1,42,43
 376 682 376 682 381 682 c 2,44,-1
 411 682 l 1,45,46
 418 653 418 653 418 651 c 1,47,48
 418 685 418 685 412 605 c 128,-1,49
 406 525 406 525 405 501 c 0,50,51
 400 282 400 282 400 281 c 2,52,-1
 400 259 l 1,53,54
 427 259 427 259 478 251 c 1,55,56
 482 245 482 245 486 235 c 1,57,58
 487 225 487 225 491 197 c 0,59,60
 495 173 495 173 495 159 c 0,0,1
EndSplineSet
EndChar
StartChar: two
Encoding: 50 50 20
Width: 570
GlyphClass: 2
Flags: W
Fore
611 283 m 0,0,1
 611 280 611 280 607 270 c 128,-1,2
 603 260 603 260 603 255 c 0,3,4
 601 229 601 229 585 171 c 0,5,6
 576 149 576 149 542 125.5 c 128,-1,7
 508 102 508 102 484 102 c 0,8,9
 481 102 481 102 474 101 c 128,-1,10
 467 100 467 100 463 100 c 128,-1,11
 459 100 459 100 450 99 c 128,-1,12
 441 98 441 98 437 98 c 2,13,-1
 406 98 l 2,14,15
 381 98 381 98 310.5 125 c 128,-1,16
 240 152 240 152 210 152 c 0,17,18
 164 152 164 152 140 93 c 1,19,20
 127 100 127 100 59 139 c 1,21,22
 63 176 63 176 76 206 c 0,23,24
 77 208 77 208 127 290 c 0,25,26
 150 327 150 327 184 346 c 0,27,28
 204 357 204 357 246 368 c 128,-1,29
 288 379 288 379 307 389 c 0,30,31
 343 408 343 408 349 413 c 0,32,33
 364 426 364 426 364 449 c 0,34,35
 364 485 364 485 334.5 509.5 c 128,-1,36
 305 534 305 534 269 534 c 0,37,38
 217 534 217 534 200 517 c 1,39,40
 201 515 201 515 206 512 c 1,41,42
 228 511 228 511 246 483 c 128,-1,43
 264 455 264 455 264 432 c 0,44,45
 264 396 264 396 218 374 c 0,46,47
 182 357 182 357 151 357 c 0,48,49
 110 357 110 357 82.5 380 c 128,-1,50
 55 403 55 403 55 444 c 0,51,52
 55 472 55 472 71 524 c 0,53,54
 76 540 76 540 92 558 c 0,55,56
 153 625 153 625 303 644 c 0,57,58
 304 644 304 644 308.5 646 c 128,-1,59
 313 648 313 648 316 648 c 0,60,61
 401 648 401 648 474 601 c 0,62,63
 557 547 557 547 557 466 c 0,64,65
 557 400 557 400 505 355 c 2,66,67
 499 345 499 345 479 326 c 0,68,69
 463 314 463 314 426 296 c 1,70,71
 400 288 400 288 313 279 c 1,72,73
 310 278 310 278 254 260 c 1,74,75
 254 259 254 259 255 257 c 1,76,77
 270 262 270 262 335 249 c 0,78,79
 341 248 341 248 365 240 c 0,80,81
 377 236 377 236 410 236 c 0,82,83
 471 236 471 236 517 287 c 0,84,85
 532 304 532 304 536 304 c 0,86,87
 547 304 547 304 573 299 c 128,-1,88
 599 294 599 294 609 293 c 1,89,90
 609 292 609 292 610 288.5 c 128,-1,91
 611 285 611 285 611 283 c 0,0,1
EndSplineSet
EndChar
StartChar: three
Encoding: 51 51 21
Width: 597
GlyphClass: 2
Flags: W
Fore
636 259 m 0,0,1
 636 192 636 192 575 128 c 0,2,3
 537 88 537 88 502 69 c 0,4,5
 494 64 494 64 440 51 c 0,6,7
 380 36 380 36 387 36 c 1,8,-1
 310 36 l 2,9,10
 300 36 300 36 255 51 c 0,11,12
 169 80 169 80 129 115 c 0,13,14
 73 162 73 162 73 239 c 0,15,16
 73 341 73 341 212 341 c 0,17,18
 235 341 235 341 258 326 c 0,19,20
 291 304 291 304 291 251 c 0,21,22
 291 228 291 228 282 214 c 0,23,24
 280 210 280 210 257 183 c 1,25,26
 271 176 271 176 297 166 c 1,27,28
 311 167 311 167 342 165 c 0,29,30
 343 165 343 165 346.5 163 c 128,-1,31
 350 161 350 161 353 161 c 256,32,33
 356 161 356 161 359.5 163 c 128,-1,34
 363 165 363 165 365 165 c 0,35,36
 439 175 439 175 439 254 c 0,37,38
 439 299 439 299 407.5 330 c 128,-1,39
 376 361 376 361 331 361 c 0,40,41
 329 361 329 361 326.5 360 c 128,-1,42
 324 359 324 359 322 359 c 0,43,44
 305 359 305 359 305 374 c 0,45,46
 305 378 305 378 306 386.5 c 128,-1,47
 307 395 307 395 307 399 c 2,48,-1
 307 445 l 1,49,50
 309 446 309 446 317 451 c 1,51,52
 366 455 366 455 388 469 c 0,53,54
 416 488 416 488 416 532 c 0,55,56
 416 572 416 572 328 604 c 1,57,-1
 308 604 l 2,58,59
 256 604 256 604 223 581 c 1,60,61
 231 580 231 580 244 576 c 1,62,63
 260 568 260 568 272 554 c 0,64,65
 277 548 277 548 285 520 c 128,-1,66
 293 492 293 492 293 483 c 2,67,-1
 293 477 l 1,68,69
 292 473 292 473 292 471 c 0,70,71
 292 463 292 463 279.5 447.5 c 128,-1,72
 267 432 267 432 258 428 c 0,73,74
 216 407 216 407 189 407 c 0,75,76
 170 407 170 407 148.5 421 c 128,-1,77
 127 435 127 435 117 453 c 0,78,79
 98 487 98 487 98 539 c 0,80,81
 98 621 98 621 168 665 c 0,82,83
 227 702 227 702 314 702 c 0,84,85
 461 702 461 702 514 667 c 0,86,87
 598 611 598 611 598 545 c 0,88,89
 598 510 598 510 577.5 462 c 128,-1,90
 557 414 557 414 532 392 c 1,91,92
 587 372 587 372 610 345 c 0,93,94
 636 314 636 314 636 259 c 0,0,1
EndSplineSet
EndChar
StartChar: four
Encoding: 52 52 22
Width: 590
GlyphClass: 2
Flags: W
Fore
632 310 m 2,0,-1
 631 293 l 2,1,2
 629 276 629 276 629 269 c 1,3,4
 597 264 597 264 541 249 c 1,5,6
 550 218 550 218 558.5 150.5 c 128,-1,7
 567 83 567 83 577 50 c 1,8,9
 571 49 571 49 525 51 c 0,10,11
 495 52 495 52 483 52 c 0,12,13
 421 58 421 58 335 64 c 1,14,15
 334 67 334 67 328 69 c 1,16,17
 322 100 322 100 317 192 c 1,18,-1
 314 195 l 1,19,20
 221 199 221 199 69 212 c 1,21,22
 61 273 61 273 61 291 c 0,23,24
 61 319 61 319 120 410 c 0,25,26
 127 421 127 421 179 497 c 0,27,28
 190 519 190 519 223 563 c 0,29,30
 271 627 271 627 281 643 c 0,31,32
 296 667 296 667 297 669 c 1,33,34
 305 679 305 679 322 689 c 0,35,36
 329 693 329 693 362 693 c 0,37,38
 367 693 367 693 376 692 c 128,-1,39
 385 691 385 691 390 691 c 1,40,41
 372 691 372 691 412 696.5 c 128,-1,42
 452 702 452 702 466 702 c 0,43,44
 499 702 499 702 505 687 c 1,45,46
 505 678 505 678 506.5 637 c 128,-1,47
 508 596 508 596 511 515 c 0,48,49
 514 439 514 439 524 397 c 1,50,51
 535 398 535 398 567 403 c 0,52,53
 593 407 593 407 609 407 c 256,54,55
 625 407 625 407 626 397 c 0,56,57
 632 354 632 354 632 310 c 2,0,-1
350 300 m 1,58,-1
 350 363 l 2,59,60
 350 403 350 403 335 495 c 1,61,-1
 266 410 l 2,62,63
 224 359 224 359 207 326 c 1,64,65
 256 316 256 316 350 300 c 1,58,-1
EndSplineSet
EndChar
StartChar: five
Encoding: 53 53 23
Width: 553
GlyphClass: 2
Flags: W
Fore
593 267 m 0,0,1
 593 218 593 218 567 160 c 0,2,3
 555 133 555 133 532 103 c 0,4,5
 503 65 503 65 472 47 c 2,6,7
 461 37 461 37 424 19 c 1,8,9
 375 5 375 5 323 5 c 2,10,-1
 293 5 l 2,11,12
 234 5 234 5 164 36 c 0,13,14
 70 78 70 78 70 143 c 0,15,16
 70 182 70 182 90 222 c 0,17,18
 112 269 112 269 146 276 c 0,19,20
 173 282 173 282 214 282 c 0,21,22
 291 282 291 282 291 206 c 0,23,24
 291 158 291 158 230 130 c 1,25,26
 247 116 247 116 292 116 c 2,27,-1
 303 115 l 2,28,29
 314 114 314 114 323 114 c 0,30,31
 334 114 334 114 342 116 c 0,32,33
 387 133 387 133 407 152 c 0,34,35
 432 177 432 177 432 220 c 0,36,37
 432 267 432 267 394 314.5 c 128,-1,38
 356 362 356 362 310 364 c 0,39,40
 309 364 309 364 306 366 c 128,-1,41
 303 368 303 368 300 368 c 0,42,43
 254 368 254 368 225 351 c 0,44,45
 211 343 211 343 191 319 c 0,46,47
 177 302 177 302 165 302 c 0,48,49
 159 302 159 302 124 324 c 0,50,51
 107 334 107 334 86 348 c 1,52,53
 91 405 91 405 103 504 c 0,54,55
 111 541 111 541 124 617 c 1,56,57
 159 625 159 625 257 625 c 1,58,59
 232 625 232 625 464 617 c 1,60,61
 468 615 468 615 482 606 c 1,62,-1
 482 512 l 1,63,64
 456 504 456 504 428 506 c 0,65,66
 368 510 368 510 215 495 c 1,67,68
 211 488 211 488 211 484 c 1,69,70
 212 480 212 480 215 459 c 0,71,72
 218 444 218 444 212 438 c 1,73,-1
 224 438 l 1,74,75
 244 446 244 446 260 449 c 0,76,77
 331 464 331 464 382 464 c 0,78,79
 426 464 426 464 490 433 c 0,80,81
 559 400 559 400 572 363 c 0,82,83
 593 306 593 306 593 267 c 0,0,1
EndSplineSet
EndChar
StartChar: six
Encoding: 54 54 24
Width: 577
GlyphClass: 2
Flags: W
Fore
618 272 m 0,0,1
 618 138 618 138 482 78 c 0,2,3
 425 53 425 53 381 51 c 0,4,5
 376 51 376 51 366 48 c 128,-1,6
 356 45 356 45 352 45 c 0,7,8
 338 45 338 45 296 51 c 1,9,10
 282 56 282 56 246 67 c 0,11,12
 147 94 147 94 101 190 c 0,13,14
 66 263 66 263 66 357 c 0,15,16
 66 359 66 359 68 364.5 c 128,-1,17
 70 370 70 370 70 372 c 0,18,19
 71 420 71 420 100 481 c 0,20,21
 113 509 113 509 155 580 c 0,22,23
 176 616 176 616 226 647 c 0,24,25
 272 675 272 675 317 685 c 0,26,27
 328 688 328 688 351 693 c 0,28,29
 361 695 361 695 407 695 c 0,30,31
 463 695 463 695 510 658 c 0,32,33
 561 619 561 619 561 565 c 0,34,35
 561 505 561 505 509 481 c 0,36,37
 477 466 477 466 429 466 c 0,38,39
 414 466 414 466 386 478 c 128,-1,40
 358 490 358 490 353 501 c 128,-1,41
 348 512 348 512 348 527 c 0,42,43
 348 534 348 534 352.5 549 c 128,-1,44
 357 564 357 564 356 573 c 1,45,46
 285 544 285 544 243 429 c 1,47,48
 250 425 250 425 285 438 c 1,49,50
 340 448 340 448 387 448 c 0,51,52
 391 448 391 448 401.5 445.5 c 128,-1,53
 412 443 412 443 416 443 c 2,54,-1
 451 443 l 2,55,56
 472 443 472 443 508 426 c 0,57,58
 618 374 618 374 618 272 c 0,0,1
486 247 m 0,59,60
 486 318 486 318 388 353 c 0,61,62
 373 358 373 358 369 359 c 1,63,64
 350 359 350 359 327 354 c 0,65,66
 297 347 297 347 290.5 337 c 128,-1,67
 284 327 284 327 284 295 c 0,68,69
 284 148 284 148 394 148 c 0,70,71
 486 148 486 148 486 247 c 0,59,60
EndSplineSet
EndChar
StartChar: seven
Encoding: 55 55 25
Width: 568
GlyphClass: 2
Flags: W
Fore
598 507 m 0,0,1
 598 504 598 504 591.5 494.5 c 128,-1,2
 585 485 585 485 584 482 c 0,3,4
 553 413 553 413 501 303 c 0,5,6
 482 269 482 269 435 178 c 0,7,8
 407 106 407 106 349 -36 c 1,9,10
 333 -29 333 -29 306 -13 c 1,11,12
 292 -1 292 -1 251 27 c 0,13,14
 143 94 143 94 143 109 c 0,15,16
 143 119 143 119 296 288 c 0,17,18
 325 324 325 324 401 417 c 0,19,20
 446 471 446 471 448 482 c 1,21,22
 413 474 413 474 342 464 c 0,23,24
 303 463 303 463 197 455 c 1,25,26
 190 414 190 414 168 330 c 1,27,-1
 160 330 l 2,28,29
 154 330 154 330 122.5 346.5 c 128,-1,30
 91 363 91 363 84 369 c 1,31,32
 89 414 89 414 107 515 c 0,33,34
 112 545 112 545 123 586 c 0,35,36
 127 598 127 598 132.5 610.5 c 128,-1,37
 138 623 138 623 147 626.5 c 128,-1,38
 156 630 156 630 173 631 c 0,39,40
 189 632 189 632 201 631 c 0,41,42
 218 629 218 629 217 629 c 1,43,44
 231 629 231 629 240 608 c 0,45,46
 247 592 247 592 254 577 c 1,47,48
 408 602 408 602 506 602 c 0,49,50
 574 602 574 602 579 590 c 0,51,52
 598 548 598 548 598 507 c 0,0,1
EndSplineSet
EndChar
StartChar: eight
Encoding: 56 56 26
Width: 592
GlyphClass: 2
Flags: W
Fore
634 239 m 0,0,1
 634 160 634 160 520 92 c 0,2,3
 422 34 422 34 356 34 c 0,4,5
 353 34 353 34 327 33 c 2,6,-1
 298 32 l 2,7,8
 293 32 293 32 287 36 c 1,9,10
 217 35 217 35 139 73 c 0,11,12
 108 88 108 88 76 160 c 0,13,14
 66 181 66 181 66 206 c 0,15,16
 66 312 66 312 132 367 c 1,17,18
 109 382 109 382 89.5 423 c 128,-1,19
 70 464 70 464 70 493 c 0,20,21
 70 622 70 622 198 682 c 0,22,23
 289 725 289 725 412 725 c 0,24,25
 456 725 456 725 511 688 c 0,26,27
 575 645 575 645 575 592 c 0,28,29
 575 559 575 559 550.5 503.5 c 128,-1,30
 526 448 526 448 502 422 c 1,31,32
 507 417 507 417 555 387 c 0,33,34
 590 365 590 365 601 342 c 0,35,36
 634 272 634 272 634 239 c 0,0,1
454 545 m 0,37,38
 454 568 454 568 424.5 586 c 128,-1,39
 395 604 395 604 370 604 c 0,40,41
 301 604 301 604 265 569 c 0,42,43
 245 549 245 549 245 533 c 0,44,45
 245 504 245 504 316 474 c 0,46,47
 331 467 331 467 401 441 c 1,48,49
 454 518 454 518 454 545 c 0,37,38
448 203 m 0,50,51
 448 237 448 237 351 269 c 0,52,53
 330 277 330 277 274 298 c 1,54,55
 257 277 257 277 257 212 c 0,56,57
 257 179 257 179 267 165 c 0,58,59
 280 148 280 148 312 148 c 0,60,61
 319 148 319 148 333.5 146.5 c 128,-1,62
 348 145 348 145 355 145 c 0,63,64
 372 145 372 145 407 162 c 0,65,66
 448 182 448 182 448 203 c 0,50,51
EndSplineSet
EndChar
StartChar: nine
Encoding: 57 57 27
Width: 641
GlyphClass: 2
Flags: W
Fore
652 392 m 0,0,1
 652 291 652 291 595.5 201.5 c 128,-1,2
 539 112 539 112 447 70 c 0,3,4
 379 39 379 39 292 39 c 0,5,6
 176 39 176 39 111 116 c 0,7,8
 93 137 93 137 93 161 c 0,9,10
 93 210 93 210 125 243.5 c 128,-1,11
 157 277 157 277 206 277 c 0,12,13
 236 277 236 277 263.5 253 c 128,-1,14
 291 229 291 229 291 199 c 0,15,16
 291 190 291 190 275 161 c 1,17,18
 286 159 286 159 326 159 c 0,19,20
 358 159 358 159 392.5 191 c 128,-1,21
 427 223 427 223 427 254 c 0,22,23
 427 278 427 278 412 314 c 1,24,25
 354 289 354 289 336.5 285.5 c 128,-1,26
 319 282 319 282 267 282 c 0,27,28
 174 282 174 282 128 317 c 0,29,30
 77 356 77 356 77 447 c 0,31,32
 77 569 77 569 157 636 c 0,33,34
 232 700 232 700 356 700 c 0,35,36
 375 700 375 700 398 693 c 0,37,38
 429 685 429 685 438 683 c 0,39,40
 514 671 514 671 584 584 c 0,41,42
 622 537 622 537 637 495 c 128,-1,43
 652 453 652 453 652 392 c 0,0,1
454 482 m 0,44,45
 454 535 454 535 426.5 568.5 c 128,-1,46
 399 602 399 602 347 602 c 0,47,48
 306 602 306 602 276 576 c 128,-1,49
 246 550 246 550 240 510 c 0,50,51
 239 506 239 506 235.5 494 c 128,-1,52
 232 482 232 482 232 478 c 0,53,54
 232 460 232 460 261 432 c 0,55,56
 286 408 286 408 298 403 c 0,57,58
 329 391 329 391 360 391 c 0,59,60
 401 391 401 391 427.5 416 c 128,-1,61
 454 441 454 441 454 482 c 0,44,45
EndSplineSet
EndChar
StartChar: colon
Encoding: 58 58 28
Width: 440
GlyphClass: 2
Flags: W
Fore
468 592 m 0,0,1
 468 570 468 570 446 536 c 128,-1,2
 424 502 424 502 403 502 c 0,3,4
 396 502 396 502 381.5 500 c 128,-1,5
 367 498 367 498 360 498 c 0,6,7
 332 498 332 498 306 524 c 128,-1,8
 280 550 280 550 280 578 c 0,9,10
 280 615 280 615 305 647 c 128,-1,11
 330 679 330 679 366 679 c 0,12,13
 406 679 406 679 437 655 c 128,-1,14
 468 631 468 631 468 592 c 0,0,1
468 278 m 0,15,16
 468 256 468 256 447 224 c 0,17,18
 424 189 424 189 403 189 c 0,19,20
 396 189 396 189 381.5 186.5 c 128,-1,21
 367 184 367 184 360 184 c 0,22,23
 332 184 332 184 306 210.5 c 128,-1,24
 280 237 280 237 280 265 c 0,25,26
 280 301 280 301 305.5 333.5 c 128,-1,27
 331 366 331 366 366 366 c 0,28,29
 405 366 405 366 436.5 341 c 128,-1,30
 468 316 468 316 468 278 c 0,15,16
EndSplineSet
EndChar
StartChar: semicolon
Encoding: 59 59 29
Width: 443
GlyphClass: 2
Flags: W
Fore
468 592 m 0,0,1
 468 570 468 570 446 536 c 128,-1,2
 424 502 424 502 403 502 c 0,3,4
 396 502 396 502 381.5 500 c 128,-1,5
 367 498 367 498 360 498 c 0,6,7
 332 498 332 498 306 524 c 128,-1,8
 280 550 280 550 280 578 c 0,9,10
 280 615 280 615 305 647 c 128,-1,11
 330 679 330 679 366 679 c 0,12,13
 406 679 406 679 437 655 c 128,-1,14
 468 631 468 631 468 592 c 0,0,1
470 281 m 0,15,16
 470 232 470 232 437 176.5 c 128,-1,17
 404 121 404 121 361 99 c 0,18,19
 357 97 357 97 343 88 c 0,20,21
 337 84 337 84 326 84 c 0,22,23
 308 84 308 84 295 97 c 128,-1,24
 282 110 282 110 282 128 c 0,25,26
 282 135 282 135 306 154 c 0,27,28
 322 167 322 167 339 181 c 2,29,-1
 357 193 l 2,30,31
 370 204 370 204 370 214 c 1,32,33
 369 216 369 216 362 216 c 2,34,-1
 341 216 l 2,35,36
 313 216 313 216 295 233.5 c 128,-1,37
 277 251 277 251 277 279 c 0,38,39
 277 318 277 318 312 351 c 128,-1,40
 347 384 347 384 386 384 c 0,41,42
 406 384 406 384 442 360 c 1,43,44
 451 345 451 345 465 320 c 1,45,46
 470 301 470 301 470 281 c 0,15,16
EndSplineSet
EndChar
StartChar: less
Encoding: 60 60 30
Width: 540
GlyphClass: 2
Flags: W
Fore
579 151 m 1,0,1
 581 140 581 140 559 89 c 0,2,3
 535 33 535 33 533 15 c 0,4,5
 533 12 533 12 528 12 c 0,6,7
 521 12 521 12 404 84 c 2,8,-1
 244 182 l 2,9,10
 197 209 197 209 106 263 c 0,11,12
 98 269 98 269 80 286.5 c 128,-1,13
 62 304 62 304 62 309 c 1,14,15
 62 305 62 305 185 460 c 0,16,17
 200 481 200 481 229 519 c 0,18,19
 242 535 242 535 325 631 c 0,20,21
 362 674 362 674 380 675 c 1,22,23
 390 662 390 662 406.5 652.5 c 128,-1,24
 423 643 423 643 441 634 c 0,25,26
 476 614 476 614 476 606 c 0,27,28
 476 591 476 591 421 526 c 0,29,30
 400 503 400 503 386 482 c 0,31,32
 374 466 374 466 366 452 c 0,33,34
 351 427 351 427 334 407 c 0,35,36
 276 337 276 337 276 338 c 1,37,38
 276 327 276 327 321 305 c 0,39,40
 355 289 355 289 388 273 c 0,41,42
 418 255 418 255 478 218 c 0,43,44
 511 196 511 196 579 151 c 1,0,1
EndSplineSet
EndChar
StartChar: equal
Encoding: 61 61 31
Width: 696
GlyphClass: 2
Flags: W
Fore
695 411 m 0,0,1
 695 393 695 393 686 393 c 0,2,3
 684 393 684 393 681 394 c 128,-1,4
 678 395 678 395 676 395 c 0,5,6
 673 395 673 395 669 389.5 c 128,-1,7
 665 384 665 384 662 384 c 0,8,9
 652 384 652 384 511 373 c 0,10,11
 506 373 506 373 496.5 374 c 128,-1,12
 487 375 487 375 483 375 c 0,13,14
 441 375 441 375 355 362.5 c 128,-1,15
 269 350 269 350 226 350 c 0,16,17
 192 350 192 350 169 355 c 0,18,19
 164 356 164 356 164 367 c 0,20,21
 164 385 164 385 161.5 421 c 128,-1,22
 159 457 159 457 159 451 c 1,23,-1
 159 500 l 1,24,25
 305 512 305 512 481 540 c 0,26,27
 557 552 557 552 574 552 c 0,28,29
 638 552 638 552 669 547 c 0,30,31
 682 545 682 545 683 531 c 0,32,33
 684 498 684 498 689 438 c 0,34,35
 689 434 689 434 692 424.5 c 128,-1,36
 695 415 695 415 695 411 c 0,0,1
723 184 m 0,37,38
 723 166 723 166 714 166 c 0,39,40
 712 166 712 166 708.5 167 c 128,-1,41
 705 168 705 168 703 168 c 0,42,43
 700 168 700 168 696.5 162.5 c 128,-1,44
 693 157 693 157 690 157 c 0,45,46
 681 157 681 157 539 145 c 0,47,48
 534 145 534 145 524 146.5 c 128,-1,49
 514 148 514 148 510 148 c 0,50,51
 468 148 468 148 382 135.5 c 128,-1,52
 296 123 296 123 253 123 c 0,53,54
 219 123 219 123 196 128 c 0,55,56
 191 129 191 129 191 140 c 0,57,58
 191 159 191 159 189 193 c 128,-1,59
 187 227 187 227 186 224 c 1,60,-1
 186 272 l 1,61,62
 335 286 335 286 508 313 c 0,63,64
 584 325 584 325 601 325 c 0,65,66
 665 325 665 325 697 320 c 0,67,68
 709 317 709 317 710 303 c 0,69,70
 711 283 711 283 716 210 c 1,71,72
 723 189 723 189 723 184 c 0,37,38
EndSplineSet
EndChar
StartChar: greater
Encoding: 62 62 32
Width: 540
GlyphClass: 2
Flags: W
Fore
579 309 m 0,0,1
 579 303 579 303 558 283 c 0,2,3
 540 267 540 267 534 263 c 0,4,5
 396 178 396 178 115 12 c 1,6,-1
 107 12 l 1,7,8
 104 38 104 38 81 92 c 0,9,10
 60 140 60 140 62 151 c 1,11,12
 156 217 156 217 252 273 c 0,13,14
 283 288 283 288 315 303 c 0,15,16
 365 327 365 327 365 338 c 1,17,18
 329 381 329 381 271 459 c 0,19,20
 261 474 261 474 207 540 c 0,21,22
 164 594 164 594 164 606 c 0,23,24
 164 613 164 613 205 636 c 0,25,26
 250 663 250 663 261 675 c 1,27,28
 278 675 278 675 316 631 c 0,29,30
 347 594 347 594 411 519 c 0,31,32
 426 499 426 499 455 460 c 0,33,34
 469 442 469 442 532 368 c 0,35,36
 579 313 579 313 579 309 c 0,0,1
EndSplineSet
EndChar
StartChar: question
Encoding: 63 63 33
Width: 578
GlyphClass: 2
Flags: W
Fore
617 587 m 0,0,1
 617 538 617 538 582 481 c 0,2,3
 566 455 566 455 515 403 c 2,4,-1
 440 327 l 2,5,6
 430 316 430 316 415 287 c 0,7,8
 395 250 395 250 394 228 c 0,9,10
 393 212 393 212 396 183 c 0,11,12
 399 151 399 151 399 138 c 1,13,14
 398 135 398 135 389 120 c 1,15,16
 353 120 353 120 280 124 c 2,17,-1
 208 127 l 2,18,19
 202 127 202 127 196 134 c 128,-1,20
 190 141 190 141 190 147 c 1,21,22
 190 130 190 130 196.5 166.5 c 128,-1,23
 203 203 203 203 204 218 c 1,24,-1
 200 223 l 2,25,26
 197 228 197 228 197 233 c 0,27,28
 197 267 197 267 288 342 c 0,29,30
 413 445 413 445 413 517 c 0,31,32
 413 576 413 576 376 613 c 128,-1,33
 339 650 339 650 280 650 c 0,34,35
 246 650 246 650 216 627 c 128,-1,36
 186 604 186 604 170 571 c 1,37,-1
 170 559 l 1,38,39
 178 557 178 557 190 560 c 0,40,41
 206 563 206 563 210 563 c 0,42,43
 250 563 250 563 273 516 c 0,44,45
 290 482 290 482 290 453 c 0,46,47
 290 394 290 394 236 352 c 0,48,49
 186 313 186 313 125 313 c 0,50,51
 59 313 59 313 25 388 c 0,52,53
 0 443 0 443 0 505 c 0,54,55
 0 632 0 632 59 699 c 0,56,57
 115 763 115 763 242 791 c 0,58,59
 296 803 296 803 347 803 c 0,60,61
 427 803 427 803 516 742 c 0,62,63
 617 673 617 673 617 587 c 0,0,1
417 -53 m 0,64,65
 417 -150 417 -150 349 -178 c 0,66,67
 303 -197 303 -197 288 -197 c 0,68,69
 244 -197 244 -197 195 -161 c 0,70,71
 143 -122 143 -122 143 -80 c 0,72,73
 143 -20 143 -20 192 25 c 128,-1,74
 241 70 241 70 302 70 c 1,75,76
 296 70 296 70 339 57 c 0,77,78
 417 34 417 34 417 -53 c 0,64,65
EndSplineSet
EndChar
StartChar: at
Encoding: 64 64 34
Width: 709
GlyphClass: 2
Flags: W
Fore
734 470 m 0,0,1
 734 440 734 440 723 393 c 0,2,3
 718 367 718 367 712 341 c 0,4,5
 706 285 706 285 670.5 233.5 c 128,-1,6
 635 182 635 182 596 170 c 0,7,8
 579 165 579 165 557 165 c 0,9,10
 554 165 554 165 555 166 c 1,11,12
 556 168 556 168 555 168 c 0,13,14
 506 167 506 167 477 218 c 1,15,16
 475 230 475 230 468 254 c 1,17,-1
 464 254 l 1,18,19
 417 194 417 194 370 194 c 0,20,21
 368 194 368 194 365.5 193 c 128,-1,22
 363 192 363 192 360 192 c 0,23,24
 323 192 323 192 295 235 c 0,25,26
 271 271 271 271 271 300 c 0,27,28
 271 360 271 360 329 433 c 0,29,30
 392 511 392 511 455 511 c 0,31,32
 527 511 527 511 527 433 c 0,33,34
 527 423 527 423 526 403 c 128,-1,35
 525 383 525 383 525 374 c 0,36,37
 525 347 525 347 532 333 c 1,38,39
 536 321 536 321 553 310 c 128,-1,40
 570 299 570 299 581 299 c 0,41,42
 617 299 617 299 639 363 c 0,43,44
 654 409 654 409 654 442 c 0,45,46
 654 469 654 469 637 513 c 0,47,48
 619 561 619 561 598 581 c 1,49,50
 594 582 594 582 586 585 c 1,51,52
 554 610 554 610 527 615 c 0,53,54
 490 623 490 623 457 623 c 0,55,56
 426 623 426 623 339 592 c 0,57,58
 336 591 336 591 294 564 c 0,59,60
 214 514 214 514 171 439.5 c 128,-1,61
 128 365 128 365 128 289 c 0,62,63
 128 223 128 223 154 160 c 0,64,65
 186 84 186 84 247 43.5 c 128,-1,66
 308 3 308 3 315 3 c 1,67,-1
 368 22 l 2,68,69
 401 34 401 34 461 58 c 0,70,71
 466 60 466 60 533 99 c 0,72,73
 579 126 579 126 601 126 c 0,74,75
 629 126 629 126 629 92 c 0,76,77
 629 78 629 78 583 27 c 128,-1,78
 537 -24 537 -24 519 -32 c 2,79,80
 506 -41 506 -41 480 -56 c 0,81,82
 471 -60 471 -60 426 -75 c 0,83,84
 371 -93 371 -93 357 -93 c 0,85,86
 354 -93 354 -93 321.5 -94 c 128,-1,87
 289 -95 289 -95 286 -95 c 256,88,89
 283 -95 283 -95 274 -92 c 0,90,91
 262 -88 262 -88 258 -87 c 0,92,93
 211 -77 211 -77 160 -30 c 0,94,95
 113 14 113 14 87.5 65 c 128,-1,96
 62 116 62 116 53 142 c 0,97,98
 41 181 41 181 41 229 c 0,99,100
 41 352 41 352 74 424 c 1,101,102
 76 437 76 437 85 463 c 1,103,104
 110 510 110 510 142 554 c 0,105,106
 271 728 271 728 491 728 c 0,107,108
 516 728 516 728 563 713 c 0,109,110
 607 700 607 700 629 688 c 0,111,112
 679 659 679 659 689 631 c 1,113,114
 694 625 694 625 701 615 c 1,115,116
 734 549 734 549 734 470 c 0,0,1
444 363 m 0,117,118
 444 397 444 397 415 397 c 0,119,120
 395 397 395 397 375 352 c 0,121,122
 358 315 358 315 358 301 c 0,123,124
 358 294 358 294 369.5 288.5 c 128,-1,125
 381 283 381 283 389 283 c 0,126,127
 404 283 404 283 425 317 c 0,128,129
 444 348 444 348 444 363 c 0,117,118
EndSplineSet
EndChar
StartChar: A
Encoding: 65 65 35
Width: 685
GlyphClass: 2
Flags: W
Fore
725 94 m 1,0,1
 702 87 702 87 655 84 c 0,2,3
 598 81 598 81 576 77 c 0,4,5
 527 66 527 66 434 49 c 1,6,7
 418 96 418 96 413 164 c 1,8,9
 424 173 424 173 470 196 c 1,10,11
 464 217 464 217 454.5 238.5 c 128,-1,12
 445 260 445 260 441 260 c 0,13,14
 394 260 394 260 325 246 c 0,15,16
 310 243 310 243 295 241 c 0,17,18
 277 236 277 236 260 225 c 1,19,-1
 260 180 l 1,20,21
 282 176 282 176 304 173 c 0,22,23
 337 167 337 167 337 154 c 0,24,25
 337 153 337 153 329 122 c 0,26,27
 326 106 326 106 324 89 c 0,28,29
 320 68 320 68 311 60 c 1,30,31
 221 70 221 70 181 70 c 0,32,33
 86 68 86 68 23 90 c 1,34,35
 22 96 22 96 23 107 c 1,36,37
 32 131 32 131 40 155 c 0,38,39
 51 184 51 184 62 187 c 1,40,41
 84 189 84 189 126 197 c 1,42,43
 134 200 134 200 140.5 225 c 128,-1,44
 147 250 147 250 160 298 c 0,45,46
 172 342 172 342 194 430 c 0,47,48
 207 468 207 468 229 542 c 0,49,50
 256 638 256 638 270 699 c 0,51,52
 274 721 274 721 289 721 c 0,53,54
 308 721 308 721 473 711 c 0,55,56
 482 710 482 710 485 702 c 0,57,58
 508 639 508 639 551 510 c 2,59,-1
 591 368 l 2,60,61
 619 275 619 275 654 215 c 1,62,63
 670 216 670 216 715 209 c 0,64,65
 724 207 724 207 721 179 c 0,66,67
 720 171 720 171 722 143 c 0,68,69
 725 103 725 103 725 94 c 1,0,1
469 360 m 1,70,71
 456 410 456 410 426 468 c 0,72,73
 400 517 400 517 375 566 c 1,74,75
 355 487 355 487 349 386 c 1,76,77
 370 376 370 376 469 360 c 1,70,71
EndSplineSet
EndChar
StartChar: B
Encoding: 66 66 36
Width: 615
GlyphClass: 2
Flags: W
Fore
659 254 m 0,0,1
 659 211 659 211 626 172 c 0,2,3
 595 137 595 137 552 123 c 0,4,5
 496 105 496 105 463 107 c 1,6,-1
 458 102 l 1,7,8
 313 89 313 89 220 89 c 0,9,10
 176 89 176 89 73 98 c 1,11,12
 71 102 71 102 70 181 c 0,13,14
 70 184 70 184 71.5 190 c 128,-1,15
 73 196 73 196 73 199 c 1,16,17
 99 212 99 212 152 240 c 1,18,19
 148 270 148 270 136 349 c 0,20,21
 121 438 121 438 101 578 c 1,22,23
 97 584 97 584 86 584 c 0,24,25
 82 584 82 584 73 583 c 128,-1,26
 64 582 64 582 60 582 c 0,27,28
 40 582 40 582 23 594 c 1,29,-1
 23 704 l 1,30,31
 53 714 53 714 69 714 c 2,32,-1
 153 716 l 2,33,34
 156 716 156 716 162.5 713.5 c 128,-1,35
 169 711 169 711 172 711 c 0,36,37
 177 711 177 711 195.5 716 c 128,-1,38
 214 721 214 721 222 722 c 128,-1,39
 230 723 230 723 267 723 c 0,40,41
 355 723 355 723 446 685 c 0,42,43
 561 637 561 637 562 558 c 0,44,45
 562 556 562 556 564 552 c 128,-1,46
 566 548 566 548 566 545 c 0,47,48
 566 486 566 486 536 439 c 1,49,50
 536 437 536 437 540 434 c 1,51,52
 659 394 659 394 659 254 c 0,0,1
427 540 m 0,53,54
 427 570 427 570 384 595 c 0,55,56
 347 616 347 616 320 616 c 0,57,58
 292 616 292 616 291 606 c 0,59,60
 286 571 286 571 286 516 c 0,61,62
 286 484 286 484 287 482 c 0,63,64
 291 470 291 470 316 470 c 2,65,-1
 324 470 l 2,66,67
 346 470 346 470 382 488 c 0,68,69
 427 511 427 511 427 540 c 0,53,54
468 298 m 0,70,71
 468 336 468 336 409 355 c 0,72,73
 368 368 368 368 317 368 c 0,74,75
 314 368 314 368 307 366 c 128,-1,76
 300 364 300 364 297 364 c 0,77,78
 280 364 280 364 275 361 c 1,79,-1
 275 351 l 2,80,81
 275 336 275 336 287 277.5 c 128,-1,82
 299 219 299 219 305 202 c 1,83,-1
 317 202 l 2,84,85
 343 202 343 202 420 228 c 0,86,87
 468 244 468 244 468 298 c 0,70,71
EndSplineSet
EndChar
StartChar: C
Encoding: 67 67 37
Width: 640
GlyphClass: 2
Flags: W
Fore
668 483 m 2,0,1
 668 474 668 474 619 455 c 0,2,3
 575 438 575 438 560 436 c 1,4,5
 537 482 537 482 513 527 c 0,6,7
 478 591 478 591 456 607 c 0,8,9
 425 629 425 629 368 629 c 0,10,11
 350 629 350 629 325 608 c 0,12,13
 304 590 304 590 291 571 c 0,14,15
 273 543 273 543 260 498 c 0,16,17
 250 460 250 460 240 421 c 0,18,19
 232 390 232 390 232 373 c 0,20,21
 232 312 232 312 266 272 c 128,-1,22
 300 232 300 232 360 232 c 2,23,-1
 376 232 l 2,24,25
 395 232 395 232 439 255 c 0,26,27
 468 270 468 270 495 315 c 1,28,29
 498 328 498 328 512 347 c 1,30,31
 534 357 534 357 585 357 c 0,32,33
 600 357 600 357 600 322 c 0,34,35
 600 244 600 244 557.5 181.5 c 128,-1,36
 515 119 515 119 442 95 c 1,37,38
 437 91 437 91 427 85 c 1,39,40
 377 64 377 64 323 64 c 0,41,42
 182 64 182 64 99 164 c 0,43,44
 23 257 23 257 23 401 c 0,45,46
 23 406 23 406 45 490 c 0,47,48
 118 768 118 768 333 768 c 0,49,50
 339 768 339 768 353 765 c 128,-1,51
 367 762 367 762 374 762 c 0,52,53
 430 763 430 763 530 679 c 1,54,55
 530 695 530 695 535 712 c 1,56,57
 569 728 569 728 644 733 c 1,58,59
 653 731 653 731 654 722 c 0,60,61
 661 641 661 641 664 531 c 0,62,63
 664 519 664 519 666 503 c 2,64,-1
 668 483 l 2,0,1
EndSplineSet
EndChar
StartChar: D
Encoding: 68 68 38
Width: 645
GlyphClass: 2
Flags: W
Fore
691 415 m 0,0,1
 691 348 691 348 651 285 c 0,2,3
 583 178 583 178 510.5 150.5 c 128,-1,4
 438 123 438 123 350 123 c 0,5,6
 347 123 347 123 279 124 c 2,7,-1
 208 125 l 2,8,9
 143 125 143 125 43 144 c 1,10,-1
 43 169 l 2,11,12
 43 190 43 190 53 220 c 0,13,14
 54 223 54 223 92 241 c 0,15,16
 127 258 127 258 127 270 c 0,17,18
 126 284 126 284 122 353 c 0,19,20
 113 490 113 490 111 578 c 0,21,22
 111 586 111 586 103 586 c 0,23,24
 98 586 98 586 87 585 c 128,-1,25
 76 584 76 584 70 584 c 0,26,27
 48 584 48 584 37 589 c 1,28,29
 40 638 40 638 51 735 c 1,30,31
 64 745 64 745 98 745 c 0,32,33
 101 745 101 745 139 742 c 2,34,-1
 179 739 l 1,35,-1
 185 739 l 2,36,37
 197 739 197 739 221.5 735.5 c 128,-1,38
 246 732 246 732 258 732 c 1,39,40
 255 732 255 732 282 725 c 0,41,42
 315 717 315 717 360 708 c 0,43,44
 400 701 400 701 501 681 c 0,45,46
 585 654 585 654 638 579 c 128,-1,47
 691 504 691 504 691 415 c 0,0,1
518 422 m 0,48,49
 518 492 518 492 447 539 c 0,50,51
 387 579 387 579 320 579 c 0,52,53
 317 579 317 579 316 576 c 2,54,-1
 315 573 l 1,55,56
 314 574 314 574 315 576 c 1,57,58
 315 577 315 577 312 577 c 0,59,60
 310 577 310 577 305 576 c 128,-1,61
 300 575 300 575 298 575 c 1,62,63
 290 534 290 534 287 497 c 0,64,65
 285 475 285 475 282 389 c 0,66,67
 281 366 281 366 279 337 c 2,68,-1
 275 299 l 1,69,-1
 275 255 l 1,70,-1
 279 257 l 1,71,72
 285 257 285 257 297 255.5 c 128,-1,73
 309 254 309 254 315 254 c 0,74,75
 440 254 440 254 489 341 c 0,76,77
 518 393 518 393 518 422 c 0,48,49
EndSplineSet
EndChar
StartChar: E
Encoding: 69 69 39
Width: 625
GlyphClass: 2
Flags: W
Fore
659 105 m 1,0,1
 647 101 647 101 608 100 c 2,2,-1
 130 86 l 2,3,4
 112 85 112 85 87 92 c 0,5,6
 57 100 57 100 57 112 c 0,7,8
 57 173 57 173 62 188 c 0,9,10
 66 200 66 200 114 217 c 0,11,12
 128 222 128 222 139 222 c 1,13,14
 136 242 136 242 132 292 c 2,15,-1
 123 487 l 2,16,17
 123 510 123 510 120 569 c 0,18,19
 119 579 119 579 81 579 c 0,20,21
 79 579 79 579 74.5 578 c 128,-1,22
 70 577 70 577 68 577 c 0,23,24
 53 577 53 577 34 584 c 1,25,26
 38 627 38 627 39 680 c 1,27,28
 55 687 55 687 87 694 c 0,29,30
 242 708 242 708 467 725 c 0,31,32
 485 726 485 726 537 730 c 2,33,-1
 587 734 l 1,34,35
 577 734 577 734 620 731 c 1,36,37
 626 726 626 726 625 708 c 2,38,-1
 623 681 l 2,39,40
 623 673 623 673 627 612 c 0,41,42
 629 584 629 584 629 567 c 0,43,44
 629 502 629 502 617 486 c 1,45,46
 597 488 597 488 521 489 c 1,47,48
 509 528 509 528 499 592 c 0,49,50
 496 612 496 612 475 612 c 0,51,52
 455 612 455 612 454 612 c 0,53,54
 421 611 421 611 424 611 c 1,55,56
 420 611 420 611 412.5 609.5 c 128,-1,57
 405 608 405 608 401 608 c 0,58,59
 370 609 370 609 298 594 c 1,60,-1
 298 438 l 1,61,62
 299 436 299 436 305 436 c 1,63,64
 309 437 309 437 337 442 c 0,65,66
 359 446 359 446 372 452 c 1,67,68
 373 477 373 477 378 527 c 1,69,-1
 394 527 l 2,70,71
 397 527 397 527 469 512 c 1,72,73
 471 510 471 510 474 503 c 1,74,75
 479 441 479 441 479 364 c 0,76,77
 479 314 479 314 468 264 c 1,78,79
 423 257 423 257 408 257 c 0,80,81
 399 257 399 257 393 295 c 2,82,-1
 387 339 l 1,83,84
 388 341 388 341 383 341 c 0,85,86
 375 341 375 341 332 314 c 1,87,88
 334 292 334 292 356 249 c 0,89,90
 363 230 363 230 379 191 c 1,91,92
 383 192 383 192 496 213 c 0,93,94
 518 217 518 217 545 227 c 1,95,96
 544 268 544 268 544 285 c 0,97,98
 545 334 545 334 564 334 c 0,99,100
 574 334 574 334 593.5 328.5 c 128,-1,101
 613 323 613 323 623 323 c 0,102,103
 626 323 626 323 632 322 c 1,104,-1
 641 322 l 1,105,106
 641 314 641 314 648 308 c 1,107,108
 651 256 651 256 659 105 c 1,0,1
EndSplineSet
EndChar
StartChar: F
Encoding: 70 70 40
Width: 595
GlyphClass: 2
Flags: W
Fore
636 707 m 0,0,1
 636 694 636 694 635 676 c 0,2,3
 632 635 632 635 625 523 c 1,4,5
 601 527 601 527 526 511 c 1,6,7
 522 514 522 514 517 521 c 1,8,9
 522 572 522 572 521 607 c 1,10,11
 496 608 496 608 432 598 c 0,12,13
 388 591 388 591 343 583 c 1,14,15
 335 543 335 543 320 459 c 1,16,17
 331 458 331 458 354 459 c 2,18,-1
 376 459 l 2,19,20
 380 459 380 459 394 463 c 0,21,22
 396 464 396 464 395 487 c 0,23,24
 394 506 394 506 394 527 c 1,25,26
 398 530 398 530 422.5 540 c 128,-1,27
 447 550 447 550 451 550 c 0,28,29
 466 550 466 550 474 515 c 2,30,-1
 480 469 l 1,31,-1
 504 306 l 1,32,33
 504 294 504 294 502 289 c 1,34,35
 468 278 468 278 401 259 c 1,36,37
 395 266 395 266 389 319 c 0,38,39
 388 331 388 331 382 352 c 1,40,-1
 365 352 l 2,41,42
 363 352 363 352 349 348.5 c 128,-1,43
 335 345 335 345 326 345 c 1,44,45
 323 343 323 343 320 339 c 1,46,47
 315 306 315 306 309 238 c 1,48,49
 317 232 317 232 341.5 228 c 128,-1,50
 366 224 366 224 373 218.5 c 128,-1,51
 380 213 380 213 382 191 c 0,52,53
 382 179 382 179 385 156 c 0,54,55
 385 152 385 152 388 141.5 c 128,-1,56
 391 131 391 131 391 127 c 0,57,58
 391 113 391 113 385 112 c 0,59,60
 354 111 354 111 297 108 c 0,61,62
 275 105 275 105 224 101 c 0,63,64
 215 100 215 100 194.5 94.5 c 128,-1,65
 174 89 174 89 168 89 c 0,66,67
 166 89 166 89 164 90 c 128,-1,68
 162 91 162 91 160 91 c 0,69,70
 147 91 147 91 120.5 82 c 128,-1,71
 94 73 94 73 81 73 c 0,72,73
 66 73 66 73 54 133 c 0,74,75
 45 178 45 178 45 199 c 0,76,77
 45 207 45 207 86 212 c 0,78,79
 131 218 131 218 136 224 c 1,80,81
 137 242 137 242 137 283 c 0,82,83
 137 289 137 289 136 302 c 128,-1,84
 135 315 135 315 135 322 c 1,85,86
 135 320 135 320 139 481 c 0,87,88
 139 492 139 492 141 509 c 2,89,-1
 143 529 l 1,90,-1
 143 540 l 2,91,92
 142 548 142 548 142 551 c 0,93,94
 144 583 144 583 137 585 c 1,95,96
 74 591 74 591 72 591 c 0,97,98
 69 591 69 591 67 588.5 c 128,-1,99
 65 586 65 586 62 586 c 0,100,101
 60 586 60 586 62 589 c 0,102,103
 63 591 63 591 60 591 c 0,104,105
 58 591 58 591 54.5 588.5 c 128,-1,106
 51 586 51 586 48 586 c 1,107,108
 46 587 46 587 37 591 c 1,109,110
 37 579 37 579 46 679 c 1,111,112
 48 681 48 681 55 685 c 1,113,-1
 141 703 l 2,114,115
 195 714 195 714 239 716 c 1,116,-1
 244 720 l 1,117,118
 247 720 247 720 341 733 c 0,119,120
 344 733 344 733 449 738 c 0,121,122
 491 740 491 740 553 748 c 2,123,-1
 620 757 l 2,124,125
 636 757 636 757 636 707 c 0,0,1
EndSplineSet
EndChar
StartChar: G
Encoding: 71 71 41
Width: 642
GlyphClass: 2
Flags: W
Fore
668 534 m 1,0,1
 621 517 621 517 526 484 c 1,2,3
 505 520 505 520 461 590 c 0,4,5
 434 632 434 632 376 632 c 0,6,7
 349 632 349 632 319 620 c 0,8,9
 286 607 286 607 273 587 c 0,10,11
 254 559 254 559 242 492 c 2,12,13
 237 477 237 477 230 449 c 0,14,15
 223 402 223 402 223 366 c 0,16,17
 223 322 223 322 240.5 285 c 128,-1,18
 258 248 258 248 296 232 c 0,19,20
 308 227 308 227 372 213 c 1,21,-1
 378 213 l 1,22,23
 393 276 393 276 389 335 c 1,24,25
 386 338 386 338 356.5 339 c 128,-1,26
 327 340 327 340 317 355 c 0,27,28
 312 363 312 363 307 393.5 c 128,-1,29
 302 424 302 424 295 437 c 1,30,31
 300 442 300 442 303 444 c 1,32,33
 403 449 403 449 440 449 c 2,34,-1
 478 449 l 2,35,36
 503 449 503 449 527 450 c 2,37,-1
 574 452 l 1,38,39
 597 354 597 354 637 160 c 1,40,41
 637 156 637 156 641 145.5 c 128,-1,42
 645 135 645 135 645 131 c 0,43,44
 645 123 645 123 640 114 c 1,45,46
 625 110 625 110 593.5 98 c 128,-1,47
 562 86 562 86 560 86 c 0,48,49
 553 86 553 86 541 110 c 0,50,51
 537 119 537 119 528 136 c 1,52,53
 508 125 508 125 470 105 c 0,54,55
 456 100 456 100 408.5 88.5 c 128,-1,56
 361 77 361 77 350 77 c 2,57,-1
 301 77 l 2,58,59
 295 77 295 77 281.5 79.5 c 128,-1,60
 268 82 268 82 262 82 c 0,61,62
 228 82 228 82 170 111.5 c 128,-1,63
 112 141 112 141 94 169 c 0,64,65
 23 278 23 278 23 381 c 256,66,67
 23 484 23 484 67 569 c 0,68,69
 115 661 115 661 203 703 c 0,70,71
 226 717 226 717 271 738 c 1,72,73
 306 748 306 748 360 748 c 0,74,75
 400 748 400 748 487 693 c 1,76,77
 488 698 488 698 490 719 c 0,78,79
 491 734 491 734 499 740 c 128,-1,80
 507 746 507 746 551 754 c 0,81,82
 588 761 588 761 595 761 c 0,83,84
 613 761 613 761 635 680 c 0,85,86
 647 630 647 630 658 581 c 0,87,88
 666 550 666 550 668 534 c 1,0,1
EndSplineSet
EndChar
StartChar: H
Encoding: 72 72 42
Width: 764
GlyphClass: 2
Flags: W
Fore
791 621 m 0,0,1
 791 618 791 618 788.5 616.5 c 128,-1,2
 786 615 786 615 786 614 c 1,3,4
 754 611 754 611 697 596 c 1,5,-1
 697 297 l 1,6,7
 715 296 715 296 752 292 c 1,8,9
 760 274 760 274 763 228 c 2,10,-1
 768 151 l 1,11,12
 764 143 764 143 747 143 c 0,13,14
 741 143 741 143 727.5 141 c 128,-1,15
 714 139 714 139 708 139 c 128,-1,16
 702 139 702 139 457 125 c 1,17,18
 461 159 461 159 461 199 c 1,19,20
 461 192 461 192 467 252 c 1,21,22
 474 260 474 260 496.5 265 c 128,-1,23
 519 270 519 270 527 276 c 1,24,25
 522 307 522 307 518 323 c 0,26,27
 510 357 510 357 502 357 c 1,28,29
 490 355 490 355 430 348 c 0,30,31
 358 339 358 339 316 337 c 1,32,33
 317 311 317 311 320 256 c 1,34,35
 334 256 334 256 362 258 c 2,36,-1
 389 259 l 2,37,38
 391 259 391 259 399 253.5 c 128,-1,39
 407 248 407 248 409 247 c 1,40,-1
 409 208 l 2,41,42
 409 173 409 173 403 141 c 1,43,44
 391 136 391 136 311 135 c 0,45,46
 302 135 302 135 283 133 c 0,47,48
 155 120 155 120 140 120 c 0,49,50
 133 120 133 120 118.5 118 c 128,-1,51
 104 116 104 116 97 116 c 0,52,53
 87 116 87 116 68 120 c 0,54,55
 45 125 45 125 44 130 c 1,56,57
 43 132 43 132 43 142 c 0,58,59
 43 160 43 160 49 210 c 1,60,61
 79 219 79 219 136 243 c 1,62,-1
 136 303 l 2,63,64
 136 308 136 308 114 594 c 1,65,66
 102 598 102 598 47 598 c 0,67,68
 36 598 36 598 21 605 c 1,69,70
 26 680 26 680 41 726 c 1,71,72
 96 732 96 732 153 732 c 0,73,74
 165 731 165 731 223 730 c 0,75,76
 271 729 271 729 333 729 c 1,77,78
 346 720 346 720 350 672 c 2,79,-1
 357 596 l 1,80,81
 314 581 314 581 270 571 c 1,82,-1
 270 551 l 1,83,84
 271 544 271 544 281 499 c 0,85,86
 292 450 292 450 298 450 c 1,87,88
 265 450 265 450 341 458 c 128,-1,89
 417 466 417 466 440 466 c 1,90,-1
 447 464 l 1,91,92
 452 464 452 464 461.5 465 c 128,-1,93
 471 466 471 466 476 466 c 128,-1,94
 481 466 481 466 504 470.5 c 128,-1,95
 527 475 527 475 529 477 c 1,96,97
 529 505 529 505 539 576 c 1,98,99
 528 582 528 582 514 582 c 0,100,101
 464 580 464 580 453 580 c 1,102,-1
 452 583 l 1,103,104
 450 586 450 586 450 590 c 0,105,106
 450 593 450 593 456 610.5 c 128,-1,107
 462 628 462 628 463 634.5 c 128,-1,108
 464 641 464 641 464 681 c 1,109,110
 467 691 467 691 496 694 c 0,111,112
 535 698 535 698 616 706 c 0,113,114
 650 705 650 705 724 706 c 0,115,116
 731 706 731 706 745 710 c 128,-1,117
 759 714 759 714 765 714 c 0,118,119
 774 714 774 714 776 703 c 0,120,121
 791 630 791 630 791 621 c 0,0,1
EndSplineSet
EndChar
StartChar: I
Encoding: 73 73 43
Width: 373
GlyphClass: 2
Flags: W
Fore
398 157 m 1,0,1
 365 155 365 155 281 147 c 0,2,3
 262 144 262 144 213 137 c 2,4,-1
 193 135 l 2,5,6
 108 127 108 127 67 127 c 0,7,8
 61 127 61 127 41 132 c 1,9,-1
 41 149 l 2,10,11
 41 207 41 207 51 233 c 1,12,13
 52 238 52 238 71 246 c 2,14,-1
 130 272 l 1,15,-1
 130 337 l 2,16,17
 130 353 130 353 127 398 c 0,18,19
 124 451 124 451 123.5 483 c 128,-1,20
 123 515 123 515 122 547 c 0,21,22
 121 592 121 592 114 606 c 1,23,24
 100 606 100 606 72 607 c 0,25,26
 41 608 41 608 41 621 c 2,27,-1
 46 658 l 2,28,29
 50 695 50 695 50 713 c 1,30,31
 114 729 114 729 169 729 c 0,32,33
 172 729 172 729 200 727 c 2,34,-1
 230 725 l 2,35,36
 232 725 232 725 269 724 c 2,37,-1
 309 723 l 2,38,39
 311 723 311 723 315.5 721.5 c 128,-1,40
 320 720 320 720 322 720 c 0,41,42
 329 720 329 720 354 713 c 0,43,44
 362 710 362 710 385 622 c 0,45,46
 386 618 386 618 386 593 c 1,47,48
 367 591 367 591 326 581 c 0,49,50
 323 580 323 580 295 575 c 0,51,52
 279 572 279 572 273 564 c 1,53,-1
 273 541 l 2,54,55
 273 465 273 465 285 306 c 0,56,57
 286 297 286 297 293 286 c 1,58,59
 318 287 318 287 377 298 c 1,60,61
 380 291 380 291 387 286 c 1,62,63
 388 264 388 264 393 221 c 2,64,-1
 398 176 l 1,65,-1
 398 157 l 1,0,1
EndSplineSet
EndChar
StartChar: J
Encoding: 74 74 44
Width: 479
GlyphClass: 2
Flags: W
Fore
513 660 m 1,0,1
 490 651 490 651 445 626 c 1,2,3
 459 594 459 594 468 544 c 2,4,-1
 484 451 l 1,5,6
 483 450 483 450 483 429 c 256,7,8
 483 408 483 408 484 369 c 1,9,10
 465 241 465 241 376 158 c 0,11,12
 355 138 355 138 322 114 c 1,13,14
 306 106 306 106 280 99.5 c 128,-1,15
 254 93 254 93 204 84 c 0,16,17
 185 82 185 82 182 82 c 0,18,19
 144 82 144 82 100.5 109 c 128,-1,20
 57 136 57 136 45 171 c 0,21,22
 41 182 41 182 41 203 c 0,23,24
 41 252 41 252 73 288.5 c 128,-1,25
 105 325 105 325 153 325 c 0,26,27
 214 325 214 325 214 242 c 0,28,29
 214 226 214 226 211 211 c 1,30,31
 241 224 241 224 246 227 c 0,32,33
 268 239 268 239 274.5 253.5 c 128,-1,34
 281 268 281 268 298 335 c 1,35,36
 297 376 297 376 297 397 c 256,37,38
 297 418 297 418 298 420 c 1,39,40
 293 454 293 454 282 544 c 0,41,42
 281 564 281 564 279 617 c 0,43,44
 279 627 279 627 274 627 c 2,45,-1
 204 627 l 2,46,47
 200 627 200 627 198 629 c 1,48,-1
 195 630 l 1,49,-1
 191 627 l 1,50,-1
 191 736 l 1,51,52
 223 753 223 753 285 758 c 0,53,54
 318 760 318 760 385 764 c 0,55,56
 413 766 413 766 476 766 c 0,57,58
 492 766 492 766 503 708 c 0,59,60
 507 688 507 688 513 660 c 1,0,1
EndSplineSet
EndChar
StartChar: K
Encoding: 75 75 45
Width: 757
GlyphClass: 2
Flags: W
Fore
789 605 m 1,0,1
 782 597 782 597 766 579 c 0,2,3
 744 554 744 554 741 554 c 0,4,5
 735 554 735 554 715.5 572 c 128,-1,6
 696 590 696 590 690 598 c 1,7,8
 641 562 641 562 520 462 c 1,9,10
 558 426 558 426 601 381 c 0,11,12
 613 369 613 369 617 362 c 0,13,14
 639 327 639 327 681 275 c 1,15,16
 704 274 704 274 735 262 c 1,17,18
 741 256 741 256 741 241 c 256,19,20
 741 226 741 226 738 199 c 0,21,22
 735 169 735 169 735 156 c 0,23,24
 735 140 735 140 728 116 c 1,25,26
 719 111 719 111 686 111 c 0,27,28
 683 111 683 111 640 114 c 2,29,-1
 594 116 l 2,30,31
 586 116 586 116 570.5 114.5 c 128,-1,32
 555 113 555 113 547 113 c 0,33,34
 533 112 533 112 508 113 c 0,35,36
 477 114 477 114 463 114 c 0,37,38
 460 114 460 114 456 111.5 c 128,-1,39
 452 109 452 109 449 109 c 0,40,41
 437 109 437 109 435 132 c 2,42,-1
 433 164 l 2,43,44
 429 198 429 198 429 194 c 1,45,46
 429 218 429 218 445 231 c 1,47,48
 465 242 465 242 484 253 c 1,49,50
 453 284 453 284 322 384 c 1,51,52
 321 383 321 383 319 380 c 1,53,54
 318 366 318 366 316 331 c 2,55,-1
 314 295 l 2,56,57
 314 273 314 273 315 263 c 1,58,-1
 324 263 l 1,59,60
 326 264 326 264 350.5 269.5 c 128,-1,61
 375 275 375 275 378 275 c 1,62,-1
 393 265 l 1,63,-1
 393 153 l 2,64,65
 393 148 393 148 381 147 c 0,66,67
 339 145 339 145 228 140 c 0,68,69
 210 139 210 139 160 137 c 2,70,-1
 111 134 l 2,71,72
 66 134 66 134 58 144.5 c 128,-1,73
 50 155 50 155 50 202 c 0,74,75
 50 229 50 229 90 241 c 0,76,77
 137 255 137 255 141 261 c 1,78,-1
 141 344 l 1,79,-1
 126 588 l 1,80,81
 113 589 113 589 37 589 c 1,82,83
 30 607 30 607 30 620 c 1,84,85
 30 597 30 597 32.5 654 c 128,-1,86
 35 711 35 711 35 722 c 1,87,88
 70 726 70 726 189 741 c 0,89,90
 215 745 215 745 266 754 c 0,91,92
 338 766 338 766 358 766 c 0,93,94
 383 766 383 766 400 716 c 0,95,96
 405 698 405 698 416 662 c 1,97,98
 380 652 380 652 313 626 c 1,99,100
 315 577 315 577 336 514 c 1,101,102
 447 602 447 602 582 663 c 1,103,104
 567 663 567 663 550 690 c 0,105,106
 536 713 536 713 536 719 c 0,107,108
 536 727 536 727 544 729 c 2,109,-1
 617 745 l 1,110,111
 620 745 620 745 689 701 c 0,112,113
 713 686 713 686 742 659 c 0,114,115
 780 624 780 624 789 605 c 1,0,1
EndSplineSet
EndChar
StartChar: L
Encoding: 76 76 46
Width: 587
GlyphClass: 2
Flags: W
Fore
629 258 m 0,0,1
 634 159 634 159 629 121 c 1,2,-1
 91 121 l 1,3,4
 85 132 85 132 82 202 c 0,5,6
 81 230 81 230 90 242 c 1,7,8
 111 253 111 253 152 275 c 0,9,10
 155 276 155 276 155 285 c 1,11,12
 155 281 155 281 142 401 c 0,13,14
 139 440 139 440 133 540 c 0,15,16
 133 552 133 552 130 609 c 0,17,18
 129 623 129 623 112 625 c 1,19,20
 114 625 114 625 83 625 c 0,21,22
 79 625 79 625 72.5 624 c 128,-1,23
 66 623 66 623 62 623 c 0,24,25
 44 623 44 623 34 632 c 1,26,-1
 34 724 l 1,27,28
 37 726 37 726 42 729 c 1,29,30
 59 729 59 729 103.5 731 c 128,-1,31
 148 733 148 733 167 733 c 0,32,33
 203 733 203 733 204 733 c 0,34,35
 212 733 212 733 229 732 c 0,36,37
 242 732 242 732 247 732 c 0,38,39
 266 732 266 732 305 736 c 2,40,-1
 343 739 l 2,41,42
 368 739 368 739 396 733 c 1,43,44
 405 717 405 717 408 694 c 0,45,46
 418 626 418 626 418 597 c 2,47,-1
 418 584 l 1,48,49
 378 583 378 583 338 567 c 0,50,51
 330 564 330 564 330 514 c 0,52,53
 330 507 330 507 332 493 c 128,-1,54
 334 479 334 479 334 472 c 2,55,-1
 334 321 l 2,56,57
 334 293 334 293 338 247 c 1,58,59
 365 247 365 247 419 250 c 2,60,-1
 472 252 l 2,61,62
 489 252 489 252 527 261 c 1,63,64
 526 296 526 296 523 368 c 1,65,66
 549 373 549 373 569 373 c 0,67,68
 594 373 594 373 619 367 c 1,69,70
 626 316 626 316 629 258 c 0,0,1
EndSplineSet
EndChar
StartChar: M
Encoding: 77 77 47
Width: 860
GlyphClass: 2
Flags: W
Fore
895 157 m 0,0,1
 895 155 895 155 894 151 c 128,-1,2
 893 147 893 147 893 146 c 1,3,4
 795 135 795 135 644 115 c 0,5,6
 634 114 634 114 602.5 103.5 c 128,-1,7
 571 93 571 93 562 93 c 0,8,9
 559 93 559 93 557 94.5 c 128,-1,10
 555 96 555 96 553 96 c 1,11,12
 551 118 551 118 533 167 c 0,13,14
 523 194 523 194 523 192 c 1,15,16
 523 203 523 203 587 220 c 0,17,18
 598 223 598 223 628 230 c 1,19,20
 632 235 632 235 632 254 c 0,21,22
 632 291 632 291 615 412 c 0,23,24
 610 450 610 450 596 486 c 1,25,26
 579 467 579 467 560 385 c 0,27,28
 548 350 548 350 519 258 c 0,29,30
 514 242 514 242 481 116 c 1,31,32
 462 119 462 119 409 104 c 0,33,34
 345 86 345 86 328 84 c 1,35,36
 317 114 317 114 296 204 c 0,37,38
 277 283 277 283 256 325 c 1,39,40
 236 287 236 287 207 217 c 1,41,42
 257 203 257 203 257 189 c 0,43,44
 257 168 257 168 248 130 c 1,45,46
 249 117 249 117 240 93 c 1,47,48
 169 109 169 109 99 109 c 0,49,50
 89 109 89 109 66.5 107 c 128,-1,51
 44 105 44 105 34 105 c 0,52,53
 19 105 19 105 13 158 c 2,54,-1
 7 220 l 1,55,56
 18 226 18 226 46.5 229 c 128,-1,57
 75 232 75 232 83 238 c 1,58,59
 87 299 87 299 95 421 c 2,60,-1
 102 534 l 1,61,62
 102 522 102 522 99 583 c 0,63,64
 99 586 99 586 96 591 c 1,65,66
 78 591 78 591 28 582 c 1,67,68
 25 587 25 587 21 596 c 1,69,70
 16 637 16 637 16 684 c 0,71,72
 16 695 16 695 23 701 c 1,73,74
 181 723 181 723 246 725 c 0,75,76
 267 725 267 725 295 729 c 1,77,78
 326 681 326 681 360.5 554.5 c 128,-1,79
 395 428 395 428 426 384 c 1,80,81
 443 538 443 538 443 638 c 2,82,-1
 443 701 l 2,83,84
 443 727 443 727 460 734 c 0,85,86
 468 737 468 737 501 737 c 0,87,88
 504 737 504 737 580 732 c 2,89,-1
 659 727 l 1,90,91
 671 728 671 728 727 735 c 0,92,93
 794 743 794 743 835 745 c 1,94,95
 845 737 845 737 848 712 c 0,96,97
 848 701 848 701 853 631 c 1,98,99
 857 631 857 631 857 626 c 0,100,101
 857 624 857 624 852 611 c 1,102,-1
 784 605 l 1,103,104
 788 552 788 552 789 499 c 2,105,-1
 791 439 l 2,106,107
 792 379 792 379 792 356 c 0,108,109
 792 324 792 324 791 298 c 0,110,111
 790 276 790 276 791 272 c 0,112,113
 793 266 793 266 799 262 c 1,114,115
 802 261 802 261 820 261 c 0,116,117
 827 261 827 261 841 262.5 c 128,-1,118
 855 264 855 264 862 264 c 0,119,120
 886 264 886 264 888 254 c 0,121,122
 895 225 895 225 895 157 c 0,0,1
EndSplineSet
EndChar
StartChar: N
Encoding: 78 78 48
Width: 717
GlyphClass: 2
Flags: W
Fore
768 599 m 0,0,1
 768 586 768 586 748 586 c 0,2,3
 687 586 687 586 671 578 c 1,4,5
 666 555 666 555 666 529 c 0,6,7
 666 521 666 521 669.5 501 c 128,-1,8
 673 481 673 481 673 472 c 2,9,-1
 673 362 l 2,10,11
 673 321 673 321 693 193 c 1,12,13
 645 168 645 168 505 141 c 1,14,15
 497 151 497 151 482 173 c 1,16,17
 482 181 482 181 479 194 c 1,18,19
 466 219 466 219 379 348 c 2,20,-1
 329 422 l 2,21,22
 292 472 292 472 252 502 c 1,23,24
 256 343 256 343 256 275 c 1,25,26
 266 275 266 275 291 277 c 2,27,-1
 316 279 l 2,28,29
 334 279 334 279 334 266 c 1,30,31
 331 250 331 250 324 199 c 0,32,33
 320 172 320 172 309 133 c 1,34,-1
 42 111 l 1,35,36
 38 115 38 115 36 141 c 0,37,38
 34 159 34 159 34 161 c 0,39,40
 34 171 34 171 37 190 c 128,-1,41
 40 209 40 209 40 219 c 0,42,43
 40 231 40 231 39 242 c 1,44,45
 40 258 40 258 46 263 c 0,46,47
 56 272 56 272 80 279 c 0,48,49
 115 290 115 290 116 290 c 1,50,51
 118 418 118 418 115 533 c 0,52,53
 114 591 114 591 108 658 c 0,54,55
 107 663 107 663 93 663 c 2,56,-1
 72 663 l 2,57,58
 46 663 46 663 45 663 c 0,59,60
 28 664 28 664 16 671 c 1,61,62
 19 702 19 702 24 760 c 1,63,64
 71 766 71 766 101 767 c 0,65,66
 106 767 106 767 156 771 c 2,67,-1
 193 773 l 2,68,69
 197 773 197 773 205.5 771.5 c 128,-1,70
 214 770 214 770 219.5 770 c 128,-1,71
 225 770 225 770 237.5 768.5 c 128,-1,72
 250 767 250 767 256 767 c 0,73,74
 356 767 356 767 377 762 c 1,75,76
 397 723 397 723 446 606 c 0,77,78
 492 497 492 497 524 439 c 1,79,80
 530 453 530 453 530 494 c 0,81,82
 548 669 548 669 548 651 c 1,83,84
 548 659 548 659 540 659 c 0,85,86
 537 659 537 659 537 658 c 1,87,-1
 537 658 l 1,88,89
 537 657 537 657 534 657 c 0,90,91
 512 657 512 657 476 667 c 1,92,93
 474 695 474 695 468 754 c 1,94,95
 479 769 479 769 599 771 c 2,96,-1
 735 771 l 1,97,98
 757 757 757 757 763 633 c 0,99,100
 763 628 763 628 765.5 616 c 128,-1,101
 768 604 768 604 768 599 c 0,0,1
EndSplineSet
EndChar
StartChar: O
Encoding: 79 79 49
Width: 651
GlyphClass: 2
Flags: W
Fore
684 420 m 0,0,1
 684 385 684 385 666 321 c 0,2,3
 643 240 643 240 610 198 c 0,4,5
 583 163 583 163 533 132 c 0,6,7
 479 98 479 98 440 95 c 0,8,9
 431 94 431 94 410.5 89 c 128,-1,10
 390 84 390 84 380 84 c 2,11,-1
 340 84 l 2,12,13
 337 84 337 84 289 95 c 0,14,15
 250 104 250 104 198 123 c 1,16,17
 110 175 110 175 62 271 c 0,18,19
 16 361 16 361 16 468 c 0,20,21
 16 596 16 596 60 674 c 0,22,23
 88 724 88 724 155 750 c 0,24,25
 242 784 242 784 298 784 c 0,26,27
 333 784 333 784 426 762 c 0,28,29
 449 758 449 758 508 747 c 0,30,31
 563 736 563 736 612 672 c 0,32,33
 646 627 646 627 666 552 c 0,34,35
 684 484 684 484 684 420 c 0,0,1
502 381 m 0,36,37
 502 469 502 469 481 538 c 0,38,39
 470 575 470 575 423 622 c 0,40,41
 404 641 404 641 383 658 c 1,42,43
 348 675 348 675 311 675 c 0,44,45
 293 675 293 675 269 667 c 1,46,47
 266 665 266 665 258 652 c 0,48,49
 244 627 244 627 241 616 c 0,50,51
 230 540 230 540 230 458 c 0,52,53
 230 364 230 364 255 310 c 0,54,55
 270 278 270 278 310 251.5 c 128,-1,56
 350 225 350 225 385 225 c 0,57,58
 447 225 447 225 477 275 c 0,59,60
 502 316 502 316 502 381 c 0,36,37
EndSplineSet
EndChar
StartChar: P
Encoding: 80 80 50
Width: 658
GlyphClass: 2
Flags: W
Fore
704 556 m 0,0,1
 704 552 704 552 698 534 c 128,-1,2
 692 516 692 516 691 512 c 0,3,4
 685 482 685 482 661 460 c 0,5,6
 651 453 651 453 612 423 c 1,7,8
 600 418 600 418 572 404 c 0,9,10
 521 376 521 376 453 359 c 0,11,12
 432 354 432 354 329 334 c 1,13,-1
 329 292 l 2,14,15
 329 257 329 257 338 246 c 1,16,17
 340 245 340 245 355 245 c 0,18,19
 363 245 363 245 378 246.5 c 128,-1,20
 393 248 393 248 400 248 c 128,-1,21
 407 248 407 248 418 250 c 128,-1,22
 429 252 429 252 435 252 c 0,23,24
 448 252 448 252 459 245 c 1,25,26
 454 218 454 218 455 186 c 2,27,-1
 456 132 l 1,28,29
 389 131 389 131 260 119 c 0,30,31
 128 107 128 107 64 105 c 1,32,33
 61 109 61 109 61 142 c 0,34,35
 61 149 61 149 59 163.5 c 128,-1,36
 57 178 57 178 57 185 c 0,37,38
 57 201 57 201 104 220.5 c 128,-1,39
 151 240 151 240 151 243 c 0,40,41
 151 245 151 245 150 246 c 1,42,-1
 150 317 l 2,43,44
 141 395 141 395 136 510 c 0,45,46
 133 579 133 579 137 598 c 1,47,48
 119 602 119 602 105 602 c 0,49,50
 99 602 99 602 85.5 598.5 c 128,-1,51
 72 595 72 595 66 595 c 0,52,53
 41 595 41 595 41 614 c 0,54,55
 41 639 41 639 46 679 c 0,56,57
 52 735 52 735 53 745 c 1,58,59
 60 752 60 752 69 754 c 0,60,61
 97 761 97 761 334 761 c 0,62,63
 364 761 364 761 435 753 c 128,-1,64
 506 745 506 745 533 738 c 0,65,66
 556 732 556 732 602 719 c 128,-1,67
 648 706 648 706 674 669 c 0,68,69
 684 654 684 654 694 615.5 c 128,-1,70
 704 577 704 577 704 556 c 0,0,1
454 564 m 0,71,72
 454 592 454 592 429.5 612.5 c 128,-1,73
 405 633 405 633 376 634 c 0,74,75
 294 636 294 636 266 634 c 1,76,77
 268 524 268 524 266 522 c 1,78,79
 268 512 268 512 271.5 494.5 c 128,-1,80
 275 477 275 477 278 477 c 2,81,-1
 287 477 l 2,82,83
 290 477 290 477 296 478 c 128,-1,84
 302 479 302 479 305 479 c 128,-1,85
 308 479 308 479 313.5 480.5 c 128,-1,86
 319 482 319 482 322 482 c 0,87,88
 360 482 360 482 402 498 c 0,89,90
 414 502 414 502 444 530 c 0,91,92
 454 539 454 539 454 564 c 0,71,72
EndSplineSet
EndChar
StartChar: Q
Encoding: 81 81 51
Width: 665
GlyphClass: 2
Flags: W
Fore
700 419 m 4,0,1
 700 317 700 317 644 225 c 4,2,3
 579 119 579 119 467 86 c 4,4,5
 448 78 448 78 409 65 c 5,6,7
 435 45 435 45 469 13 c 5,8,9
 492 -18 492 -18 514 -18 c 4,10,11
 547 -18 547 -18 555 5 c 5,12,13
 537 16 537 16 515 17 c 4,14,15
 504 17 504 17 504 39 c 4,16,17
 504 56 504 56 508 59 c 4,18,19
 520 70 520 70 545.5 80.5 c 132,-1,20
 571 91 571 91 587 91 c 4,21,22
 621 91 621 91 651 57 c 4,23,24
 673 32 673 32 673 -13 c 5,25,26
 673 -4 673 -4 668 -26 c 4,27,28
 662 -54 662 -54 662 -55 c 4,29,30
 649 -95 649 -95 597 -124 c 4,31,32
 561 -143 561 -143 541 -143 c 4,33,34
 536 -143 536 -143 525.5 -144 c 132,-1,35
 515 -145 515 -145 510 -145 c 4,36,37
 446 -145 446 -145 397 -115 c 6,38,-1
 326 -58 l 6,39,40
 288 -27 288 -27 250 -27 c 5,41,42
 249 -28 249 -28 231 -35 c 4,43,44
 222 -38 222 -38 221 -49 c 5,45,46
 223 -66 223 -66 222 -102 c 5,47,-1
 220 -104 l 5,48,49
 217 -105 217 -105 214 -105 c 260,50,51
 211 -105 211 -105 202 -101 c 132,-1,52
 193 -97 193 -97 190 -96 c 5,53,54
 170 -96 170 -96 135 -88 c 5,55,56
 127 -84 127 -84 119 -51 c 4,57,58
 111 -21 111 -21 111 -7 c 4,59,60
 111 15 111 15 141 55 c 132,-1,61
 171 95 171 95 193 104 c 5,62,63
 178 121 178 121 155 131 c 4,64,65
 88 160 88 160 48 228 c 4,66,67
 9 293 9 293 9 368 c 4,68,69
 9 396 9 396 19 460 c 4,70,71
 32 545 32 545 84 620 c 4,72,73
 138 701 138 701 212 734 c 6,74,75
 233 748 233 748 258 758 c 4,76,77
 299 775 299 775 352 775 c 4,78,79
 355 775 355 775 395 770 c 6,80,-1
 437 764 l 5,81,82
 447 761 447 761 499 750 c 4,83,84
 544 740 544 740 568 726 c 4,85,86
 584 716 584 716 618 677 c 4,87,88
 700 581 700 581 700 419 c 4,0,1
484 465 m 4,89,90
 484 522 484 522 473 552 c 4,91,92
 458 594 458 594 411 630 c 4,93,94
 385 650 385 650 359 650 c 4,95,96
 338 650 338 650 296 610 c 4,97,98
 263 579 263 579 240 506 c 4,99,100
 220 440 220 440 220 387 c 4,101,102
 220 338 220 338 227 311 c 4,103,104
 236 275 236 275 264 246 c 4,105,106
 271 239 271 239 298.5 227.5 c 132,-1,107
 326 216 326 216 337 216 c 4,108,109
 339 216 339 216 343.5 215 c 132,-1,110
 348 214 348 214 350 214 c 4,111,112
 409 214 409 214 450 312 c 4,113,114
 484 393 484 393 484 465 c 4,89,90
EndSplineSet
EndChar
StartChar: R
Encoding: 82 82 52
Width: 682
GlyphClass: 2
Flags: W
Fore
727 226 m 0,0,1
 727 163 727 163 675 118 c 0,2,3
 637 86 637 86 612 86 c 2,4,-1
 589 86 l 2,5,6
 550 86 550 86 526 96 c 0,7,8
 497 108 497 108 470 144 c 0,9,10
 446 177 446 177 438 209 c 0,11,12
 431 246 431 246 424 284 c 0,13,14
 412 329 412 329 388.5 347.5 c 128,-1,15
 365 366 365 366 336 366 c 0,16,17
 302 366 302 366 294 355 c 0,18,19
 289 348 289 348 289 312 c 2,20,-1
 289 295 l 1,21,22
 290 289 290 289 302 289 c 0,23,24
 305 289 305 289 329 290 c 2,25,-1
 356 291 l 2,26,27
 362 291 362 291 382 279 c 1,28,-1
 382 169 l 1,29,30
 380 161 380 161 376 146 c 1,31,32
 363 141 363 141 355 141 c 2,33,-1
 263 141 l 1,34,-1
 258 136 l 1,35,36
 232 137 232 137 215 135 c 0,37,38
 214 135 214 135 209.5 133.5 c 128,-1,39
 205 132 205 132 203 132 c 256,40,41
 201 132 201 132 201.5 133 c 128,-1,42
 202 134 202 134 199 134 c 128,-1,43
 196 134 196 134 138 137 c 2,44,-1
 77 139 l 2,45,46
 42 139 42 139 35 157 c 0,47,48
 32 164 32 164 32 212 c 0,49,50
 32 228 32 228 60 244 c 0,51,52
 81 253 81 253 102 263 c 1,53,54
 97 327 97 327 96 424 c 0,55,56
 96 483 96 483 95 637 c 1,57,58
 90 639 90 639 44 641 c 0,59,60
 31 642 31 642 21 646 c 1,61,62
 27 709 27 709 26 744 c 1,63,64
 30 754 30 754 36 754 c 0,65,66
 41 754 41 754 50.5 753 c 128,-1,67
 60 752 60 752 65 752 c 2,68,-1
 105 756 l 2,69,70
 127 758 127 758 160.5 759 c 128,-1,71
 194 760 194 760 286 762 c 2,72,-1
 365 764 l 2,73,74
 401 764 401 764 476 754 c 0,75,76
 491 752 491 752 526 740 c 0,77,78
 566 726 566 726 596 691 c 0,79,80
 627 653 627 653 627 612 c 1,81,82
 627 617 627 617 621 598 c 0,83,84
 596 521 596 521 539 458 c 1,85,86
 572 445 572 445 594.5 411 c 128,-1,87
 617 377 617 377 620 340 c 0,88,89
 620 314 620 314 632 247 c 1,90,91
 634 243 634 243 641.5 240 c 128,-1,92
 649 237 649 237 653 238 c 1,93,94
 662 249 662 249 659 273 c 0,95,96
 655 300 655 300 659 308 c 1,97,98
 667 309 667 309 699 309 c 0,99,100
 702 309 702 309 706.5 305 c 128,-1,101
 711 301 711 301 712 301 c 1,102,103
 727 235 727 235 727 226 c 0,0,1
420 612 m 0,104,105
 420 636 420 636 377 650 c 0,106,107
 343 661 343 661 314 661 c 0,108,109
 282 661 282 661 273 649 c 1,110,111
 281 552 281 552 292 498 c 1,112,113
 333 521 333 521 375 543 c 0,114,115
 420 574 420 574 420 612 c 0,104,105
EndSplineSet
EndChar
StartChar: S
Encoding: 83 83 53
Width: 580
GlyphClass: 2
Flags: W
Fore
595 309 m 0,0,1
 595 303 595 303 590 283 c 128,-1,2
 585 263 585 263 585 253 c 0,3,4
 585 189 585 189 521.5 135.5 c 128,-1,5
 458 82 458 82 392 82 c 0,6,7
 385 82 385 82 368.5 79.5 c 128,-1,8
 352 77 352 77 344 77 c 0,9,10
 315 77 315 77 231 107 c 1,11,12
 229 91 229 91 222 46 c 1,13,14
 190 57 190 57 107 79 c 0,15,16
 73 88 73 88 55 99 c 2,17,18
 23 110 23 110 23 117 c 0,19,20
 23 123 23 123 39 192 c 0,21,22
 59 278 59 278 67 327 c 1,23,24
 68 329 68 329 73 334 c 1,25,26
 82 332 82 332 139 328 c 0,27,28
 161 326 161 326 188 314 c 1,29,30
 189 284 189 284 220 254.5 c 128,-1,31
 251 225 251 225 281 225 c 0,32,33
 283 225 283 225 286.5 227 c 128,-1,34
 290 229 290 229 293 229 c 0,35,36
 326 229 326 229 335 234 c 0,37,38
 351 243 351 243 367.5 260.5 c 128,-1,39
 384 278 384 278 384 293 c 0,40,41
 384 336 384 336 267 367 c 0,42,43
 256 370 256 370 208 380 c 1,44,45
 199 386 199 386 180 395 c 1,46,47
 121 410 121 410 89 457 c 0,48,49
 59 501 59 501 59 564 c 0,50,51
 59 775 59 775 342 775 c 0,52,53
 363 775 363 775 412 757 c 128,-1,54
 461 739 461 739 476 725 c 1,55,56
 476 735 476 735 478 754 c 1,57,-1
 492 754 l 2,58,59
 495 754 495 754 580 737 c 1,60,61
 589 724 589 724 589 726 c 1,62,-1
 589 601 l 1,63,-1
 585 565 l 2,64,65
 581 529 581 529 581 509 c 1,66,67
 507 509 507 509 432 528 c 1,68,69
 422 594 422 594 403 622 c 0,70,71
 379 657 379 657 325 657 c 0,72,73
 243 657 243 657 243 598 c 0,74,75
 243 550 243 550 293 527 c 0,76,77
 320 515 320 515 382 505.5 c 128,-1,78
 444 496 444 496 474 483 c 0,79,80
 500 472 500 472 536 436 c 0,81,82
 577 396 577 396 580 365 c 0,83,84
 581 357 581 357 588 337 c 128,-1,85
 595 317 595 317 595 309 c 0,0,1
EndSplineSet
EndChar
StartChar: T
Encoding: 84 84 54
Width: 645
GlyphClass: 2
Flags: W
Fore
682 505 m 1,0,1
 679 504 679 504 674 501 c 1,2,3
 658 504 658 504 643 504 c 0,4,5
 635 504 635 504 595 510 c 0,6,7
 547 517 547 517 528 525 c 0,8,9
 526 526 526 526 520.5 576.5 c 128,-1,10
 515 627 515 627 507 627 c 0,11,12
 505 627 505 627 436 614 c 1,13,14
 436 613 436 613 442 525 c 0,15,16
 445 488 445 488 445 467 c 2,17,-1
 445 358 l 2,18,19
 445 343 445 343 447.5 312.5 c 128,-1,20
 450 282 450 282 450 267 c 1,21,22
 457 259 457 259 487 259 c 0,23,24
 539 259 539 259 539 244 c 1,25,26
 539 254 539 254 538 234 c 128,-1,27
 537 214 537 214 537 202 c 0,28,29
 536 149 536 149 536 119 c 1,30,31
 466 118 466 118 396 122 c 0,32,33
 365 124 365 124 283 129 c 1,34,35
 274 132 274 132 277 132 c 1,36,37
 274 132 274 132 272.5 129.5 c 128,-1,38
 271 127 271 127 268 127 c 0,39,40
 262 128 262 128 244 128 c 2,41,-1
 212 128 l 2,42,43
 208 128 208 128 200.5 126.5 c 128,-1,44
 193 125 193 125 189 125 c 0,45,46
 177 125 177 125 166 132 c 1,47,48
 167 149 167 149 172 179 c 2,49,50
 172 206 172 206 180 208 c 0,51,52
 227 220 227 220 274 234 c 1,53,54
 275 237 275 237 275 258 c 0,55,56
 275 315 275 315 272 418 c 0,57,58
 268 530 268 530 268 578 c 2,59,-1
 268 618 l 2,60,61
 268 642 268 642 262 655 c 1,62,63
 218 647 218 647 170 643 c 1,64,65
 170 624 170 624 173 586 c 2,66,-1
 175 549 l 2,67,68
 175 514 175 514 170 500 c 1,69,-1
 67 507 l 2,70,71
 63 507 63 507 54 505.5 c 128,-1,72
 45 504 45 504 41 504 c 0,73,74
 30 504 30 504 30 553 c 0,75,76
 30 566 30 566 33 627 c 2,77,-1
 39 745 l 1,78,79
 49 750 49 750 56 751 c 1,80,-1
 153 751 l 2,81,82
 203 751 203 751 303 755 c 128,-1,83
 403 759 403 759 453 759 c 0,84,85
 474 759 474 759 544 756 c 0,86,87
 563 756 563 756 599 754 c 0,88,89
 628 752 628 752 653 744 c 1,90,91
 657 713 657 713 670 629 c 2,92,-1
 682 556 l 1,93,-1
 682 505 l 1,0,1
EndSplineSet
EndChar
StartChar: U
Encoding: 85 85 55
Width: 691
GlyphClass: 2
Flags: W
Fore
709 667 m 0,0,1
 709 634 709 634 696 630 c 0,2,3
 675 624 675 624 632 612 c 1,4,5
 634 619 634 619 641 455 c 0,6,7
 641 440 641 440 639 369 c 0,8,9
 628 75 628 75 372 75 c 0,10,11
 343 75 343 75 278 97 c 0,12,13
 134 146 134 146 120 383 c 0,14,15
 116 437 116 437 106 589 c 1,16,17
 99 595 99 595 83 597 c 0,18,19
 62 600 62 600 58 601 c 2,20,21
 47 601 47 601 35 610 c 1,22,23
 32 621 32 621 32 626 c 2,24,-1
 32 727 l 1,25,-1
 153 734 l 2,26,27
 158 734 158 734 171 731.5 c 128,-1,28
 184 729 184 729 189 729 c 0,29,30
 196 729 196 729 212 731.5 c 128,-1,31
 228 734 228 734 235 734 c 0,32,33
 247 734 247 734 260 733 c 128,-1,34
 273 732 273 732 335 729 c 0,35,36
 346 728 346 728 350 721.5 c 128,-1,37
 354 715 354 715 355 697 c 0,38,39
 354 682 354 682 355 647 c 0,40,41
 355 641 355 641 357 626.5 c 128,-1,42
 359 612 359 612 359 606 c 2,43,-1
 359 580 l 1,44,45
 304 567 304 567 282 555 c 1,46,47
 281 534 281 534 285 478 c 0,48,49
 290 452 290 452 297 383 c 0,50,51
 309 207 309 207 389 207 c 0,52,53
 409 207 409 207 471 237 c 0,54,55
 506 253 506 253 517 304 c 0,56,57
 536 392 536 392 536 422 c 2,58,-1
 536 568 l 1,59,60
 506 567 506 567 480 567 c 256,61,62
 454 567 454 567 432 568 c 1,63,-1
 432 601 l 1,64,65
 432 575 432 575 437 638 c 0,66,67
 441 698 441 698 442 719 c 1,68,69
 453 723 453 723 480 724 c 0,70,71
 511 725 511 725 521 725 c 1,72,-1
 670 748 l 1,73,74
 674 747 674 747 694 744 c 0,75,76
 709 741 709 741 709 667 c 0,0,1
EndSplineSet
EndChar
StartChar: V
Encoding: 86 86 56
Width: 649
GlyphClass: 2
Flags: W
Fore
682 677 m 0,0,1
 682 639 682 639 676 637 c 1,2,-1
 631 633 l 2,3,4
 599 630 599 630 594 619 c 0,5,6
 560 545 560 545 480 339 c 0,7,8
 468 309 468 309 448 235 c 0,9,10
 429 167 429 167 413 130 c 1,11,12
 391 130 391 130 346 132 c 0,13,14
 307 134 307 134 287 155 c 0,15,16
 284 158 284 158 213 346 c 0,17,18
 209 356 209 356 162 471 c 0,19,20
 126 558 126 558 112 612 c 1,21,22
 98 613 98 613 74 609 c 0,23,24
 47 604 47 604 36 604 c 0,25,26
 20 604 20 604 20 617 c 0,27,28
 20 627 20 627 24 647 c 128,-1,29
 28 667 28 667 29 676 c 0,30,31
 30 690 30 690 30 722 c 1,32,33
 33 726 33 726 37 729 c 1,34,35
 51 729 51 729 81.5 732 c 128,-1,36
 112 735 112 735 128 735 c 0,37,38
 184 734 184 734 237 739 c 0,39,40
 266 741 266 741 340 745 c 1,41,42
 343 740 343 740 347 731 c 1,43,44
 348 722 348 722 352.5 698.5 c 128,-1,45
 357 675 357 675 357 665 c 2,46,-1
 357 637 l 1,47,48
 305 629 305 629 275 621 c 1,49,-1
 390 364 l 1,50,51
 424 426 424 426 433 452 c 0,52,53
 480 583 480 583 500 635 c 1,54,55
 486 636 486 636 463 630.5 c 128,-1,56
 440 625 440 625 430 625 c 2,57,-1
 409 625 l 1,58,59
 409 627 409 627 408 631 c 128,-1,60
 407 635 407 635 407 637 c 0,61,62
 407 645 407 645 410 661 c 128,-1,63
 413 677 413 677 413 685 c 0,64,65
 413 706 413 706 410 733 c 1,66,67
 413 736 413 736 419 740 c 1,68,69
 518 743 518 743 674 747 c 1,70,71
 682 730 682 730 682 677 c 0,0,1
EndSplineSet
EndChar
StartChar: W
Encoding: 87 87 57
Width: 931
GlyphClass: 2
Flags: W
Fore
964 610 m 0,0,1
 964 600 964 600 958 594 c 1,2,3
 931 593 931 593 879 583 c 0,4,5
 872 581 872 581 860 546 c 0,6,7
 846 490 846 490 817 376 c 0,8,9
 805 331 805 331 775 217 c 0,10,11
 771 200 771 200 762 164 c 1,12,13
 761 150 761 150 749 126 c 1,14,15
 739 116 739 116 683 108 c 2,16,-1
 583 93 l 1,17,-1
 574 96 l 1,18,19
 538 173 538 173 472 291 c 1,20,21
 433 230 433 230 410 132 c 1,22,23
 407 130 407 130 403 126 c 1,24,25
 371 118 371 118 287 98 c 1,26,27
 272 126 272 126 258 186 c 2,28,-1
 236 278 l 2,29,30
 228 308 228 308 197 382 c 0,31,32
 184 410 184 410 153 482 c 0,33,34
 141 511 141 511 110 609 c 1,35,36
 84 600 84 600 30 582 c 1,37,38
 28 583 28 583 23 587 c 1,39,40
 18 610 18 610 18 633 c 1,41,42
 18 622 18 622 26 734 c 1,43,44
 59 748 59 748 63 748 c 2,45,-1
 139 748 l 2,46,47
 148 748 148 748 166.5 750 c 128,-1,48
 185 752 185 752 194 752 c 0,49,50
 197 752 197 752 204.5 754.5 c 128,-1,51
 212 757 212 757 215 757 c 1,52,53
 200 757 200 757 232.5 758 c 128,-1,54
 265 759 265 759 274 759 c 0,55,56
 297 758 297 758 315 754 c 1,57,58
 322 751 322 751 330 715 c 0,59,60
 331 711 331 711 338 686 c 0,61,62
 345 665 345 665 345 661 c 0,63,64
 345 650 345 650 319 642 c 0,65,66
 299 636 299 636 288 636 c 1,67,68
 286 635 286 635 286 632 c 256,69,70
 286 629 286 629 306 570 c 0,71,72
 324 515 324 515 349 425 c 0,73,74
 357 395 357 395 369 370 c 1,75,76
 390 393 390 393 426 488 c 0,77,78
 437 517 437 517 470 585 c 1,79,80
 453 590 453 590 418 602 c 1,81,82
 423 651 423 651 423 678 c 0,83,84
 423 699 423 699 421 713 c 1,85,86
 452 729 452 729 499 729 c 0,87,88
 505 729 505 729 526 728 c 2,89,-1
 553 727 l 2,90,91
 564 727 564 727 588 734 c 128,-1,92
 612 741 612 741 623 741 c 0,93,94
 639 741 639 741 656 733 c 0,95,96
 658 732 658 732 674.5 686 c 128,-1,97
 691 640 691 640 691 633 c 2,98,-1
 691 619 l 1,99,100
 679 614 679 614 666 614 c 0,101,102
 661 614 661 614 652.5 616 c 128,-1,103
 644 618 644 618 639 618 c 2,104,-1
 608 618 l 1,105,106
 607 617 607 617 607 614 c 0,107,108
 607 595 607 595 641 486 c 0,109,110
 671 389 671 389 681 366 c 1,111,112
 708 423 708 423 729 481 c 2,113,-1
 777 614 l 1,114,115
 770 620 770 620 759 619 c 0,116,117
 746 618 746 618 743 619 c 0,118,119
 736 622 736 622 736 633 c 0,120,121
 736 642 736 642 741 684.5 c 128,-1,122
 746 727 746 727 748 733 c 1,123,124
 758 733 758 733 778 734.5 c 128,-1,125
 798 736 798 736 808 736 c 256,126,127
 818 736 818 736 837.5 734 c 128,-1,128
 857 732 857 732 867 732 c 1,129,130
 857 732 857 732 947 741 c 1,131,132
 953 730 953 730 957 660 c 0,133,134
 957 652 957 652 960.5 635.5 c 128,-1,135
 964 619 964 619 964 610 c 0,0,1
EndSplineSet
EndChar
StartChar: X
Encoding: 88 88 58
Width: 672
GlyphClass: 2
Flags: W
Fore
702 177 m 0,0,1
 700 133 700 133 700 123 c 1,2,3
 695 123 695 123 686 121.5 c 128,-1,4
 677 120 677 120 672 120 c 0,5,6
 623 121 623 121 497 118 c 0,7,8
 479 118 479 118 433 110 c 2,9,-1
 390 102 l 1,10,11
 373 102 373 102 373 168 c 0,12,13
 373 197 373 197 380.5 206 c 128,-1,14
 388 215 388 215 418 226 c 1,15,16
 383 262 383 262 313 336 c 1,17,18
 270 266 270 266 270 235 c 0,19,20
 270 227 270 227 280 227 c 0,21,22
 285 227 285 227 295.5 228 c 128,-1,23
 306 229 306 229 311 229 c 0,24,25
 335 229 335 229 334 211 c 2,26,-1
 329 128 l 2,27,28
 328 118 328 118 317 118 c 0,29,30
 314 118 314 118 260 124 c 2,31,-1
 203 130 l 1,32,-1
 197 130 l 2,33,34
 150 130 150 130 65 140 c 0,35,36
 53 141 53 141 28 150 c 1,37,38
 26 161 26 161 40 224 c 0,39,40
 42 234 42 234 45 242 c 0,41,42
 49 254 49 254 55 256 c 1,43,44
 81 258 81 258 130 264 c 0,45,46
 136 265 136 265 181 338 c 0,47,48
 232 420 232 420 232 428 c 0,49,50
 232 431 232 431 217.5 450 c 128,-1,51
 203 469 203 469 201 473 c 0,52,53
 193 489 193 489 160 555 c 0,54,55
 152 573 152 573 136 608 c 0,56,57
 114 652 114 652 87 652 c 0,58,59
 81 652 81 652 70 651 c 128,-1,60
 59 650 59 650 53 650 c 0,61,62
 41 650 41 650 41 665 c 0,63,64
 41 676 41 676 45 699 c 2,65,66
 45 756 45 756 53 763 c 1,67,68
 66 759 66 759 147 759 c 0,69,70
 153 759 153 759 166.5 761.5 c 128,-1,71
 180 764 180 764 186 764 c 0,72,73
 196 764 196 764 217.5 761.5 c 128,-1,74
 239 759 239 759 249 759 c 0,75,76
 271 759 271 759 331 753 c 1,77,78
 346 749 346 749 347 740 c 0,79,80
 352 710 352 710 352 668 c 0,81,82
 352 665 352 665 349.5 660 c 128,-1,83
 347 655 347 655 347 653 c 1,84,85
 340 649 340 649 317 645 c 0,86,87
 298 642 298 642 298 639 c 0,88,89
 298 630 298 630 343 584.5 c 128,-1,90
 388 539 388 539 403 529 c 1,91,92
 431 569 431 569 473 644 c 1,93,94
 462 648 462 648 406 648 c 0,95,96
 395 648 395 648 395 659 c 0,97,98
 395 680 395 680 419 749 c 0,99,100
 423 759 423 759 433 759 c 2,101,-1
 676 750 l 2,102,103
 695 749 695 749 698 719 c 1,104,105
 697 730 697 730 697 673 c 1,106,107
 663 662 663 662 606 651 c 1,108,109
 584 628 584 628 560 573 c 0,110,111
 549 548 549 548 517 496 c 2,112,-1
 495 460 l 1,113,114
 495 456 495 456 530 410 c 2,115,-1
 565 363 l 1,116,117
 581 333 581 333 613 270 c 0,118,119
 618 256 618 256 633 229 c 1,120,121
 661 236 661 236 688 236 c 2,122,-1
 694 236 l 2,123,124
 697 236 697 236 701 224 c 1,125,126
 702 234 702 234 702 177 c 0,0,1
EndSplineSet
EndChar
StartChar: Y
Encoding: 89 89 59
Width: 672
GlyphClass: 2
Flags: W
Fore
720 669 m 1,0,1
 692 659 692 659 656 645 c 1,2,3
 643 636 643 636 614 605 c 0,4,5
 613 604 613 604 563 507 c 1,6,7
 550 489 550 489 526 451 c 0,8,9
 491 395 491 395 491 378 c 0,10,11
 491 356 491 356 499 312 c 0,12,13
 507 262 507 262 517 254 c 1,14,15
 574 266 574 266 586 266 c 0,16,17
 596 266 596 266 605 220 c 0,18,19
 612 182 612 182 613 155 c 1,20,21
 607 149 607 149 587 145 c 0,22,23
 562 140 562 140 558 138 c 0,24,25
 524 123 524 123 489 120 c 0,26,27
 418 114 418 114 367 101 c 0,28,29
 334 89 334 89 219 75 c 1,30,31
 216 76 216 76 212 80 c 1,32,33
 180 197 180 197 180 187 c 1,34,35
 180 198 180 198 187 201 c 0,36,37
 235 216 235 216 321 249 c 1,38,39
 317 305 317 305 304 410 c 1,40,41
 302 417 302 417 285 428 c 0,42,43
 265 441 265 441 262 444 c 2,44,-1
 180 524 l 2,45,46
 139 564 139 564 108 603 c 0,47,48
 99 614 99 614 92 614 c 0,49,50
 73 614 73 614 28 593 c 1,51,52
 28 594 28 594 24.5 598.5 c 128,-1,53
 21 603 21 603 21 606 c 2,54,-1
 21 616 l 2,55,56
 22 628 22 628 22 641 c 0,57,58
 22 665 22 665 22 683 c 0,59,60
 21 709 21 709 18 727 c 1,61,62
 30 737 30 737 77 739 c 0,63,64
 100 740 100 740 146 741 c 1,65,66
 218 754 218 754 223 754 c 0,67,68
 226 754 226 754 261 753 c 2,69,-1
 298 752 l 2,70,71
 314 752 314 752 339 759 c 2,72,-1
 363 766 l 1,73,-1
 379 766 l 1,74,75
 380 752 380 752 385.5 719.5 c 128,-1,76
 391 687 391 687 391 671 c 0,77,78
 391 661 391 661 365 653 c 0,79,80
 346 649 346 649 327 644 c 1,81,82
 347 602 347 602 406 525 c 1,83,84
 438 554 438 554 477 640 c 1,85,-1
 475 643 l 1,86,87
 468 643 468 643 453.5 641 c 128,-1,88
 439 639 439 639 432 639 c 0,89,90
 418 639 418 639 418 646 c 0,91,92
 418 658 418 658 422 687 c 0,93,94
 425 712 425 712 424 730 c 0,95,96
 423 745 423 745 433 751 c 1,97,98
 479 757 479 757 583 764 c 0,99,100
 619 763 619 763 693 766 c 1,101,-1
 720 669 l 1,0,1
EndSplineSet
EndChar
StartChar: Z
Encoding: 90 90 60
Width: 585
GlyphClass: 2
Flags: W
Fore
604 698 m 1,0,1
 604 686 604 686 563 649 c 0,2,3
 521 599 521 599 416 466 c 0,4,5
 380 416 380 416 284 287 c 1,6,7
 288 279 288 279 318 279 c 0,8,9
 335 279 335 279 368.5 286 c 128,-1,10
 402 293 402 293 419 293 c 0,11,12
 422 293 422 293 426.5 292 c 128,-1,13
 431 291 431 291 434 291 c 0,14,15
 451 291 451 291 454 315 c 0,16,17
 454 351 454 351 454 352 c 0,18,19
 454 367 454 367 460 370 c 0,20,21
 477 380 477 380 518 391 c 0,22,23
 552 400 552 400 558 400 c 0,24,25
 563 400 563 400 568 393 c 128,-1,26
 573 386 573 386 573 381 c 2,27,-1
 573 269 l 2,28,29
 573 266 573 266 576 208 c 2,30,-1
 579 147 l 2,31,32
 579 124 579 124 576 116 c 0,33,34
 570 105 570 105 549 105 c 2,35,-1
 487 108 l 2,36,37
 281 118 281 118 124 118 c 0,38,39
 113 118 113 118 92 114.5 c 128,-1,40
 71 111 71 111 60 111 c 0,41,42
 55 111 55 111 44 112.5 c 128,-1,43
 33 114 33 114 28 114 c 1,44,45
 25 125 25 125 25 143 c 0,46,47
 25 261 25 261 30 279 c 1,48,49
 44 294 44 294 79 336 c 0,50,51
 106 370 106 370 178 458 c 0,52,53
 231 521 231 521 338 636 c 0,54,55
 340 639 340 639 346 650 c 1,56,57
 281 646 281 646 249 646 c 0,58,59
 232 647 232 647 199 648 c 0,60,61
 165 649 165 649 143 639 c 1,62,63
 145 610 145 610 151 553 c 0,64,65
 151 550 151 550 154 541 c 128,-1,66
 157 532 157 532 157 529 c 2,67,-1
 157 514 l 1,68,69
 152 511 152 511 142 511 c 1,70,-1
 126 515 l 2,71,72
 107 518 107 518 93 519 c 0,73,74
 34 521 34 521 34 538 c 2,75,-1
 34 747 l 1,76,77
 38 748 38 748 44 751 c 1,78,79
 90 751 90 751 119 753 c 2,80,-1
 272 763 l 1,81,-1
 330 763 l 2,82,83
 340 763 340 763 361 765.5 c 128,-1,84
 382 768 382 768 392 768 c 256,85,86
 402 768 402 768 422.5 765.5 c 128,-1,87
 443 763 443 763 453 763 c 0,88,89
 456 763 456 763 493 765 c 2,90,-1
 533 766 l 2,91,92
 537 766 537 766 546.5 768 c 128,-1,93
 556 770 556 770 560 770 c 0,94,95
 574 770 574 770 604 698 c 1,0,1
EndSplineSet
EndChar
StartChar: bracketleft
Encoding: 91 91 61
Width: 381
GlyphClass: 2
Flags: W
Fore
408 785 m 0,0,1
 408 751 408 751 398 681 c 0,2,3
 396 666 396 666 382 666 c 0,4,5
 379 666 379 666 348 668.5 c 128,-1,6
 317 671 317 671 315 671 c 0,7,8
 291 671 291 671 257 661 c 1,9,10
 255 658 255 658 255 644 c 0,11,12
 253 515 253 515 255 513 c 1,13,-1
 221 135 l 1,14,15
 221 139 221 139 223 68.5 c 128,-1,16
 225 -2 225 -2 225 -37 c 0,17,18
 225 -39 225 -39 226.5 -46.5 c 128,-1,19
 228 -54 228 -54 228 -59 c 1,20,21
 277 -59 277 -59 317 -57.5 c 128,-1,22
 357 -56 357 -56 351 -56 c 0,23,24
 350 -56 350 -56 384 -60 c 1,25,26
 392 -82 392 -82 397 -142 c 0,27,28
 398 -147 398 -147 402 -161.5 c 128,-1,29
 406 -176 406 -176 406 -178 c 2,30,-1
 406 -184 l 1,31,32
 397 -188 397 -188 375 -186 c 0,33,34
 345 -184 345 -184 339 -185 c 1,35,36
 349 -184 349 -184 260 -184 c 0,37,38
 257 -184 257 -184 202.5 -187.5 c 128,-1,39
 148 -191 148 -191 145 -191 c 0,40,41
 121 -191 121 -191 91 -185 c 1,42,43
 87 -124 87 -124 87 -96 c 0,44,45
 87 -93 87 -93 91.5 -1.5 c 128,-1,46
 96 90 96 90 96 93 c 2,47,-1
 96 273 l 1,48,49
 96 272 96 272 99 311 c 128,-1,50
 102 350 102 350 103 371 c 2,51,-1
 103 516 l 2,52,53
 103 517 103 517 106.5 557.5 c 128,-1,54
 110 598 110 598 111 615 c 0,55,56
 111 651 111 651 112 686 c 0,57,58
 114 730 114 730 126 757 c 0,59,60
 132 770 132 770 174 776 c 2,61,-1
 309 797 l 2,62,63
 320 798 320 798 375 798 c 0,64,65
 408 798 408 798 408 785 c 0,0,1
EndSplineSet
EndChar
StartChar: backslash
Encoding: 92 92 62
Width: 630
GlyphClass: 2
Flags: W
Fore
675 118 m 0,0,1
 675 115 675 115 638 71 c 0,2,3
 530 -59 530 -59 485 -59 c 0,4,5
 477 -59 477 -59 471 -49 c 2,6,-1
 455 -22 l 2,7,8
 420 41 420 41 390 89 c 0,9,10
 351 151 351 151 256 312 c 0,11,12
 228 367 228 367 154 510 c 2,13,-1
 107 601 l 2,14,15
 84 649 84 649 73 686 c 1,16,17
 83 692 83 692 110 693 c 2,18,-1
 156 694 l 2,19,20
 158 694 158 694 163.5 696 c 128,-1,21
 169 698 169 698 172 698 c 0,22,23
 187 698 187 698 237 690.5 c 128,-1,24
 287 683 287 683 295 678 c 0,25,26
 322 662 322 662 365 593 c 0,27,28
 400 537 400 537 491 393 c 0,29,30
 495 386 495 386 528 340 c 0,31,32
 572 278 572 278 631 183 c 0,33,34
 640 168 640 168 657.5 144 c 128,-1,35
 675 120 675 120 675 118 c 0,0,1
EndSplineSet
EndChar
StartChar: bracketright
Encoding: 93 93 63
Width: 397
GlyphClass: 2
Flags: W
Fore
408 -96 m 0,0,1
 408 -98 408 -98 407 -131 c 0,2,3
 405 -167 405 -167 405 -184 c 1,4,5
 389 -191 389 -191 350 -191 c 0,6,7
 349 -191 349 -191 291 -188 c 0,8,9
 226 -185 226 -185 222 -185 c 0,10,11
 216 -185 216 -185 194 -185 c 0,12,13
 175 -186 175 -186 166 -186 c 0,14,15
 132 -185 132 -185 120 -187 c 128,-1,16
 108 -189 108 -189 106 -189 c 2,17,-1
 92 -189 l 1,18,-1
 90 -187 l 2,19,20
 89 -186 89 -186 89 -182 c 1,21,22
 89 -184 89 -184 94 -156 c 0,23,24
 100 -123 100 -123 105 -73 c 0,25,26
 106 -66 106 -66 111 -60 c 1,27,28
 152 -56 152 -56 144 -56 c 1,29,30
 182 -56 182 -56 263 -61 c 1,31,32
 271 -48 271 -48 271 -19 c 0,33,34
 270 6 270 6 270 31 c 0,35,36
 270 52 270 52 272 94 c 0,37,38
 274 134 274 134 274 135 c 0,39,40
 274 141 274 141 265 246 c 0,41,42
 258 288 258 288 249 371 c 0,43,44
 242 477 242 477 242 563 c 2,45,-1
 242 635 l 2,46,47
 242 653 242 653 239 660 c 1,48,49
 235 662 235 662 212 666.5 c 128,-1,50
 189 671 189 671 180 671 c 0,51,52
 177 671 177 671 146.5 668.5 c 128,-1,53
 116 666 116 666 113 666 c 0,54,55
 100 666 100 666 99 674 c 0,56,57
 87 730 87 730 87 785 c 1,58,-1
 94 797 l 1,59,60
 129 798 129 798 186 798 c 0,61,62
 187 798 187 798 197 794 c 128,-1,63
 207 790 207 790 213 790 c 0,64,65
 241 788 241 788 273 783 c 0,66,67
 297 780 297 780 346 769 c 0,68,69
 355 767 355 767 368 757 c 1,70,71
 376 741 376 741 378 720 c 0,72,73
 392 527 392 527 392 501 c 2,74,-1
 392 366 l 2,75,76
 392 364 392 364 393 344.5 c 128,-1,77
 394 325 394 325 394 322.5 c 128,-1,78
 394 320 394 320 396.5 298 c 128,-1,79
 399 276 399 276 399 273 c 2,80,-1
 399 93 l 2,81,82
 399 90 399 90 403.5 -1.5 c 128,-1,83
 408 -93 408 -93 408 -96 c 0,0,1
EndSplineSet
EndChar
StartChar: underscore
Encoding: 95 95 65
Width: 540
GlyphClass: 2
Flags: W
Fore
579 -102 m 0,0,1
 579 -120 579 -120 570 -120 c 0,2,3
 567 -120 567 -120 564.5 -119 c 128,-1,4
 562 -118 562 -118 560 -118 c 0,5,6
 557 -118 557 -118 553 -123.5 c 128,-1,7
 549 -129 549 -129 546 -129 c 0,8,9
 534 -129 534 -129 394 -141 c 0,10,11
 392 -141 392 -141 380 -139.5 c 128,-1,12
 368 -138 368 -138 366 -138 c 0,13,14
 356 -138 356 -138 254 -151 c 128,-1,15
 152 -164 152 -164 108 -164 c 0,16,17
 74 -164 74 -164 51 -158 c 0,18,19
 46 -157 46 -157 46 -146 c 0,20,21
 46 -108 46 -108 44 -87 c 0,22,23
 41 -56 41 -56 41 -62 c 1,24,-1
 41 -13 l 1,25,26
 150 -4 150 -4 364 27 c 0,27,28
 422 39 422 39 457 39 c 0,29,30
 521 39 521 39 553 34 c 0,31,32
 565 32 565 32 567 18 c 0,33,34
 568 -13 568 -13 573 -76 c 0,35,36
 573 -79 573 -79 576 -89 c 128,-1,37
 579 -99 579 -99 579 -102 c 0,0,1
EndSplineSet
EndChar
StartChar: a
Encoding: 97 97 66
Width: 560
GlyphClass: 2
Flags: W
Fore
591 130 m 0,0,1
 591 77 591 77 531 43 c 0,2,3
 484 16 484 16 440 16 c 2,4,-1
 431 16 l 2,5,6
 420 16 420 16 353 70 c 1,7,8
 339 70 339 70 306 59 c 128,-1,9
 273 48 273 48 259 48 c 0,10,11
 256 48 256 48 217 46 c 2,12,-1
 175 43 l 2,13,14
 131 43 131 43 106.5 59 c 128,-1,15
 82 75 82 75 60.5 114.5 c 128,-1,16
 39 154 39 154 39 181 c 0,17,18
 39 237 39 237 53 252 c 0,19,20
 104 307 104 307 244 349 c 0,21,22
 282 360 282 360 292 368 c 0,23,24
 307 380 307 380 307 412 c 0,25,26
 307 434 307 434 269 451 c 0,27,28
 240 464 240 464 222 464 c 0,29,30
 209 464 209 464 195 462 c 1,31,32
 220 437 220 437 220 404 c 0,33,34
 220 388 220 388 197 365 c 128,-1,35
 174 342 174 342 158 337 c 128,-1,36
 142 332 142 332 120 332 c 0,37,38
 75 332 75 332 47.5 363.5 c 128,-1,39
 20 395 20 395 20 440 c 0,40,41
 20 509 20 509 144 544 c 0,42,43
 229 568 229 568 311 568 c 0,44,45
 401 568 401 568 439 512 c 0,46,47
 471 466 471 466 471 372 c 0,48,49
 471 356 471 356 469.5 323 c 128,-1,50
 468 290 468 290 468 274 c 2,51,-1
 468 187 l 2,52,53
 468 180 468 180 475 172 c 128,-1,54
 482 164 482 164 489 164 c 0,55,56
 499 164 499 164 502.5 196.5 c 128,-1,57
 506 229 506 229 508.5 232 c 128,-1,58
 511 235 511 235 560 259 c 1,59,-1
 568 259 l 1,60,61
 591 202 591 202 591 130 c 0,0,1
352 171 m 1,62,-1
 352 181 l 2,63,64
 352 220 352 220 342 256 c 0,65,66
 337 274 337 274 331 286 c 1,67,68
 312 279 312 279 274 265 c 0,69,70
 227 245 227 245 227 223 c 256,71,72
 227 201 227 201 280 183 c 0,73,74
 323 168 323 168 343 168 c 0,75,76
 349 168 349 168 352 171 c 1,62,-1
EndSplineSet
EndChar
StartChar: b
Encoding: 98 98 67
Width: 580
GlyphClass: 2
Flags: W
Fore
618 257 m 0,0,1
 618 173 618 173 591 127 c 0,2,3
 563 77 563 77 489 45 c 0,4,5
 427 18 427 18 375 18 c 0,6,7
 334 18 334 18 274 64 c 1,8,9
 270 41 270 41 261 -9 c 1,10,11
 259 -9 259 -9 146 21 c 1,12,13
 132 96 132 96 116 273.5 c 128,-1,14
 100 451 100 451 78 555 c 1,15,16
 51 555 51 555 50 555 c 0,17,18
 41 555 41 555 34 554 c 1,19,20
 28 554 28 554 30 554 c 1,21,22
 20 554 20 554 21 565 c 2,23,-1
 21 652 l 1,24,25
 37 658 37 658 86 658 c 0,26,27
 130 658 130 658 150 657 c 1,28,29
 210 666 210 666 213 666 c 2,30,-1
 256 666 l 1,31,32
 268 621 268 621 268 545 c 2,33,-1
 268 463 l 1,34,-1
 272 459 l 1,35,36
 322 502 322 502 449 502 c 0,37,38
 454 502 454 502 476.5 494.5 c 128,-1,39
 499 487 499 487 504 484 c 0,40,41
 549 458 549 458 571 426 c 0,42,43
 587 400 587 400 603 343 c 0,44,45
 618 290 618 290 618 257 c 0,0,1
429 261 m 0,46,47
 429 291 429 291 422 323 c 0,48,49
 410 377 410 377 383 377 c 0,50,51
 328 377 328 377 299 316 c 0,52,53
 277 270 277 270 277 224 c 0,54,55
 277 143 277 143 332 143 c 0,56,57
 376 143 376 143 404 181 c 0,58,59
 429 215 429 215 429 261 c 0,46,47
EndSplineSet
EndChar
StartChar: c
Encoding: 99 99 68
Width: 478
GlyphClass: 2
Flags: W
Fore
495 400 m 0,0,1
 495 382 495 382 485 344 c 0,2,3
 480 327 480 327 451 301 c 128,-1,4
 422 275 422 275 405 275 c 2,5,-1
 399 275 l 2,6,7
 386 275 386 275 361.5 288 c 128,-1,8
 337 301 337 301 324 312 c 0,9,10
 300 332 300 332 300 375 c 0,11,12
 300 413 300 413 330 446 c 1,13,14
 327 448 327 448 317 448 c 0,15,16
 289 448 289 448 261 431 c 0,17,18
 242 419 242 419 228 394 c 0,19,20
 222 383 222 383 219 371 c 0,21,22
 211 333 211 333 211 297 c 0,23,24
 211 270 211 270 226 238 c 0,25,26
 246 195 246 195 278 195 c 0,27,28
 296 195 296 195 327 212 c 128,-1,29
 358 229 358 229 359 229 c 0,30,31
 372 229 372 229 433 206 c 0,32,33
 443 202 443 202 443 191 c 0,34,35
 443 171 443 171 421 136.5 c 128,-1,36
 399 102 399 102 381 92 c 0,37,38
 322 60 322 60 296 52 c 0,39,40
 258 39 258 39 203 39 c 0,41,42
 138 39 138 39 94 78 c 0,43,44
 89 82 89 82 77 110 c 0,45,46
 68 131 68 131 55 162 c 0,47,48
 41 205 41 205 41 279 c 0,49,50
 41 382 41 382 87 446 c 0,51,52
 130 506 130 506 228 551 c 0,53,54
 281 575 281 575 333 575 c 0,55,56
 376 575 376 575 418 549 c 0,57,58
 428 543 428 543 453 506 c 0,59,60
 459 499 459 499 483 462 c 0,61,62
 486 457 486 457 490.5 432 c 128,-1,63
 495 407 495 407 495 400 c 0,0,1
EndSplineSet
EndChar
StartChar: d
Encoding: 100 100 69
Width: 570
GlyphClass: 2
Flags: W
Fore
600 46 m 1,0,1
 528 19 528 19 389 -4 c 1,2,3
 380 28 380 28 360 89 c 1,4,5
 335 59 335 59 285.5 38.5 c 128,-1,6
 236 18 236 18 194 18 c 2,7,-1
 158 18 l 2,8,9
 147 18 147 18 101 42 c 1,10,11
 95 47 95 47 85 56 c 0,12,13
 48 81 48 81 31 149 c 0,14,15
 18 200 18 200 18 252 c 0,16,17
 18 265 18 265 29 331 c 0,18,19
 43 415 43 415 79 471 c 0,20,21
 126 545 126 545 199 545 c 0,22,23
 279 545 279 545 359 468 c 1,24,25
 360 468 360 468 362 466 c 1,26,27
 364 468 364 468 364 481 c 0,28,29
 364 528 364 528 358 578 c 1,30,31
 355 582 355 582 332 582 c 0,32,33
 328 582 328 582 319 580.5 c 128,-1,34
 310 579 310 579 306 579 c 0,35,36
 286 579 286 579 280 655 c 2,37,-1
 278 682 l 1,38,39
 378 707 378 707 435 707 c 0,40,41
 440 707 440 707 451 704.5 c 128,-1,42
 462 702 462 702 467 702 c 1,43,44
 455 702 455 702 481.5 704 c 128,-1,45
 508 706 508 706 512 705 c 0,46,47
 519 704 519 704 531 704 c 0,48,49
 535 704 535 704 542 699 c 1,50,51
 566 624 566 624 566 619 c 0,52,53
 566 616 566 616 564.5 614 c 128,-1,54
 563 612 563 612 563 611 c 256,55,56
 563 610 563 610 564 610 c 1,57,58
 546 604 546 604 513 600 c 1,59,60
 513 591 513 591 511 571 c 2,61,-1
 509 549 l 2,62,63
 509 542 509 542 511.5 526.5 c 128,-1,64
 514 511 514 511 514 504 c 2,65,-1
 514 353 l 2,66,67
 515 290 515 290 525 163 c 1,68,69
 535 157 535 157 548 157 c 0,70,71
 553 157 553 157 564.5 158 c 128,-1,72
 576 159 576 159 581 159 c 0,73,74
 589 159 589 159 595 120 c 0,75,76
 600 88 600 88 600 79 c 2,77,-1
 600 46 l 1,0,1
404 304 m 0,78,79
 404 328 404 328 378 355 c 128,-1,80
 352 382 352 382 328 382 c 0,81,82
 312 382 312 382 290.5 373.5 c 128,-1,83
 269 365 269 365 262 353 c 0,84,85
 218 274 218 274 218 224 c 0,86,87
 218 152 218 152 265 152 c 0,88,89
 310 152 310 152 357 205 c 128,-1,90
 404 258 404 258 404 304 c 0,78,79
EndSplineSet
EndChar
StartChar: e
Encoding: 101 101 70
Width: 494
GlyphClass: 2
Flags: W
Fore
509 164 m 0,0,1
 509 153 509 153 471 118 c 0,2,3
 438 88 438 88 422 79 c 0,4,5
 357 43 357 43 317 43 c 0,6,7
 314 43 314 43 309.5 41.5 c 128,-1,8
 305 40 305 40 303 40 c 0,9,10
 282 39 282 39 228 39 c 0,11,12
 209 39 209 39 172 55 c 0,13,14
 139 69 139 69 121 83 c 0,15,16
 18 164 18 164 18 275 c 0,17,18
 18 416 18 416 76 495 c 0,19,20
 143 584 143 584 278 584 c 0,21,22
 336 584 336 584 405 547 c 0,23,24
 460 518 460 518 488 436 c 0,25,26
 509 376 509 376 509 315 c 0,27,28
 509 279 509 279 501 278 c 0,29,30
 440 268 440 268 342 268 c 0,31,32
 325 268 325 268 284.5 259 c 128,-1,33
 244 250 244 250 224 250 c 1,34,-1
 220 246 l 1,35,36
 227 226 227 226 252 206 c 128,-1,37
 277 186 277 186 298 186 c 0,38,39
 341 186 341 186 400 219 c 2,40,-1
 458 252 l 1,41,42
 465 252 465 252 487 213 c 128,-1,43
 509 174 509 174 509 164 c 0,0,1
325 382 m 1,44,-1
 325 395 l 2,45,46
 325 424 325 424 299.5 447 c 128,-1,47
 274 470 274 470 245 470 c 0,48,49
 209 470 209 470 186 434 c 0,50,51
 166 403 166 403 166 365 c 0,52,53
 166 358 166 358 173 339 c 1,54,-1
 181 339 l 1,55,56
 233 355 233 355 325 382 c 1,44,-1
EndSplineSet
EndChar
StartChar: f
Encoding: 102 102 71
Width: 511
GlyphClass: 2
Flags: W
Fore
548 572 m 0,0,1
 548 530 548 530 503 489 c 128,-1,2
 458 448 458 448 415 448 c 0,3,4
 371 448 371 448 341.5 481.5 c 128,-1,5
 312 515 312 515 316 559 c 1,6,7
 315 558 315 558 312 555 c 1,8,9
 298 498 298 498 298 465 c 0,10,11
 298 434 298 434 311 434 c 0,12,13
 366 436 366 436 377 436 c 1,14,15
 386 389 386 389 386 362 c 1,16,17
 386 366 386 366 383 333 c 1,18,19
 350 324 350 324 293 303 c 1,20,21
 303 241 303 241 322 133 c 1,22,23
 324 130 324 130 332 130 c 0,24,25
 339 130 339 130 354.5 132 c 128,-1,26
 370 134 370 134 377 134 c 0,27,28
 380 134 380 134 384.5 128.5 c 128,-1,29
 389 123 389 123 391 122 c 1,30,31
 390 117 390 117 381 61 c 0,32,33
 375 25 375 25 363 -4 c 1,34,-1
 76 -20 l 2,35,36
 74 -20 74 -20 51 -13 c 1,37,38
 49 16 49 16 46 72 c 1,39,40
 68 82 68 82 114 104 c 1,41,42
 109 149 109 149 110 212 c 2,43,-1
 112 321 l 1,44,45
 90 320 90 320 55 328 c 1,46,47
 55 324 55 324 61 390 c 0,48,49
 66 441 66 441 83 441 c 0,50,51
 117 441 117 441 130 438 c 1,52,53
 133 447 133 447 132 458 c 0,54,55
 131 472 131 472 131 485 c 0,56,57
 131 646 131 646 292 697 c 0,58,59
 314 704 314 704 385 704 c 0,60,61
 435 704 435 704 489 663 c 0,62,63
 548 620 548 620 548 572 c 0,0,1
EndSplineSet
EndChar
StartChar: g
Encoding: 103 103 72
Width: 592
GlyphClass: 2
Flags: W
Fore
618 425 m 0,0,1
 618 403 618 403 608 382 c 0,2,3
 605 375 605 375 588 363 c 0,4,5
 544 332 544 332 527 332 c 0,6,7
 525 332 525 332 522 333 c 128,-1,8
 519 334 519 334 517 334 c 0,9,10
 492 334 492 334 483 360 c 0,11,12
 482 365 482 365 475 408 c 0,13,14
 471 434 471 434 458 434 c 0,15,16
 434 434 434 434 434 418 c 0,17,18
 434 417 434 417 445 399.5 c 128,-1,19
 456 382 456 382 458 376 c 0,20,21
 468 343 468 343 468 304 c 0,22,23
 468 299 468 299 466 288 c 0,24,25
 462 274 462 274 462 271 c 0,26,27
 451 188 451 188 370 145 c 0,28,29
 306 111 306 111 226 111 c 0,30,31
 208 111 208 111 180 123.5 c 128,-1,32
 152 136 152 136 144 150 c 1,33,34
 136 147 136 147 136 119 c 0,35,36
 136 70 136 70 182 70 c 0,37,38
 202 70 202 70 224 78 c 0,39,40
 256 90 256 90 280 95 c 0,41,42
 352 111 352 111 392 111 c 0,43,44
 498 111 498 111 498 -6 c 0,45,46
 498 -98 498 -98 403 -147 c 0,47,48
 332 -184 332 -184 244 -184 c 0,49,50
 168 -184 168 -184 130 -149 c 0,51,52
 125 -145 125 -145 117 -129.5 c 128,-1,53
 109 -114 109 -114 109 -109 c 0,54,55
 109 -101 109 -101 133.5 -85.5 c 128,-1,56
 158 -70 158 -70 166 -70 c 1,57,58
 165 -70 165 -70 202 -90.5 c 128,-1,59
 239 -111 239 -111 259 -111 c 0,60,61
 298 -111 298 -111 335 -76.5 c 128,-1,62
 372 -42 372 -42 366 -4 c 1,63,64
 363 0 363 0 353 0 c 0,65,66
 335 0 335 0 270 -29.5 c 128,-1,67
 205 -59 205 -59 183 -59 c 0,68,69
 150 -59 150 -59 104 -28.5 c 128,-1,70
 58 2 58 2 43 32 c 0,71,72
 30 58 30 58 30 100 c 0,73,74
 30 160 30 160 54 189 c 0,75,76
 64 201 64 201 64 203 c 1,77,78
 64 182 64 182 50 224.5 c 128,-1,79
 36 267 36 267 36 286 c 0,80,81
 36 323 36 323 67.5 379 c 128,-1,82
 99 435 99 435 131 460 c 0,83,84
 170 491 170 491 204 506 c 0,85,86
 220 513 220 513 258 521 c 128,-1,87
 296 529 296 529 314 529 c 0,88,89
 336 529 336 529 348 515 c 0,90,91
 360 498 360 498 372 482 c 1,92,93
 419 532 419 532 478 532 c 0,94,95
 534 532 534 532 573 507 c 0,96,97
 618 479 618 479 618 425 c 0,0,1
320 374 m 0,98,99
 320 436 320 436 287 436 c 0,100,101
 285 436 285 436 285.5 435 c 128,-1,102
 286 434 286 434 283 434 c 256,103,104
 280 434 280 434 277 437.5 c 128,-1,105
 274 441 274 441 272 441 c 0,106,107
 251 441 251 441 217 374 c 0,108,109
 191 322 191 322 187 306 c 0,110,111
 182 284 182 284 182 261 c 0,112,113
 182 216 182 216 228 216 c 0,114,115
 275 216 275 216 301 282 c 0,116,117
 320 330 320 330 320 374 c 0,98,99
EndSplineSet
EndChar
StartChar: h
Encoding: 104 104 73
Width: 613
GlyphClass: 2
Flags: W
Fore
657 62 m 1,0,1
 648 54 648 54 642 53 c 0,2,3
 607 48 607 48 519 37 c 0,4,5
 503 36 503 36 460 31 c 0,6,7
 450 30 450 30 414 20 c 0,8,9
 382 11 382 11 373 11 c 0,10,11
 358 11 358 11 355 19 c 1,12,13
 355 38 355 38 354 56 c 0,14,15
 353 65 353 65 348 96 c 1,16,17
 367 106 367 106 407 126 c 1,18,19
 404 193 404 193 392 299 c 0,20,21
 390 321 390 321 364 343.5 c 128,-1,22
 338 366 338 366 315 366 c 256,23,24
 292 366 292 366 269 357 c 0,25,26
 239 345 239 345 239 326 c 0,27,28
 239 284 239 284 254 150 c 1,29,30
 262 150 262 150 277.5 152.5 c 128,-1,31
 293 155 293 155 301 155 c 1,32,-1
 315 144 l 1,33,-1
 318 23 l 1,34,-1
 270 23 l 2,35,36
 266 23 266 23 252.5 26.5 c 128,-1,37
 239 30 239 30 235 31 c 0,38,39
 213 34 213 34 170 34 c 0,40,41
 163 34 163 34 147.5 33 c 128,-1,42
 132 32 132 32 125 32 c 0,43,44
 84 32 84 32 10 48 c 1,45,46
 10 62 10 62 9 89 c 2,47,-1
 7 116 l 2,48,49
 6 129 6 129 42 142 c 0,50,51
 56 147 56 147 83 156 c 1,52,53
 89 184 89 184 89 213 c 2,54,-1
 89 287 l 2,55,56
 90 300 90 300 95 365 c 2,57,-1
 104 490 l 2,58,59
 109 566 109 566 112 594 c 1,60,61
 102 597 102 597 63 599 c 0,62,63
 34 600 34 600 34 610 c 2,64,-1
 34 680 l 1,65,66
 35 681 35 681 42 690 c 1,67,68
 70 691 70 691 118 691 c 0,69,70
 124 691 124 691 147 685 c 128,-1,71
 170 679 170 679 179 678 c 0,72,73
 229 674 229 674 290 665 c 0,74,75
 305 663 305 663 305 636 c 0,76,77
 305 633 305 633 300 570 c 2,78,-1
 295 504 l 2,79,80
 295 487 295 487 299 482 c 1,81,82
 310 487 310 487 329 494 c 2,83,-1
 395 510 l 2,84,85
 403 511 403 511 447 511 c 0,86,87
 515 511 515 511 544 494 c 0,88,89
 555 487 555 487 568 464.5 c 128,-1,90
 581 442 581 442 583 428 c 0,91,92
 593 353 593 353 593 333 c 0,93,94
 593 280 593 280 584 163 c 1,95,96
 594 162 594 162 611 166 c 128,-1,97
 628 170 628 170 636 170 c 0,98,99
 645 170 645 170 653 160 c 1,100,101
 654 127 654 127 657 62 c 1,0,1
EndSplineSet
EndChar
StartChar: i
Encoding: 105 105 74
Width: 352
GlyphClass: 2
Flags: W
Fore
332 579 m 0,0,1
 332 468 332 468 242 468 c 0,2,3
 192 468 192 468 158 492 c 0,4,5
 120 519 120 519 120 568 c 0,6,7
 120 607 120 607 151 649 c 128,-1,8
 182 691 182 691 220 691 c 0,9,10
 241 691 241 691 289 665 c 0,11,12
 332 642 332 642 332 579 c 0,0,1
377 14 m 1,13,14
 328 16 328 16 187 23 c 0,15,16
 98 27 98 27 43 48 c 1,17,-1
 43 64 l 1,18,19
 44 67 44 67 47 72 c 1,20,21
 52 91 52 91 55 123 c 0,22,23
 56 132 56 132 66 142 c 0,24,25
 71 147 71 147 98 154 c 128,-1,26
 125 161 125 161 125 167 c 0,27,28
 125 189 125 189 114 305 c 1,29,-1
 43 305 l 1,30,-1
 43 328 l 2,31,32
 43 340 43 340 50 385 c 128,-1,33
 57 430 57 430 60 437 c 0,34,35
 69 454 69 454 126 454 c 0,36,37
 171 454 171 454 201 452 c 2,38,-1
 260 448 l 2,39,40
 297 444 297 444 301 433 c 0,41,42
 305 417 305 417 309 374 c 0,43,44
 314 195 314 195 311 140 c 1,45,46
 315 136 315 136 317 136 c 0,47,48
 321 136 321 136 332.5 138.5 c 128,-1,49
 344 141 344 141 349 141 c 0,50,51
 363 141 363 141 369 137 c 1,52,53
 377 113 377 113 377 54 c 2,54,-1
 377 14 l 1,13,14
EndSplineSet
EndChar
StartChar: j
Encoding: 106 106 75
Width: 358
GlyphClass: 2
Flags: W
Fore
377 625 m 0,0,1
 377 584 377 584 344.5 541 c 128,-1,2
 312 498 312 498 272 498 c 0,3,4
 234 498 234 498 199 531 c 128,-1,5
 164 564 164 564 164 602 c 0,6,7
 164 643 164 643 192 679.5 c 128,-1,8
 220 716 220 716 260 716 c 1,9,10
 250 716 250 716 295 707 c 0,11,12
 377 691 377 691 377 625 c 0,0,1
380 182 m 0,13,14
 380 71 380 71 365 -4 c 0,15,16
 359 -32 359 -32 328 -81 c 0,17,18
 292 -137 292 -137 264 -158 c 0,19,20
 227 -186 227 -186 170 -186 c 0,21,22
 98 -186 98 -186 50 -151 c 0,23,24
 6 -119 6 -119 1 -95 c 0,25,26
 0 -92 0 -92 0 -59 c 0,27,28
 0 -28 0 -28 1 -24 c 0,29,30
 3 -2 3 -2 40 27.5 c 128,-1,31
 77 57 77 57 99 57 c 0,32,33
 131 57 131 57 153 29 c 128,-1,34
 175 1 175 1 175 -32 c 0,35,36
 175 -41 175 -41 173 -49 c 1,37,-1
 174 -57 l 1,38,39
 192 -46 192 -46 196 -19 c 2,40,-1
 198 17 l 2,41,42
 200 30 200 30 200 39 c 0,43,44
 200 96 200 96 173 346 c 1,45,46
 134 345 134 345 110 348 c 1,47,48
 105 353 105 353 105 356 c 0,49,50
 105 390 105 390 116 472 c 1,51,52
 118 479 118 479 126 485 c 1,53,54
 143 486 143 486 180 489 c 2,55,-1
 218 491 l 2,56,57
 279 491 279 491 318 485 c 1,58,59
 355 371 355 371 364 335 c 0,60,61
 380 268 380 268 380 182 c 0,13,14
EndSplineSet
EndChar
StartChar: k
Encoding: 107 107 76
Width: 594
GlyphClass: 2
Flags: W
Fore
636 19 m 1,0,1
 582 1 582 1 513 -14 c 0,2,3
 497 -17 497 -17 458 -26 c 0,4,5
 453 -27 453 -27 433 -35 c 128,-1,6
 413 -43 413 -43 410 -43 c 0,7,8
 404 -43 404 -43 380.5 -9 c 128,-1,9
 357 25 357 25 357 32 c 0,10,11
 357 33 357 33 374 53 c 128,-1,12
 391 73 391 73 393 78 c 1,13,14
 370 96 370 96 276 164 c 1,15,16
 275 162 275 162 275 159 c 0,17,18
 275 150 275 150 282 129 c 0,19,20
 299 76 299 76 316 33 c 0,21,22
 317 30 317 30 334 4 c 0,23,24
 348 -18 348 -18 348 -22 c 0,25,26
 348 -27 348 -27 342 -32 c 1,27,-1
 136 -32 l 2,28,29
 134 -32 134 -32 103 -31 c 2,30,-1
 69 -30 l 2,31,32
 45 -30 45 -30 39 -13 c 0,33,34
 36 -5 36 -5 36 25 c 0,35,36
 36 65 36 65 42 68 c 0,37,38
 64 81 64 81 105 101 c 1,39,40
 105 102 105 102 93 201 c 0,41,42
 86 260 86 260 86 310 c 2,43,-1
 86 417 l 1,44,45
 86 410 86 410 84 445 c 0,46,47
 85 466 85 466 85 477 c 0,48,49
 84 498 84 498 78 506 c 1,50,51
 46 507 46 507 30 512 c 1,52,-1
 30 530 l 2,53,54
 30 541 30 541 36 586.5 c 128,-1,55
 42 632 42 632 44 633 c 0,56,57
 54 639 54 639 94 639 c 0,58,59
 200 639 200 639 233 624 c 0,60,61
 254 615 254 615 252 578 c 1,62,-1
 290 286 l 1,63,64
 340 340 340 340 366 371 c 1,65,-1
 309 412 l 1,66,-1
 309 420 l 1,67,68
 318 424 318 424 338.5 453 c 128,-1,69
 359 482 359 482 365 482 c 0,70,71
 374 482 374 482 593 433 c 1,72,-1
 598 428 l 2,73,74
 602 423 602 423 602 419 c 1,75,76
 602 429 602 429 579 343 c 1,77,78
 559 351 559 351 524 360 c 0,79,80
 516 362 516 362 499 365 c 1,81,82
 487 351 487 351 458 308 c 0,83,84
 427 261 427 261 427 253 c 0,85,86
 427 249 427 249 570 112 c 1,87,88
 572 111 572 111 584 111 c 0,89,90
 590 111 590 111 601 113.5 c 128,-1,91
 612 116 612 116 618 116 c 256,92,93
 624 116 624 116 636 104 c 1,94,-1
 636 19 l 1,0,1
EndSplineSet
EndChar
StartChar: l
Encoding: 108 108 77
Width: 322
GlyphClass: 2
Flags: W
Fore
345 81 m 1,0,1
 342 36 342 36 340 19 c 0,2,3
 335 -20 335 -20 327 -39 c 1,4,5
 294 -35 294 -35 237 -34 c 0,6,7
 196 -33 196 -33 133 -34 c 2,8,-1
 31 -35 l 1,9,-1
 28 -38 l 1,10,-1
 28 -15 l 2,11,12
 28 33 28 33 39 49 c 0,13,14
 44 57 44 57 88 77 c 1,15,16
 86 128 86 128 86 217 c 2,17,-1
 86 424 l 2,18,19
 86 437 86 437 89.5 462 c 128,-1,20
 93 487 93 487 93 500 c 0,21,22
 93 511 93 511 86 511 c 0,23,24
 84 511 84 511 61 510 c 2,25,-1
 35 509 l 2,26,27
 29 509 29 509 18 519 c 1,28,29
 30 554 30 554 53 622 c 1,30,31
 91 618 91 618 115 620 c 1,32,33
 125 625 125 625 131 625 c 0,34,35
 179 625 179 625 282 608 c 0,36,37
 293 606 293 606 293 594 c 0,38,39
 293 575 293 575 290 542 c 0,40,41
 287 505 287 505 287 490 c 0,42,43
 286 455 286 455 280 334 c 2,44,-1
 275 238 l 1,45,-1
 275 155 l 2,46,47
 275 106 275 106 277 84 c 1,48,49
 287 80 287 80 294 80 c 0,50,51
 299 80 299 80 308.5 83 c 128,-1,52
 318 86 318 86 324 86 c 0,53,54
 332 86 332 86 345 81 c 1,0,1
EndSplineSet
EndChar
StartChar: m
Encoding: 109 109 78
Width: 904
GlyphClass: 2
Flags: W
Fore
936 81 m 0,0,1
 936 54 936 54 929 42 c 1,2,3
 860 25 860 25 735 25 c 0,4,5
 728 25 728 25 712.5 26 c 128,-1,6
 697 27 697 27 690 27 c 128,-1,7
 683 27 683 27 667.5 32 c 128,-1,8
 652 37 652 37 648 37 c 1,9,-1
 648 126 l 2,10,11
 648 151 648 151 659 161 c 0,12,13
 667 168 667 168 700 183 c 1,14,15
 693 229 693 229 683 280 c 0,16,17
 670 348 670 348 666 360 c 0,18,19
 649 416 649 416 622 416 c 0,20,21
 591 416 591 416 574 377 c 0,22,23
 561 347 561 347 561 311 c 1,24,25
 561 334 561 334 562 285 c 0,26,27
 563 241 563 241 564 208 c 0,28,29
 564 197 564 197 571 147 c 1,30,31
 572 145 572 145 579 145 c 0,32,33
 593 145 593 145 611 150 c 1,34,35
 617 128 617 128 616 101 c 2,36,-1
 614 56 l 2,37,38
 614 54 614 54 611 48 c 1,39,-1
 518 52 l 2,40,41
 515 52 515 52 485 51 c 2,42,-1
 452 50 l 2,43,44
 443 50 443 50 426.5 47.5 c 128,-1,45
 410 45 410 45 402 45 c 0,46,47
 364 45 364 45 355 60 c 0,48,49
 350 68 350 68 350 108 c 2,50,-1
 350 140 l 1,51,52
 379 153 379 153 398 163 c 1,53,54
 394 226 394 226 387 310 c 0,55,56
 378 416 378 416 326 416 c 0,57,58
 304 416 304 416 273 390 c 1,59,60
 273 389 273 389 273 380 c 0,61,62
 275 328 275 328 275 235 c 0,63,64
 275 172 275 172 276 181 c 1,65,66
 275 176 275 176 277.5 164.5 c 128,-1,67
 280 153 280 153 280 149 c 1,68,69
 284 144 284 144 298.5 144.5 c 128,-1,70
 313 145 313 145 316 142 c 1,71,72
 316 140 316 140 320.5 133.5 c 128,-1,73
 325 127 325 127 325 124 c 0,74,75
 325 34 325 34 303 34 c 1,76,77
 316 34 316 34 285.5 35.5 c 128,-1,78
 255 37 255 37 249 37 c 0,79,80
 201 35 201 35 115 39 c 0,81,82
 45 42 45 42 34 50 c 1,83,84
 36 72 36 72 41 108 c 0,85,86
 44 119 44 119 49 122 c 1,87,88
 73 130 73 130 123 147 c 1,89,-1
 103 312 l 2,90,91
 89 418 89 418 82 418 c 256,92,93
 75 418 75 418 62 417 c 128,-1,94
 49 416 49 416 42 416 c 0,95,96
 33 416 33 416 27 421 c 1,97,98
 27 429 27 429 28 442 c 128,-1,99
 29 455 29 455 29 460 c 0,100,101
 29 474 29 474 30 489 c 128,-1,102
 31 504 31 504 37 515 c 1,103,104
 78 516 78 516 145 531.5 c 128,-1,105
 212 547 212 547 242 547 c 2,106,-1
 254 547 l 1,107,108
 256 525 256 525 263 484 c 1,109,110
 318 541 318 541 369 560 c 0,111,112
 396 570 396 570 428 570 c 0,113,114
 465 570 465 570 482 545 c 0,115,116
 487 537 487 537 513 475 c 1,117,118
 550 504 550 504 600 526 c 0,119,120
 656 550 656 550 697 550 c 0,121,122
 762 550 762 550 797 471 c 0,123,124
 807 448 807 448 831 340 c 0,125,126
 836 321 836 321 840 299 c 1,127,128
 839 272 839 272 843 223 c 1,129,130
 845 215 845 215 852 203 c 1,131,132
 876 204 876 204 909 201 c 0,133,134
 921 200 921 200 924 188 c 0,135,136
 936 134 936 134 936 81 c 0,0,1
EndSplineSet
EndChar
StartChar: n
Encoding: 110 110 79
Width: 640
GlyphClass: 2
Flags: W
Fore
664 191 m 0,0,1
 664 178 664 178 659 134 c 0,2,3
 655 99 655 99 658 76 c 0,4,5
 658 73 658 73 657 67.5 c 128,-1,6
 656 62 656 62 656 59 c 1,7,8
 627 57 627 57 578 57 c 0,9,10
 574 57 574 57 564.5 54.5 c 128,-1,11
 555 52 555 52 551.5 52 c 128,-1,12
 548 52 548 52 481 47 c 2,13,-1
 411 41 l 2,14,15
 408 41 408 41 400.5 43 c 128,-1,16
 393 45 393 45 390 45 c 0,17,18
 380 45 380 45 371 50 c 1,19,20
 364 84 364 84 364 119 c 0,21,22
 364 124 364 124 365 134.5 c 128,-1,23
 366 145 366 145 366 150 c 1,24,25
 400 157 400 157 427 177 c 1,26,-1
 427 246 l 2,27,28
 427 260 427 260 416 308 c 0,29,30
 401 373 401 373 397 382 c 0,31,32
 377 425 377 425 333 425 c 0,33,34
 314 425 314 425 291 412 c 128,-1,35
 268 399 268 399 266 381 c 0,36,37
 264 358 264 358 264 329 c 0,38,39
 264 310 264 310 267 273.5 c 128,-1,40
 270 237 270 237 270 218 c 256,41,42
 270 199 270 199 266 183 c 1,43,44
 267 174 267 174 264 154 c 1,45,-1
 331 154 l 1,46,-1
 331 41 l 1,47,-1
 39 50 l 1,48,-1
 35 55 l 1,49,-1
 30 52 l 1,50,-1
 30 133 l 1,51,52
 37 139 37 139 64.5 144.5 c 128,-1,53
 92 150 92 150 100 156 c 1,54,-1
 93 283 l 1,55,-1
 93 355 l 2,56,57
 93 357 93 357 94.5 361.5 c 128,-1,58
 96 366 96 366 96 368 c 1,59,60
 88 369 88 369 23 375 c 1,61,62
 18 387 18 387 18 412 c 1,63,64
 18 392 18 392 19.5 441 c 128,-1,65
 21 490 21 490 21 501 c 1,66,67
 25 505 25 505 96 512 c 0,68,69
 181 520 181 520 169 520 c 1,70,71
 171 520 171 520 174 519 c 128,-1,72
 177 518 177 518 179 518 c 2,73,-1
 186 518 l 1,74,75
 194 487 194 487 197 459 c 1,76,77
 221 504 221 504 280 531 c 0,78,79
 297 539 297 539 341 551.5 c 128,-1,80
 385 564 385 564 399 564 c 0,81,82
 449 564 449 564 503 517 c 0,83,84
 552 475 552 475 572 425 c 0,85,86
 590 381 590 381 593 320 c 0,87,88
 594 285 594 285 597 216 c 1,89,90
 637 218 637 218 642 218 c 2,91,-1
 659 218 l 1,92,93
 659 213 659 213 661.5 204 c 128,-1,94
 664 195 664 195 664 191 c 0,0,1
EndSplineSet
EndChar
StartChar: o
Encoding: 111 111 80
Width: 532
GlyphClass: 2
Flags: W
Fore
548 265 m 1,0,1
 532 155 532 155 451.5 91 c 128,-1,2
 371 27 371 27 258 27 c 0,3,4
 202 27 202 27 141 66 c 0,5,6
 86 102 86 102 51 153 c 0,7,8
 44 163 44 163 35.5 203.5 c 128,-1,9
 27 244 27 244 27 259 c 0,10,11
 27 492 27 492 194 555 c 0,12,13
 205 560 205 560 235 572 c 0,14,15
 270 584 270 584 305 584 c 0,16,17
 355 584 355 584 394 565 c 0,18,19
 423 550 423 550 467 512 c 0,20,21
 514 471 514 471 522 445 c 0,22,23
 533 409 533 409 548 328 c 1,24,25
 547 327 547 327 547 311 c 256,26,27
 547 295 547 295 548 265 c 1,0,1
373 361 m 0,28,29
 373 407 373 407 343 445 c 0,30,31
 317 479 317 479 277 479 c 0,32,33
 243 479 243 479 224 443 c 0,34,35
 215 426 215 426 203 377 c 0,36,37
 186 314 186 314 186 268 c 0,38,39
 186 228 186 228 205 195 c 0,40,41
 228 157 228 157 265 157 c 0,42,43
 317 157 317 157 349 241 c 0,44,45
 373 305 373 305 373 361 c 0,28,29
EndSplineSet
EndChar
StartChar: p
Encoding: 112 112 81
Width: 537
GlyphClass: 2
Flags: W
Fore
575 265 m 0,0,1
 575 198 575 198 555 145 c 0,2,3
 530 80 530 80 479 54 c 0,4,5
 461 45 461 45 438 33 c 0,6,7
 401 14 401 14 396 14 c 2,8,-1
 334 14 l 1,9,10
 327 16 327 16 292 27 c 1,11,12
 291 26 291 26 291 17 c 0,13,14
 291 7 291 7 295 -27 c 0,15,16
 300 -68 300 -68 304 -77 c 1,17,-1
 368 -70 l 2,18,19
 390 -70 390 -70 392 -80 c 0,20,21
 398 -109 398 -109 398 -147 c 0,22,23
 398 -180 398 -180 387 -180 c 0,24,25
 385 -180 385 -180 328 -182 c 2,26,-1
 268 -184 l 2,27,28
 266 -184 266 -184 220 -182 c 2,29,-1
 172 -180 l 2,30,31
 169 -180 169 -180 143 -182 c 2,32,-1
 115 -184 l 2,33,34
 111 -184 111 -184 81 -180 c 1,35,36
 58 -182 58 -182 19 -174 c 1,37,38
 16 -157 16 -157 16 -127 c 0,39,40
 16 -90 16 -90 16 -88 c 1,41,42
 20 -72 20 -72 43 -67 c 0,43,44
 73 -61 73 -61 105 -44 c 1,45,46
 104 -22 104 -22 98 54 c 2,47,-1
 93 120 l 1,48,-1
 93 192 l 2,49,50
 93 271 93 271 81 351 c 0,51,52
 80 357 80 357 68 357 c 0,53,54
 45 356 45 356 23 352 c 1,55,56
 23 355 23 355 19.5 362.5 c 128,-1,57
 16 370 16 370 16 374 c 0,58,59
 16 435 16 435 18 469 c 0,60,61
 19 482 19 482 38 486 c 1,62,63
 54 487 54 487 69 488 c 0,64,65
 90 487 90 487 131 489 c 1,66,67
 163 496 163 496 227 507 c 1,68,69
 235 496 235 496 237 479 c 0,70,71
 240 449 240 449 240 443 c 1,72,73
 255 459 255 459 278 478 c 0,74,75
 285 484 285 484 319 499 c 0,76,77
 357 516 357 516 369 516 c 0,78,79
 447 516 447 516 481 487 c 0,80,81
 575 407 575 407 575 265 c 0,0,1
398 258 m 0,82,83
 398 304 398 304 388 342 c 0,84,85
 373 402 373 402 339 402 c 0,86,87
 266 402 266 402 270 335 c 0,88,89
 270 329 270 329 268 305 c 2,90,-1
 266 284 l 2,91,92
 266 233 266 233 276 191 c 0,93,94
 292 123 292 123 330 123 c 0,95,96
 398 123 398 123 398 258 c 0,82,83
EndSplineSet
EndChar
StartChar: q
Encoding: 113 113 82
Width: 555
GlyphClass: 2
Flags: W
Fore
591 -35 m 1,0,1
 587 -47 587 -47 587 -122 c 0,2,3
 587 -161 587 -161 574 -161 c 0,4,5
 568 -161 568 -161 557 -160 c 128,-1,6
 546 -159 546 -159 540 -159 c 0,7,8
 537 -159 537 -159 422 -172 c 2,9,-1
 303 -184 l 1,10,-1
 269 -184 l 1,11,12
 268 -187 268 -187 268 -140 c 0,13,14
 268 -104 268 -104 278 -90 c 0,15,16
 283 -83 283 -83 315 -67 c 0,17,18
 351 -48 351 -48 359 -42 c 1,19,20
 347 7 347 7 335 32 c 1,21,22
 256 -7 256 -7 211 -7 c 2,23,-1
 183 -7 l 2,24,25
 171 -7 171 -7 133 8 c 0,26,27
 68 33 68 33 32 110 c 0,28,29
 2 173 2 173 2 240 c 0,30,31
 2 335 2 335 51 413 c 0,32,33
 110 507 110 507 208 507 c 0,34,35
 298 507 298 507 362 466 c 1,36,37
 366 484 366 484 376 519 c 1,38,39
 436 517 436 517 554 523 c 1,40,41
 568 507 568 507 568 447 c 0,42,43
 568 394 568 394 561 371 c 1,44,45
 571 370 571 370 495 370 c 1,46,-1
 525 -34 l 1,47,48
 530 -34 530 -34 559 -31 c 0,49,50
 582 -29 582 -29 591 -35 c 1,0,1
334 265 m 1,51,52
 334 259 334 259 324 383 c 1,53,54
 306 400 306 400 291 400 c 0,55,56
 240 400 240 400 225 385 c 0,57,58
 206 366 206 366 194 314 c 0,59,60
 184 272 184 272 184 235 c 0,61,62
 184 182 184 182 201 151 c 1,63,64
 203 145 203 145 227 136 c 128,-1,65
 251 127 251 127 259 127 c 0,66,67
 287 127 287 127 302 135 c 0,68,69
 334 152 334 152 334 265 c 1,51,52
EndSplineSet
EndChar
StartChar: r
Encoding: 114 114 83
Width: 471
GlyphClass: 2
Flags: W
Fore
493 448 m 0,0,1
 493 392 493 392 461 349 c 0,2,3
 427 302 427 302 373 302 c 0,4,5
 332 302 332 302 307 325.5 c 128,-1,6
 282 349 282 349 282 389 c 0,7,8
 282 408 282 408 291 423 c 1,9,10
 252 413 252 413 252 376 c 0,11,12
 252 356 252 356 263 296 c 0,13,14
 273 243 273 243 270 221 c 0,15,16
 270 220 270 220 272.5 214 c 128,-1,17
 275 208 275 208 275 204 c 1,18,19
 282 204 282 204 297 205.5 c 128,-1,20
 312 207 312 207 319 207 c 1,21,22
 316 207 316 207 338 199 c 1,23,24
 337 184 337 184 334 140 c 0,25,26
 334 138 334 138 335 126 c 0,27,28
 336 117 336 117 335 110 c 0,29,30
 332 86 332 86 309 86 c 0,31,32
 306 86 306 86 235 81 c 2,33,-1
 160 75 l 1,34,-1
 60 75 l 2,35,36
 51 75 51 75 39 82 c 1,37,38
 38 120 38 120 42 149 c 0,39,40
 43 163 43 163 46 177 c 1,41,42
 59 190 59 190 105 210 c 1,43,44
 105 232 105 232 103 276 c 0,45,46
 103 302 103 302 102 354 c 0,47,48
 101 400 101 400 86 428 c 0,49,50
 80 439 80 439 62 439 c 0,51,52
 56 439 56 439 39 437 c 0,53,54
 23 435 23 435 16 437 c 1,55,-1
 16 460 l 2,56,57
 18 482 18 482 19 524 c 1,58,-1
 26 531 l 1,59,60
 69 532 69 532 158 540 c 2,61,-1
 245 548 l 2,62,63
 248 548 248 548 258 535 c 0,64,65
 259 534 259 534 258 522 c 0,66,67
 257 511 257 511 262 511 c 1,68,69
 354 545 354 545 397 545 c 0,70,71
 442 545 442 545 467.5 519 c 128,-1,72
 493 493 493 493 493 448 c 0,0,1
EndSplineSet
EndChar
StartChar: s
Encoding: 115 115 84
Width: 522
GlyphClass: 2
Flags: W
Fore
543 208 m 0,0,1
 543 175 543 175 524.5 144 c 128,-1,2
 506 113 506 113 477 98 c 0,3,4
 462 90 462 90 442 82 c 2,5,-1
 341 57 l 1,6,7
 338 57 338 57 313 56 c 2,8,-1
 284 55 l 2,9,10
 257 55 257 55 210 66 c 1,11,12
 195 74 195 74 176 82 c 1,13,-1
 159 82 l 1,14,15
 160 69 160 69 160 56 c 0,16,17
 160 39 160 39 158 21 c 1,18,19
 151 25 151 25 140 25 c 2,20,-1
 126 25 l 2,21,22
 122 25 122 25 113.5 26 c 128,-1,23
 105 27 105 27 101 27 c 0,24,25
 79 27 79 27 32 53 c 1,26,-1
 32 133 l 2,27,28
 32 144 32 144 27.5 170.5 c 128,-1,29
 23 197 23 197 23 208 c 0,30,31
 23 223 23 223 70 230 c 0,32,33
 104 235 104 235 131 235 c 1,34,-1
 177 177 l 2,35,36
 205 150 205 150 242 150 c 0,37,38
 267 150 267 150 297 164 c 0,39,40
 336 182 336 182 336 209 c 0,41,42
 336 225 336 225 316 234 c 0,43,44
 312 236 312 236 283 244 c 2,45,-1
 186 262 l 2,46,47
 20 295 20 295 20 400 c 0,48,49
 20 459 20 459 72 504 c 0,50,51
 120 547 120 547 181 550 c 1,52,53
 188 552 188 552 206.5 555.5 c 128,-1,54
 225 559 225 559 272 559 c 0,55,56
 301 559 301 559 360 549 c 0,57,58
 362 549 362 549 426 525 c 1,59,60
 428 537 428 537 435 563 c 1,61,62
 472 560 472 560 508 556 c 0,63,64
 521 554 521 554 524 542 c 0,65,66
 532 509 532 509 532 450 c 0,67,68
 532 414 532 414 521 396 c 1,69,70
 515 395 515 395 489 390 c 0,71,72
 468 386 468 386 458 386 c 2,73,-1
 412 386 l 1,74,75
 410 409 410 409 380 434 c 128,-1,76
 350 459 350 459 326 459 c 0,77,78
 296 459 296 459 273 448 c 0,79,80
 243 434 243 434 243 408 c 0,81,82
 243 393 243 393 242 396 c 1,83,84
 244 391 244 391 256 382 c 0,85,86
 260 379 260 379 308 370 c 0,87,88
 330 366 330 366 388 354 c 0,89,90
 489 329 489 329 522 288 c 1,91,92
 526 281 526 281 534.5 248.5 c 128,-1,93
 543 216 543 216 543 208 c 0,0,1
EndSplineSet
EndChar
StartChar: t
Encoding: 116 116 85
Width: 400
GlyphClass: 2
Flags: W
Fore
429 152 m 2,0,1
 429 141 429 141 414 94 c 0,2,3
 408 77 408 77 397 53 c 1,4,5
 381 37 381 37 353 3 c 1,6,7
 304 -11 304 -11 297 -11 c 2,8,-1
 222 -11 l 2,9,10
 181 -11 181 -11 142 14.5 c 128,-1,11
 103 40 103 40 85 77 c 0,12,13
 64 121 64 121 64 174 c 0,14,15
 64 195 64 195 75 290 c 2,16,-1
 86 382 l 1,17,18
 80 386 80 386 70 386 c 0,19,20
 65 386 65 386 53.5 384 c 128,-1,21
 42 382 42 382 36 382 c 0,22,23
 18 382 18 382 18 392 c 0,24,25
 18 396 18 396 32 469 c 0,26,27
 33 475 33 475 51 480.5 c 128,-1,28
 69 486 69 486 78 486 c 0,29,30
 80 486 80 486 81.5 485 c 128,-1,31
 83 484 83 484 85 484 c 0,32,33
 92 484 92 484 117.5 494 c 128,-1,34
 143 504 143 504 150 508.5 c 128,-1,35
 157 513 157 513 158 522 c 2,36,-1
 163 560 l 2,37,38
 166 584 166 584 162 643 c 1,39,-1
 183 643 l 2,40,41
 194 643 194 643 216 640 c 128,-1,42
 238 637 238 637 249 637 c 0,43,44
 296 637 296 637 310 620 c 1,45,-1
 307 518 l 1,46,47
 316 514 316 514 359 512 c 0,48,49
 389 510 389 510 400 497 c 1,50,-1
 399 384 l 1,51,-1
 381 386 l 2,52,53
 372 386 372 386 352.5 384 c 128,-1,54
 333 382 333 382 324 382 c 0,55,56
 287 382 287 382 274 381 c 1,57,58
 264 353 264 353 264 274 c 0,59,60
 264 187 264 187 280 142 c 0,61,62
 282 137 282 137 295.5 124 c 128,-1,63
 309 111 309 111 315 111 c 0,64,65
 320 111 320 111 322 124 c 0,66,67
 328 168 328 168 326 190 c 0,68,69
 325 206 325 206 321 249 c 1,70,71
 344 257 344 257 408 284 c 1,72,73
 419 267 419 267 420 260 c 2,74,-1
 429 152 l 2,0,1
EndSplineSet
EndChar
StartChar: u
Encoding: 117 117 86
Width: 642
GlyphClass: 2
Flags: W
Fore
675 85 m 0,0,1
 675 70 675 70 667 70 c 0,2,3
 586 70 586 70 462 43 c 1,4,5
 456 53 456 53 451 88 c 128,-1,6
 446 123 446 123 440 136 c 1,7,8
 424 106 424 106 363.5 73.5 c 128,-1,9
 303 41 303 41 268 41 c 2,10,-1
 235 41 l 2,11,12
 124 41 124 41 82 176 c 0,13,14
 79 184 79 184 73.5 231.5 c 128,-1,15
 68 279 68 279 68 290 c 0,16,17
 68 297 68 297 71.5 312.5 c 128,-1,18
 75 328 75 328 75 335 c 2,19,-1
 75 405 l 2,20,21
 75 418 75 418 80 442 c 1,22,23
 59 447 59 447 16 460 c 1,24,25
 18 465 18 465 25 497 c 0,26,27
 30 520 30 520 42 531 c 1,28,29
 61 533 61 533 112 538 c 0,30,31
 125 539 125 539 150 538 c 2,32,-1
 192 536 l 2,33,34
 203 536 203 536 226 539 c 2,35,-1
 250 541 l 2,36,37
 262 541 262 541 266 533 c 1,38,-1
 266 462 l 2,39,40
 266 459 266 459 264 416 c 2,41,-1
 261 369 l 2,42,43
 261 173 261 173 336 173 c 0,44,45
 344 173 344 173 363 193 c 0,46,47
 379 209 379 209 383 220 c 0,48,49
 393 245 393 245 398 276 c 2,50,-1
 409 350 l 1,51,52
 409 415 409 415 396 459 c 1,53,54
 392 458 392 458 375 449.5 c 128,-1,55
 358 441 358 441 355 441 c 0,56,57
 353 441 353 441 344 444 c 1,58,59
 332 502 332 502 332 526 c 2,60,-1
 332 536 l 1,61,62
 412 568 412 568 517 568 c 0,63,64
 519 568 519 568 521.5 567 c 128,-1,65
 524 566 524 566 526 566 c 0,66,67
 534 566 534 566 595 579 c 1,68,69
 618 486 618 486 618 497 c 1,70,71
 618 493 618 493 617 490 c 2,72,-1
 616 487 l 1,73,74
 589 482 589 482 563 482 c 1,75,76
 558 457 558 457 559 448 c 2,77,-1
 584 161 l 1,78,79
 587 158 587 158 593 158 c 0,80,81
 602 158 602 158 620 164 c 128,-1,82
 638 170 638 170 647 170 c 0,83,84
 661 170 661 170 666 138 c 0,85,86
 667 126 667 126 670 101 c 0,87,88
 670 100 670 100 672.5 94.5 c 128,-1,89
 675 89 675 89 675 85 c 0,0,1
EndSplineSet
EndChar
StartChar: v
Encoding: 118 118 87
Width: 610
GlyphClass: 2
Flags: W
Fore
639 543 m 0,0,1
 639 467 639 467 629 450 c 1,2,3
 627 450 627 450 622.5 451 c 128,-1,4
 618 452 618 452 616 452 c 0,5,6
 558 452 558 452 550 437 c 1,7,8
 535 385 535 385 515 335 c 0,9,10
 492 283 492 283 448 178 c 0,11,12
 420 110 420 110 388 46 c 1,13,14
 390 45 390 45 274 45 c 1,15,16
 286 45 286 45 216 55 c 1,17,18
 169 165 169 165 131 305 c 0,19,20
 122 333 122 333 101 403 c 0,21,22
 95 423 95 423 67 429 c 0,23,24
 61 430 61 430 21 432 c 1,25,26
 21 433 21 433 19.5 435.5 c 128,-1,27
 18 438 18 438 18 441 c 1,28,29
 18 437 18 437 24 458 c 1,30,-1
 30 502 l 2,31,32
 34 530 34 530 46 533 c 0,33,34
 79 542 79 542 142 550 c 0,35,36
 196 557 196 557 203 557 c 0,37,38
 208 557 208 557 217.5 555.5 c 128,-1,39
 227 554 227 554 232 554 c 0,40,41
 246 555 246 555 320 561 c 1,42,43
 329 534 329 534 348 482 c 1,44,45
 331 475 331 475 284 460 c 1,46,47
 292 424 292 424 319.5 344.5 c 128,-1,48
 347 265 347 265 353 224 c 0,49,50
 354 217 354 217 362 204 c 1,51,52
 365 209 365 209 407 320 c 0,53,54
 426 369 426 369 455 446 c 1,55,56
 438 452 438 452 431 452 c 0,57,58
 429 452 429 452 425 451 c 128,-1,59
 421 450 421 450 419 450 c 0,60,61
 398 450 398 450 398 467 c 0,62,63
 398 479 398 479 400.5 503.5 c 128,-1,64
 403 528 403 528 403 540 c 1,65,66
 455 562 455 562 583 564 c 0,67,68
 590 564 590 564 605 566 c 128,-1,69
 620 568 620 568 627 568 c 0,70,71
 639 568 639 568 639 543 c 0,0,1
EndSplineSet
EndChar
StartChar: w
Encoding: 119 119 88
Width: 831
GlyphClass: 2
Flags: W
Fore
861 448 m 1,0,1
 853 447 853 447 815 443 c 0,2,3
 782 440 782 440 769 420 c 0,4,5
 762 410 762 410 749 367 c 0,6,7
 735 319 735 319 696 196 c 0,8,9
 688 170 688 170 662 89 c 1,10,11
 660 77 660 77 659 76 c 2,12,13
 657 69 657 69 650 67 c 0,14,15
 619 57 619 57 584 57 c 0,16,17
 578 57 578 57 503 52 c 1,18,19
 494 73 494 73 464 169 c 0,20,21
 438 251 438 251 417 291 c 1,22,23
 382 205 382 205 364 150 c 0,24,25
 352 113 352 113 327 61 c 1,26,27
 288 66 288 66 258 66 c 2,28,-1
 174 66 l 2,29,30
 171 66 171 66 164 67.5 c 128,-1,31
 157 69 157 69 153 69 c 1,32,33
 139 97 139 97 111 192 c 1,34,35
 102 208 102 208 89 244 c 1,36,37
 80 300 80 300 49 410 c 1,38,39
 48 411 48 411 36 411 c 0,40,41
 30 411 30 411 19 410 c 128,-1,42
 8 409 8 409 2 409 c 1,43,-1
 2 421 l 2,44,45
 2 427 2 427 7 443.5 c 128,-1,46
 12 460 12 460 13 467 c 0,47,48
 13 468 13 468 16 513 c 1,49,50
 19 515 19 515 30 526 c 1,51,52
 60 525 60 525 86 525 c 0,53,54
 129 525 129 525 162 528 c 1,55,56
 190 535 190 535 249 540 c 1,57,58
 257 531 257 531 267 497 c 0,59,60
 279 459 279 459 286 448 c 1,61,62
 284 438 284 438 264 432 c 0,63,64
 237 424 237 424 225 419 c 1,65,66
 236 392 236 392 299 236 c 1,67,68
 309 240 309 240 338 335 c 0,69,70
 359 403 359 403 359 411 c 0,71,72
 359 415 359 415 358 416 c 1,73,74
 355 414 355 414 340 414 c 0,75,76
 327 414 327 414 323 433 c 1,77,78
 325 435 325 435 323 517 c 1,79,80
 325 528 325 528 354.5 530.5 c 128,-1,81
 384 533 384 533 464 540 c 1,82,83
 473 543 473 543 474 543 c 0,84,85
 477 543 477 543 505 542 c 2,86,-1
 536 541 l 2,87,88
 541 541 541 541 567 550 c 1,89,90
 573 550 573 550 576 542 c 0,91,92
 591 495 591 495 591 464 c 0,93,94
 591 448 591 448 568 444 c 2,95,-1
 553 441 l 2,96,97
 534 438 534 438 534 437 c 0,98,99
 551 372 551 372 583 241 c 1,100,101
 610 285 610 285 652 433 c 1,102,103
 649 436 649 436 645 436 c 0,104,105
 643 436 643 436 640.5 435 c 128,-1,106
 638 434 638 434 636 434 c 0,107,108
 625 434 625 434 617 444 c 1,109,110
 616 450 616 450 620 472 c 0,111,112
 622 484 622 484 611 533 c 1,113,114
 629 542 629 542 657 543 c 2,115,-1
 703 544 l 2,116,117
 712 544 712 544 765 552 c 2,118,-1
 821 559 l 2,119,120
 831 559 831 559 847 513 c 0,121,122
 861 472 861 472 861 460 c 2,123,-1
 861 448 l 1,0,1
EndSplineSet
EndChar
StartChar: x
Encoding: 120 120 89
Width: 665
GlyphClass: 2
Flags: W
Fore
686 159 m 0,0,1
 686 144 686 144 683 107 c 0,2,3
 680 67 680 67 676 66 c 0,4,5
 646 64 646 64 540 45 c 0,6,7
 458 30 458 30 406 30 c 0,8,9
 383 30 383 30 371 33 c 1,10,11
 357 67 357 67 357 86 c 0,12,13
 357 102 357 102 373.5 110.5 c 128,-1,14
 390 119 390 119 407 128 c 1,15,16
 365 163 365 163 322 193 c 1,17,18
 291 160 291 160 285 153 c 0,19,20
 264 129 264 129 254 108 c 1,21,22
 277 106 277 106 315 99 c 0,23,24
 325 97 325 97 325 86 c 0,25,26
 325 69 325 69 301 26 c 1,27,28
 295 20 295 20 290 20 c 0,29,30
 287 20 287 20 280.5 21.5 c 128,-1,31
 274 23 274 23 271 23 c 0,32,33
 236 25 236 25 165.5 29 c 128,-1,34
 95 33 95 33 71 40 c 0,35,36
 60 43 60 43 41 47 c 0,37,38
 16 55 16 55 16 65 c 0,39,40
 16 73 16 73 41 108 c 0,41,42
 63 140 63 140 73 151 c 0,43,44
 81 159 81 159 92 159 c 0,45,46
 97 159 97 159 109 155.5 c 128,-1,47
 121 152 121 152 126 152 c 0,48,49
 132 152 132 152 241 284 c 1,50,51
 228 306 228 306 148 425 c 1,52,53
 110 420 110 420 73 421 c 1,54,55
 68 456 68 456 68 478 c 0,56,57
 68 496 68 496 78 501 c 0,58,59
 96 510 96 510 126 514 c 0,60,61
 176 522 176 522 276 535 c 2,62,-1
 352 543 l 1,63,64
 397 478 397 478 397 450 c 1,65,66
 378 445 378 445 338 434 c 0,67,68
 336 433 336 433 336 429 c 0,69,70
 336 420 336 420 381 368 c 1,71,72
 403 397 403 397 448 458 c 1,73,74
 445 461 445 461 437 461 c 0,75,76
 435 461 435 461 432.5 460 c 128,-1,77
 430 459 430 459 428 459 c 0,78,79
 425 459 425 459 423 462 c 2,80,-1
 421 464 l 1,81,82
 421 469 421 469 419.5 479 c 128,-1,83
 418 489 418 489 418 493 c 0,84,85
 418 503 418 503 424 519 c 1,86,87
 464 537 464 537 598 539 c 0,88,89
 606 539 606 539 622.5 542 c 128,-1,90
 639 545 639 545 647 545 c 0,91,92
 662 545 662 545 675 511 c 0,93,94
 686 483 686 483 686 472 c 0,95,96
 686 470 686 470 685 467 c 128,-1,97
 684 464 684 464 684 462 c 1,98,99
 682 461 682 461 646 463 c 0,100,101
 620 464 620 464 606 452 c 0,102,103
 573 423 573 423 517 359 c 0,104,105
 468 302 468 302 468 297 c 0,106,107
 468 296 468 296 502 260 c 0,108,109
 529 228 529 228 583 169 c 0,110,111
 584 168 584 168 604 168 c 0,112,113
 607 168 607 168 638 169 c 2,114,-1
 672 170 l 2,115,116
 686 170 686 170 686 159 c 0,0,1
EndSplineSet
EndChar
StartChar: y
Encoding: 121 121 90
Width: 585
GlyphClass: 2
Flags: W
Fore
609 360 m 2,0,1
 609 355 609 355 604 346 c 1,2,3
 582 339 582 339 573 335 c 0,4,5
 552 327 552 327 544.5 319.5 c 128,-1,6
 537 312 537 312 528 278 c 0,7,8
 505 189 505 189 457 98 c 0,9,10
 423 35 423 35 354 -92 c 0,11,12
 335 -127 335 -127 295.5 -152 c 128,-1,13
 256 -177 256 -177 217 -177 c 0,14,15
 160 -177 160 -177 107 -143 c 0,16,17
 45 -103 45 -103 45 -45 c 0,18,19
 45 -2 45 -2 80 33 c 128,-1,20
 115 68 115 68 158 68 c 0,21,22
 189 68 189 68 212 51 c 0,23,24
 239 32 239 32 239 3 c 0,25,26
 239 -22 239 -22 228 -40 c 0,27,28
 223 -48 223 -48 200 -76 c 1,29,30
 212 -82 212 -82 216 -82 c 0,31,32
 226 -82 226 -82 242.5 -68 c 128,-1,33
 259 -54 259 -54 265 -44 c 0,34,35
 291 -2 291 -2 291 11 c 0,36,37
 291 13 291 13 277 36 c 0,38,39
 270 47 270 47 257 71 c 0,40,41
 228 147 228 147 199 219 c 0,42,43
 176 276 176 276 136 371 c 0,44,45
 135 373 135 373 127 373 c 1,46,47
 143 373 143 373 109 371.5 c 128,-1,48
 75 370 75 370 62 370 c 1,49,50
 58 371 58 371 56 380 c 1,51,52
 56 400 56 400 56 401 c 0,53,54
 56 408 56 408 57 415 c 1,55,56
 57 421 57 421 57 422 c 0,57,58
 57 447 57 447 62 481 c 1,59,-1
 176 489 l 2,60,61
 209 491 209 491 294 486 c 0,62,63
 309 485 309 485 317 455 c 0,64,65
 321 439 321 439 329 408 c 1,66,67
 309 397 309 397 273 369 c 1,68,69
 293 351 293 351 325 305.5 c 128,-1,70
 357 260 357 260 378 241 c 1,71,72
 407 305 407 305 430 364 c 1,73,74
 416 368 416 368 359 368 c 0,75,76
 348 368 348 368 348 381 c 1,77,78
 348 376 348 376 358 417 c 0,79,80
 363 437 363 437 364 461 c 1,81,82
 370 468 370 468 377 468 c 0,83,84
 396 468 396 468 429 466 c 0,85,86
 467 463 467 463 481 463 c 0,87,88
 512 462 512 462 555 458 c 0,89,90
 603 453 603 453 609 445 c 1,91,-1
 609 360 l 2,0,1
EndSplineSet
EndChar
StartChar: z
Encoding: 122 122 91
Width: 484
GlyphClass: 2
Flags: W
Fore
498 160 m 0,0,1
 498 98 498 98 498 139 c 1,2,3
 498 98 498 98 498 78 c 1,4,5
 497 75 497 75 494.5 63.5 c 128,-1,6
 492 52 492 52 486 52 c 1,7,8
 503 52 503 52 468 56.5 c 128,-1,9
 433 61 433 61 412 62 c 0,10,11
 403 63 403 63 324 71 c 2,12,-1
 48 71 l 1,13,-1
 48 124 l 2,14,15
 48 175 48 175 57 199 c 1,16,17
 70 214 70 214 102 252 c 0,18,19
 127 282 127 282 179 359 c 0,20,21
 196 384 196 384 239 446 c 0,22,23
 240 448 240 448 235 448 c 0,24,25
 225 448 225 448 134 423 c 1,26,27
 131 417 131 417 135 384 c 0,28,29
 138 360 138 360 139 345 c 0,30,31
 139 336 139 336 136 330 c 1,32,-1
 106 332 l 2,33,34
 105 332 105 332 47 329 c 1,35,36
 29 323 29 323 22 323 c 0,37,38
 11 323 11 323 11 339 c 0,39,40
 11 362 11 362 19 403 c 2,41,-1
 33 467 l 2,42,43
 36 485 36 485 44 530 c 1,44,45
 54 538 54 538 63 537 c 0,46,47
 88 535 88 535 127 540 c 0,48,49
 180 546 180 546 199 547 c 0,50,51
 271 550 271 550 417 550 c 0,52,53
 426 550 426 550 446 520.5 c 128,-1,54
 466 491 466 491 466 482 c 0,55,56
 466 472 466 472 439 441 c 2,57,-1
 409 407 l 1,58,59
 361 332 361 332 270 179 c 1,60,-1
 380 179 l 1,61,62
 382 188 382 188 393 302 c 1,63,64
 445 309 445 309 481 320 c 1,65,66
 492 310 492 310 492 301 c 0,67,68
 493 261 493 261 498 160 c 0,0,1
EndSplineSet
EndChar
StartChar: Aring
Encoding: 197 197 92
Width: 685
GlyphClass: 2
Flags: W
Fore
725 94 m 1,0,1
 702 87 702 87 655 84 c 0,2,3
 598 81 598 81 576 77 c 0,4,5
 527 66 527 66 434 49 c 1,6,7
 418 96 418 96 413 164 c 1,8,9
 424 173 424 173 470 196 c 1,10,11
 464 217 464 217 454.5 238.5 c 128,-1,12
 445 260 445 260 441 260 c 0,13,14
 394 260 394 260 325 246 c 0,15,16
 310 243 310 243 295 241 c 0,17,18
 277 236 277 236 260 225 c 1,19,-1
 260 180 l 1,20,21
 282 176 282 176 304 173 c 0,22,23
 337 167 337 167 337 154 c 0,24,25
 337 153 337 153 329 122 c 0,26,27
 326 106 326 106 324 89 c 0,28,29
 320 68 320 68 311 60 c 1,30,31
 221 70 221 70 181 70 c 0,32,33
 86 68 86 68 23 90 c 1,34,35
 22 96 22 96 23 107 c 1,36,37
 32 131 32 131 40 155 c 0,38,39
 51 184 51 184 62 187 c 1,40,41
 84 189 84 189 126 197 c 1,42,43
 134 200 134 200 140.5 225 c 128,-1,44
 147 250 147 250 160 298 c 0,45,46
 172 342 172 342 194 430 c 0,47,48
 207 468 207 468 229 542 c 0,49,50
 256 638 256 638 270 699 c 0,51,52
 274 721 274 721 289 721 c 0,53,54
 308 721 308 721 473 711 c 0,55,56
 482 710 482 710 485 702 c 0,57,58
 508 639 508 639 551 510 c 2,59,-1
 591 368 l 2,60,61
 619 275 619 275 654 215 c 1,62,63
 670 216 670 216 715 209 c 0,64,65
 724 207 724 207 721 179 c 0,66,67
 720 171 720 171 722 143 c 0,68,69
 725 103 725 103 725 94 c 1,0,1
469 360 m 1,70,71
 456 410 456 410 426 468 c 0,72,73
 400 517 400 517 375 566 c 1,74,75
 355 487 355 487 349 386 c 1,76,77
 370 376 370 376 469 360 c 1,70,71
424 768 m 0,78,79
 424 759 424 759 415 746 c 128,-1,80
 406 733 406 733 398 732 c 0,81,82
 374 731 374 731 381 731 c 1,83,84
 369 731 369 731 359 741 c 128,-1,85
 349 751 349 751 349 763 c 0,86,87
 349 777 349 777 359 790 c 128,-1,88
 369 803 369 803 383 803 c 0,89,90
 399 803 399 803 411.5 793.5 c 128,-1,91
 424 784 424 784 424 768 c 0,78,79
EndSplineSet
EndChar
StartChar: AE
Encoding: 198 198 93
Width: 881
GlyphClass: 2
Flags: W
Fore
898 283 m 0,0,1
 898 240 898 240 887 159 c 0,2,3
 876 75 876 75 868 67 c 1,4,5
 855 68 855 68 799 68 c 1,6,7
 821 68 821 68 557 76 c 0,8,9
 525 77 525 77 407 76 c 0,10,11
 401 76 401 76 391.5 73.5 c 128,-1,12
 382 71 382 71 380 71 c 0,13,14
 367 71 367 71 359 116 c 0,15,16
 354 146 354 146 353 171 c 1,17,18
 363 176 363 176 382 184.5 c 128,-1,19
 401 193 401 193 410 198 c 1,20,21
 404 219 404 219 388 261 c 1,22,23
 344 255 344 255 252 244 c 1,24,25
 249 242 249 242 244 238 c 1,26,27
 241 225 241 225 241 200 c 1,28,29
 249 195 249 195 269.5 195.5 c 128,-1,30
 290 196 290 196 299 191 c 1,31,-1
 299 184 l 2,32,33
 299 181 299 181 292 166 c 0,34,35
 284 147 284 147 282 140 c 0,36,37
 271 104 271 104 259 76 c 1,38,39
 166 91 166 91 129 98 c 0,40,41
 49 115 49 115 0 135 c 1,42,43
 0 142 0 142 1 153 c 1,44,45
 8 174 8 174 16 197.5 c 128,-1,46
 24 221 24 221 37 234 c 1,47,48
 55 235 55 235 87 245 c 0,49,50
 88 245 88 245 115 286 c 0,51,52
 149 339 149 339 213 456 c 0,53,54
 278 577 278 577 305 619 c 1,55,-1
 303 623 l 1,56,57
 299 626 299 626 268 623 c 0,58,59
 230 618 230 618 227 618 c 0,60,61
 210 618 210 618 203 622 c 1,62,63
 203 648 203 648 198 702 c 1,64,65
 225 715 225 715 307 719 c 0,66,67
 356 718 356 718 422 719 c 0,68,69
 457 719 457 719 532 725 c 0,70,71
 604 730 604 730 604.5 730 c 128,-1,72
 605 730 605 730 615 731 c 0,73,74
 625 731 625 731 630 731 c 0,75,76
 667 732 667 732 735 729 c 0,77,78
 740 729 740 729 751 726.5 c 128,-1,79
 762 724 762 724 764 724 c 256,80,81
 766 724 766 724 801 724 c 128,-1,82
 836 724 836 724 839 724 c 1,83,84
 838 724 838 724 849 725 c 0,85,86
 861 725 861 725 884 725 c 1,87,88
 886 691 886 691 896 610 c 1,89,90
 893 608 893 608 896 544 c 1,91,92
 891 536 891 536 873 536 c 0,93,94
 827 536 827 536 769 538 c 0,95,96
 752 539 752 539 748 577 c 0,97,98
 742 636 742 636 741 639 c 1,99,100
 657 631 657 631 604 621 c 1,101,102
 605 592 605 592 608.5 536 c 128,-1,103
 612 480 612 480 613 451 c 1,104,105
 615 450 615 450 621 450 c 0,106,107
 632 450 632 450 674 461 c 1,108,109
 677 481 677 481 689 518 c 1,110,111
 775 512 775 512 775 489 c 0,112,113
 775 457 775 457 750 312 c 0,114,115
 745 280 745 280 737 257 c 1,116,117
 722 254 722 254 726 254 c 1,118,119
 723 254 723 254 710 256 c 128,-1,120
 697 258 697 258 694 258 c 256,121,122
 691 258 691 258 683 257 c 128,-1,123
 675 256 675 256 671 256 c 0,124,125
 650 256 650 256 645.5 259 c 128,-1,126
 641 262 641 262 635.5 303.5 c 128,-1,127
 630 345 630 345 620 345 c 0,128,129
 588 345 588 345 588 321 c 0,130,131
 588 296 588 296 600 212 c 1,132,133
 603 208 603 208 609 208 c 0,134,135
 610 208 610 208 627.5 211 c 128,-1,136
 645 214 645 214 652 214 c 0,137,138
 669 214 669 214 803 222 c 1,139,140
 811 232 811 232 813 255 c 2,141,-1
 817 291 l 2,142,143
 819 306 819 306 833 306 c 1,144,145
 823 306 823 306 887 300 c 1,146,147
 898 290 898 290 898 283 c 0,0,1
431 368 m 1,148,-1
 431 380 l 1,149,150
 430 363 430 363 407 577 c 1,151,152
 375 521 375 521 313 408 c 0,153,154
 306 395 306 395 310 388 c 1,155,156
 325 386 325 386 373 376 c 0,157,158
 417 368 417 368 419 368 c 2,159,-1
 431 368 l 1,148,-1
EndSplineSet
EndChar
StartChar: Oslash
Encoding: 216 216 94
Width: 657
GlyphClass: 2
Flags: W
Fore
704 383 m 0,0,1
 704 363 704 363 685 316 c 0,2,3
 669 276 669 276 662 264 c 0,4,5
 597 149 597 149 552 105 c 2,6,7
 543 92 543 92 513 67 c 1,8,9
 484 50 484 50 437 35 c 0,10,11
 386 18 386 18 357 18 c 0,12,13
 319 18 319 18 254 46 c 0,14,15
 185 77 185 77 171 107 c 1,16,17
 163 99 163 99 127 71 c 128,-1,18
 91 43 91 43 87 43 c 0,19,20
 76 43 76 43 61 78 c 0,21,22
 48 108 48 108 48 116 c 0,23,24
 48 126 48 126 58 143 c 0,25,26
 85 188 85 188 91 195 c 1,27,28
 91 196 91 196 77.5 213.5 c 128,-1,29
 64 231 64 231 62 235 c 0,30,31
 32 301 32 301 36 344 c 0,32,33
 36 354 36 354 34 383 c 2,34,-1
 32 410 l 2,35,36
 32 418 32 418 35 434.5 c 128,-1,37
 38 451 38 451 38 456 c 0,38,39
 47 558 47 558 110 627 c 0,40,41
 123 642 123 642 168 675 c 0,42,43
 219 713 219 713 244 719 c 0,44,45
 305 734 305 734 357 734 c 0,46,47
 467 734 467 734 514 693 c 1,48,49
 518 707 518 707 534 733 c 0,50,51
 554 766 554 766 566 766 c 0,52,53
 570 766 570 766 581 755 c 1,54,55
 585 752 585 752 612 735 c 128,-1,56
 639 718 639 718 639 706 c 0,57,58
 639 703 639 703 615 673.5 c 128,-1,59
 591 644 591 644 591 641 c 0,60,61
 591 635 591 635 602 611 c 128,-1,62
 613 587 613 587 618 581 c 0,63,64
 632 564 632 564 655 528 c 0,65,66
 665 508 665 508 674 488 c 1,67,68
 676 478 676 478 682 456 c 1,69,70
 687 449 687 449 694 433 c 0,71,72
 704 397 704 397 704 383 c 0,0,1
445 598 m 0,73,74
 445 609 445 609 420 617 c 0,75,76
 401 623 401 623 385 623 c 0,77,78
 335 623 335 623 314 615 c 0,79,80
 269 598 269 598 239 542 c 0,81,82
 211 491 211 491 211 439 c 0,83,84
 211 414 211 414 220 387 c 0,85,86
 231 355 231 355 249 343 c 1,87,88
 286 400 286 400 325 441 c 0,89,90
 350 466 350 466 374 490 c 0,91,92
 403 522 403 522 414 546 c 0,93,94
 416 551 416 551 430.5 572.5 c 128,-1,95
 445 594 445 594 445 598 c 0,73,74
500 352 m 0,96,97
 500 424 500 424 472 473 c 1,98,99
 456 449 456 449 415 390 c 0,100,101
 316 254 316 254 316 245 c 0,102,103
 316 239 316 239 341 219.5 c 128,-1,104
 366 200 366 200 374 198 c 1,105,-1
 391 198 l 2,106,107
 500 198 500 198 500 352 c 0,96,97
EndSplineSet
EndChar
StartChar: aring
Encoding: 229 229 95
Width: 553
GlyphClass: 2
Flags: W
Fore
364 623 m 256,0,1
 364 587 364 587 335 560.5 c 128,-1,2
 306 534 306 534 270 534 c 0,3,4
 239 534 239 534 211.5 560 c 128,-1,5
 184 586 184 586 184 617 c 0,6,7
 184 669 184 669 237 703 c 0,8,9
 254 714 254 714 259 714 c 0,10,11
 262 714 262 714 271 708 c 2,12,-1
 283 700 l 1,13,14
 299 697 299 697 327 685 c 1,15,16
 364 659 364 659 364 623 c 256,0,1
593 168 m 0,17,18
 593 34 593 34 451 13 c 0,19,20
 424 9 424 9 434 9 c 1,21,22
 393 9 393 9 353 30 c 0,23,24
 343 35 343 35 333 66 c 1,25,26
 269 33 269 33 237 23 c 0,27,28
 200 11 200 11 159 11 c 0,29,30
 106 11 106 11 69 40 c 0,31,32
 27 71 27 71 27 122 c 0,33,34
 27 200 27 200 117 259 c 0,35,36
 157 285 157 285 248 322 c 1,37,38
 269 327 269 327 309 347 c 1,39,40
 306 425 306 425 225 425 c 0,41,42
 203 425 203 425 189 419 c 1,43,44
 197 411 197 411 213.5 393 c 128,-1,45
 230 375 230 375 230 359 c 0,46,47
 230 326 230 326 189 306 c 0,48,49
 158 291 158 291 128 291 c 0,50,51
 100 291 100 291 69 303 c 0,52,53
 49 311 49 311 37 330 c 0,54,55
 32 338 32 338 32 366 c 0,56,57
 32 388 32 388 46 425 c 0,58,59
 61 466 61 466 76 476 c 0,60,61
 107 496 107 496 126 501 c 0,62,63
 172 514 172 514 206 514 c 0,64,65
 310 514 310 514 347 507 c 0,66,67
 474 483 474 483 476 312 c 0,68,69
 476 270 476 270 476 187 c 0,70,71
 476 169 476 169 480 156 c 0,72,73
 484 135 484 135 496 130 c 1,74,75
 514 138 514 138 510 187 c 0,76,77
 509 198 509 198 507 219 c 1,78,79
 558 248 558 248 572 248 c 0,80,81
 583 248 583 248 585 238 c 0,82,83
 593 204 593 204 593 168 c 0,17,18
298 626 m 0,84,85
 298 632 298 632 289 638.5 c 128,-1,86
 280 645 280 645 274 645 c 0,87,88
 266 645 266 645 264 631 c 1,89,90
 264 607 264 607 281 607 c 0,91,92
 286 607 286 607 292 614 c 128,-1,93
 298 621 298 621 298 626 c 0,84,85
375 157 m 1,94,-1
 375 176 l 2,95,96
 375 196 375 196 340 261 c 1,97,98
 211 239 211 239 211 178 c 0,99,100
 211 168 211 168 219 166 c 0,101,102
 278 157 278 157 282 157 c 2,103,-1
 375 157 l 1,94,-1
EndSplineSet
EndChar
StartChar: ae
Encoding: 230 230 96
Width: 773
GlyphClass: 2
Flags: W
Fore
791 392 m 0,0,1
 791 367 791 367 783 342 c 1,2,3
 755 334 755 334 686 317 c 0,4,5
 596 295 596 295 475 257 c 1,6,7
 500 186 500 186 542 186 c 0,8,9
 556 186 556 186 587.5 198.5 c 128,-1,10
 619 211 619 211 630 221 c 0,11,12
 645 234 645 234 659 257 c 0,13,14
 670 275 670 275 678 275 c 0,15,16
 686 274 686 274 739 267 c 1,17,18
 745 260 745 260 745 253 c 0,19,20
 745 242 745 242 731 189 c 0,21,22
 724 163 724 163 686 131 c 128,-1,23
 648 99 648 99 620 92 c 0,24,25
 582 82 582 82 586 82 c 1,26,27
 580 82 580 82 566.5 79.5 c 128,-1,28
 553 77 553 77 547 77 c 0,29,30
 543 77 543 77 534 79.5 c 128,-1,31
 525 82 525 82 522 82 c 0,32,33
 516 82 516 82 500 85.5 c 128,-1,34
 484 89 484 89 478 89 c 0,35,36
 476 89 476 89 475 87.5 c 128,-1,37
 474 86 474 86 472 86 c 0,38,39
 453 86 453 86 417 98 c 0,40,41
 414 99 414 99 369 117 c 1,42,43
 367 117 367 117 359 123.5 c 128,-1,44
 351 130 351 130 348 130 c 0,45,46
 347 130 347 130 326 114 c 128,-1,47
 305 98 305 98 301 96 c 0,48,49
 226 55 226 55 158 55 c 0,50,51
 155 55 155 55 155 53 c 1,52,-1
 155 53 l 1,53,54
 155 52 155 52 152 52 c 0,55,56
 150 52 150 52 119 63 c 1,57,58
 111 63 111 63 96 67 c 1,59,60
 48 89 48 89 32 106 c 0,61,62
 11 128 11 128 11 173 c 0,63,64
 11 222 11 222 48 274 c 128,-1,65
 85 326 85 326 130 347 c 1,66,67
 131 345 131 345 124 345 c 0,68,69
 92 345 92 345 71 362 c 0,70,71
 55 375 55 375 35 407 c 0,72,73
 30 415 30 415 30 445 c 0,74,75
 30 496 30 496 46 511 c 0,76,77
 77 541 77 541 129.5 565 c 128,-1,78
 182 589 182 589 222 589 c 0,79,80
 258 589 258 589 288 581 c 0,81,82
 295 579 295 579 322 565 c 0,83,84
 327 562 327 562 350.5 543.5 c 128,-1,85
 374 525 374 525 376 525 c 1,86,87
 405 543 405 543 448 567 c 0,88,89
 486 582 486 582 544 582 c 0,90,91
 577 582 577 582 636.5 566.5 c 128,-1,92
 696 551 696 551 718 533 c 0,93,94
 756 502 756 502 764 472 c 1,95,96
 769 466 769 466 776 451 c 0,97,98
 791 406 791 406 791 392 c 0,0,1
593 422 m 0,99,100
 593 444 593 444 578.5 461.5 c 128,-1,101
 564 479 564 479 543 479 c 0,102,103
 477 479 477 479 450 410 c 1,104,105
 460 410 460 410 481 406 c 128,-1,106
 502 402 502 402 510 402 c 2,107,-1
 590 402 l 1,108,109
 593 411 593 411 593 422 c 0,99,100
307 407 m 1,110,111
 306 436 306 436 286 452 c 0,112,113
 274 461 274 461 241 471.5 c 128,-1,114
 208 482 208 482 196 491 c 1,115,116
 216 456 216 456 216 436 c 0,117,118
 216 390 216 390 167 367 c 1,119,120
 172 368 172 368 307 407 c 1,110,111
311 252 m 0,121,122
 311 265 311 265 306 300 c 1,123,124
 280 296 280 296 235 288 c 0,125,126
 210 280 210 280 188 258 c 128,-1,127
 166 236 166 236 166 212 c 0,128,129
 166 195 166 195 188 185 c 0,130,131
 205 177 205 177 224 177 c 0,132,133
 227 177 227 177 249 176 c 2,134,-1
 274 175 l 2,135,136
 292 175 292 175 301 178 c 1,137,138
 311 220 311 220 311 252 c 0,121,122
EndSplineSet
EndChar
StartChar: ntilde
Encoding: 241 241 97
Width: 640
GlyphClass: 2
Flags: HW
Fore
308.796 759.38 m 1,6,7
 339.171 746.241 339.171 746.241 380 724 c 1,8,9
 409.392 700.862 409.392 700.862 431.889 704.387 c 0,10,11
 465.635 709.675 465.635 709.675 469.46 730.858 c 1,12,13
 448.971 737.492 448.971 737.492 426.283 734.832 c 0,14,15
 415.034 733.069 415.034 733.069 410.868 752.105 c 0,16,17
 407.648 766.815 407.648 766.815 411.171 770.053 c 0,18,19
 421.359 781.494 421.359 781.494 445.447 794.665 c 128,-1,20
 469.536 807.837 469.536 807.837 485.897 810.4 c 0,21,22
 520.666 815.849 520.666 815.849 557.783 791.236 c 0,23,24
 585.016 773.129 585.016 773.129 593.537 734.191 c 1,25,26
 591.833 741.979 591.833 741.979 590.886 722.141 c 0,27,28
 590.053 696.952 590.053 696.952 590.242 696.086 c 0,29,30
 584.255 657.669 584.255 657.669 536.839 625.966 c 0,31,32
 503.623 603.757 503.623 603.757 483.171 600.553 c 0,33,34
 478.058 599.751 478.058 599.751 467.51 597.203 c 128,-1,35
 456.961 594.655 456.961 594.655 451.849 593.854 c 0,36,37
 374.507 581.735 374.507 581.735 330.611 601.705 c 2,38,-1
 247.213 639.65 l 2,39,40
 201.854 660.286 201.854 660.286 163.623 654.296 c 1,41,42
 162.79 653.271 162.79 653.271 145.708 644.33 c 0,43,44
 137.073 640.291 137.073 640.291 138.134 630.613 c 1,45,46
 143.398 616.224 143.398 616.224 149.192 584.913 c 1,47,-1
 147.527 582.862 l 1,48,49
 144.647 581.517 144.647 581.517 141.58 581.035 c 256,50,51
 138.512 580.555 138.512 580.555 128.551 582.573 c 128,-1,52
 118.59 584.593 118.59 584.593 115.333 584.977 c 1,53,54
 94.8809 581.772 94.8809 581.772 57.5742 583.086 c 1,55,56
 48.6357 585.266 48.6357 585.266 34.2051 612.538 c 0,57,58
 20.3428 637.215 20.3428 637.215 17.6924 649.329 c 0,59,60
 13.5264 668.365 13.5264 668.365 38.5332 708.754 c 128,-1,61
 63.54 749.142 63.54 749.142 80.5264 758.516 c 1,62,63
 190.76 781.605 l 0,0,0
 308.796 759.38 l 1,6,7
664 191 m 0,0,1
 664 178 664 178 659 134 c 0,2,3
 655 99 655 99 658 76 c 0,4,5
 658 73 658 73 657 67.5 c 128,-1,6
 656 62 656 62 656 59 c 1,7,8
 627 57 627 57 578 57 c 0,9,10
 574 57 574 57 564.5 54.5 c 128,-1,11
 555 52 555 52 551.5 52 c 128,-1,12
 548 52 548 52 481 47 c 2,13,-1
 411 41 l 2,14,15
 408 41 408 41 400.5 43 c 128,-1,16
 393 45 393 45 390 45 c 0,17,18
 380 45 380 45 371 50 c 1,19,20
 364 84 364 84 364 119 c 0,21,22
 364 124 364 124 365 134.5 c 128,-1,23
 366 145 366 145 366 150 c 1,24,25
 400 157 400 157 427 177 c 1,26,-1
 427 246 l 2,27,28
 427 260 427 260 416 308 c 0,29,30
 401 373 401 373 397 382 c 0,31,32
 377 425 377 425 333 425 c 0,33,34
 314 425 314 425 291 412 c 128,-1,35
 268 399 268 399 266 381 c 0,36,37
 264 358 264 358 264 329 c 0,38,39
 264 310 264 310 267 273.5 c 128,-1,40
 270 237 270 237 270 218 c 256,41,42
 270 199 270 199 266 183 c 1,43,44
 267 174 267 174 264 154 c 1,45,-1
 331 154 l 1,46,-1
 331 41 l 1,47,-1
 39 50 l 1,48,-1
 35 55 l 1,49,-1
 30 52 l 1,50,-1
 30 133 l 1,51,52
 37 139 37 139 64.5 144.5 c 128,-1,53
 92 150 92 150 100 156 c 1,54,-1
 93 283 l 1,55,-1
 93 355 l 2,56,57
 93 357 93 357 94.5 361.5 c 128,-1,58
 96 366 96 366 96 368 c 1,59,60
 88 369 88 369 23 375 c 1,61,62
 18 387 18 387 18 412 c 1,63,64
 18 392 18 392 19.5 441 c 128,-1,65
 21 490 21 490 21 501 c 1,66,67
 25 505 25 505 96 512 c 0,68,69
 181 520 181 520 169 520 c 1,70,71
 171 520 171 520 174 519 c 128,-1,72
 177 518 177 518 179 518 c 2,73,-1
 186 518 l 1,74,75
 194 487 194 487 197 459 c 1,76,77
 221 504 221 504 280 531 c 0,78,79
 297 539 297 539 341 551.5 c 128,-1,80
 385 564 385 564 399 564 c 0,81,82
 449 564 449 564 503 517 c 0,83,84
 552 475 552 475 572 425 c 0,85,86
 590 381 590 381 593 320 c 0,87,88
 594 285 594 285 597 216 c 1,89,90
 637 218 637 218 642 218 c 2,91,-1
 659 218 l 1,92,93
 659 213 659 213 661.5 204 c 128,-1,94
 664 195 664 195 664 191 c 0,0,1
EndSplineSet
EndChar
StartChar: oslash
Encoding: 248 248 98
Width: 556
GlyphClass: 2
Flags: W
Fore
573 492 m 0,0,1
 573 489 573 489 552.5 460.5 c 128,-1,2
 532 432 532 432 532 429 c 0,3,4
 532 408 532 408 542 365 c 128,-1,5
 552 322 552 322 552 301 c 0,6,7
 552 217 552 217 512 152 c 0,8,9
 470 84 470 84 395 53 c 0,10,11
 371 43 371 43 317 43 c 2,12,-1
 284 43 l 2,13,14
 219 43 219 43 169 73 c 0,15,16
 167 74 167 74 152.5 86 c 128,-1,17
 138 98 138 98 134 98 c 0,18,19
 128 98 128 98 102.5 74 c 128,-1,20
 77 50 77 50 68 50 c 0,21,22
 57 50 57 50 41 89 c 0,23,24
 27 123 27 123 27 131 c 0,25,26
 27 140 27 140 30 143 c 2,27,-1
 68 187 l 1,28,29
 68 188 68 188 49 242 c 128,-1,30
 30 296 30 296 30 336 c 0,31,32
 30 422 30 422 79 484 c 0,33,34
 97 506 97 506 105 515 c 0,35,36
 119 530 119 530 137 538 c 0,37,38
 187 561 187 561 214 567 c 0,39,40
 264 579 264 579 317 579 c 0,41,42
 355 579 355 579 398.5 560 c 128,-1,43
 442 541 442 541 439 541 c 1,44,45
 445 543 445 543 463 555 c 0,46,47
 478 565 478 565 498 578 c 1,48,49
 507 578 507 578 522 579 c 1,50,51
 523 578 523 578 549 536 c 0,52,53
 573 498 573 498 573 492 c 0,0,1
327 449 m 1,54,55
 303 461 303 461 282 461 c 1,56,57
 275 460 275 460 255 455 c 0,58,59
 214 445 214 445 214 382 c 0,60,61
 214 374 214 374 215.5 357 c 128,-1,62
 217 340 217 340 217 332 c 1,63,64
 255 371 255 371 327 449 c 1,54,55
375 266 m 0,65,66
 375 274 375 274 363 318 c 1,67,68
 307 283 307 283 256 247 c 0,69,70
 252 245 252 245 252 234 c 0,71,72
 252 214 252 214 267 189 c 0,73,74
 273 180 273 180 294 170 c 0,75,76
 307 164 307 164 308 164 c 0,77,78
 319 164 319 164 336 171 c 0,79,80
 375 187 375 187 375 266 c 0,65,66
EndSplineSet
EndChar
StartChar: hyphen
Encoding: 8208 8208 99
Width: 695
GlyphClass: 2
Flags: W
Fore
695 334 m 0,0,1
 695 316 695 316 686 316 c 0,2,3
 684 316 684 316 681 317 c 128,-1,4
 678 318 678 318 676 318 c 0,5,6
 673 318 673 318 669 312.5 c 128,-1,7
 665 307 665 307 662 307 c 0,8,9
 652 307 652 307 511 295 c 0,10,11
 506 295 506 295 496.5 296.5 c 128,-1,12
 487 298 487 298 483 298 c 0,13,14
 441 298 441 298 355 285.5 c 128,-1,15
 269 273 269 273 226 273 c 0,16,17
 192 273 192 273 169 278 c 0,18,19
 164 279 164 279 164 290 c 0,20,21
 164 308 164 308 161.5 344 c 128,-1,22
 159 380 159 380 159 374 c 1,23,-1
 159 422 l 1,24,25
 310 436 310 436 481 463 c 0,26,27
 557 475 557 475 574 475 c 0,28,29
 642 475 642 475 669 470 c 0,30,31
 682 468 682 468 683 453 c 0,32,33
 685 418 685 418 689 360 c 0,34,35
 689 356 689 356 692 347 c 128,-1,36
 695 338 695 338 695 334 c 0,0,1
EndSplineSet
EndChar
